<svg width="54" height="54" viewBox="0 0 54 54" fill="none" xmlns="http://www.w3.org/2000/svg">
<path d="M44.5008 35.7498C42.4839 35.7478 40.5291 36.4469 38.9708 37.7273L35.6283 34.3935C37.4007 32.3379 38.3757 29.714 38.3757 26.9998C38.3757 24.2856 37.4007 21.6616 35.6283 19.606L38.4633 16.771C39.4519 17.5429 40.6312 18.0327 41.8758 18.1885V20.1223C41.0509 20.3353 40.3321 20.8417 39.854 21.5468C39.3759 22.2518 39.1713 23.1071 39.2787 23.9522C39.386 24.7972 39.7979 25.5742 40.4371 26.1373C41.0763 26.7005 41.8989 27.0111 42.7508 27.0111C43.6026 27.0111 44.4253 26.7005 45.0645 26.1373C45.7037 25.5742 46.1155 24.7972 46.2229 23.9522C46.3302 23.1071 46.1256 22.2518 45.6475 21.5468C45.1694 20.8417 44.4506 20.3353 43.6258 20.1223V18.1885C44.9261 18.0261 46.1548 17.5019 47.1719 16.6756C48.189 15.8493 48.9537 14.754 49.3791 13.5145C49.8044 12.275 49.8732 10.941 49.5778 9.66427C49.2823 8.38756 48.6344 7.21942 47.7078 6.29278C46.7811 5.36615 45.613 4.71823 44.3363 4.42277C43.0596 4.12731 41.7255 4.19616 40.486 4.6215C39.2465 5.04683 38.1513 5.81157 37.325 6.82868C36.4987 7.84579 35.9745 9.07443 35.812 10.3748H33.8783C33.6653 9.54996 33.1588 8.83112 32.4538 8.35301C31.7487 7.8749 30.8935 7.67034 30.0484 7.77768C29.2033 7.88502 28.4264 8.29689 27.8632 8.93608C27.3001 9.57528 26.9894 10.3979 26.9894 11.2498C26.9894 12.1017 27.3001 12.9243 27.8632 13.5635C28.4264 14.2027 29.2033 14.6145 30.0484 14.7219C30.8935 14.8292 31.7487 14.6247 32.4538 14.1466C33.1588 13.6685 33.6653 12.9496 33.8783 12.1248H35.812C35.9678 13.3694 36.4576 14.5486 37.2295 15.5373L34.3945 18.3723C32.3389 16.5999 29.715 15.6248 27.0008 15.6248C24.2865 15.6248 21.6626 16.5999 19.607 18.3723L16.2733 15.0298C17.693 13.2913 18.3904 11.0738 18.2212 8.8357C18.0521 6.59758 17.0293 4.51005 15.3644 3.00474C13.6996 1.49943 11.5199 0.691455 9.2761 0.747886C7.03232 0.804317 4.89601 1.72084 3.30891 3.30794C1.72181 4.89504 0.805294 7.03134 0.748863 9.27513C0.692431 11.5189 1.5004 13.6986 3.00572 15.3635C4.51103 17.0283 6.59856 18.0511 8.83668 18.2202C11.0748 18.3894 13.2923 17.692 15.0308 16.2723L18.3733 19.606C16.6008 21.6616 15.6258 24.2856 15.6258 26.9998C15.6258 29.714 16.6008 32.3379 18.3733 34.3935L15.5383 37.2285C14.5496 36.4566 13.3704 35.9668 12.1258 35.811V33.8773C12.9506 33.6643 13.6694 33.1578 14.1475 32.4528C14.6257 31.7477 14.8302 30.8925 14.7229 30.0474C14.6155 29.2023 14.2037 28.4254 13.5645 27.8623C12.9253 27.2991 12.1026 26.9884 11.2508 26.9884C10.3989 26.9884 9.57625 27.2991 8.93706 27.8623C8.29787 28.4254 7.886 29.2023 7.77866 30.0474C7.67132 30.8925 7.87587 31.7477 8.35399 32.4528C8.8321 33.1578 9.55094 33.6643 10.3758 33.8773V35.811C9.07541 35.9735 7.84677 36.4977 6.82966 37.324C5.81255 38.1503 5.04781 39.2455 4.62247 40.4851C4.19714 41.7246 4.12828 43.0586 4.42375 44.3353C4.71921 45.612 5.36712 46.7802 6.29376 47.7068C7.22039 48.6334 8.38853 49.2813 9.66525 49.5768C10.942 49.8723 12.276 49.8034 13.5155 49.3781C14.755 48.9527 15.8502 48.188 16.6765 47.1709C17.5029 46.1538 18.0271 44.9251 18.1895 43.6248H20.1233C20.3362 44.4496 20.8427 45.1685 21.5478 45.6466C22.2528 46.1247 23.108 46.3292 23.9531 46.2219C24.7982 46.1146 25.5752 45.7027 26.1383 45.0635C26.7014 44.4243 27.0121 43.6017 27.0121 42.7498C27.0121 41.8979 26.7014 41.0753 26.1383 40.4361C25.5752 39.7969 24.7982 39.385 23.9531 39.2777C23.108 39.1703 22.2528 39.3749 21.5478 39.853C20.8427 40.3311 20.3362 41.05 20.1233 41.8748H18.1895C18.0337 40.6302 17.5439 39.451 16.772 38.4623L19.607 35.6273C21.6626 37.3997 24.2865 38.3747 27.0008 38.3747C29.715 38.3747 32.3389 37.3997 34.3945 35.6273L37.7283 38.9698C36.4727 40.5094 35.7784 42.4305 35.7596 44.4171C35.7409 46.4038 36.3987 48.3376 37.625 49.9007C38.8513 51.4638 40.573 52.563 42.507 53.0176C44.441 53.4722 46.4722 53.2551 48.2664 52.4021C50.0606 51.549 51.5112 50.1107 52.3794 48.3238C53.2477 46.5368 53.4819 44.5076 53.0438 42.5698C52.6056 40.6321 51.521 38.9011 49.9683 37.6616C48.4157 36.4221 46.4875 35.7479 44.5008 35.7498ZM30.5008 12.9998C30.1546 12.9998 29.8163 12.8972 29.5285 12.7049C29.2407 12.5126 29.0164 12.2393 28.884 11.9195C28.7515 11.5997 28.7169 11.2478 28.7844 10.9084C28.8519 10.5689 29.0186 10.2571 29.2633 10.0123C29.5081 9.76761 29.8199 9.60094 30.1594 9.53341C30.4988 9.46589 30.8507 9.50054 31.1705 9.633C31.4902 9.76545 31.7635 9.98975 31.9558 10.2775C32.1481 10.5653 32.2508 10.9037 32.2508 11.2498C32.2508 11.7139 32.0664 12.159 31.7382 12.4872C31.41 12.8154 30.9649 12.9998 30.5008 12.9998ZM23.5008 40.9998C23.8469 40.9998 24.1852 41.1024 24.473 41.2947C24.7608 41.487 24.9851 41.7603 25.1176 42.0801C25.25 42.3999 25.2847 42.7517 25.2171 43.0912C25.1496 43.4307 24.9829 43.7425 24.7382 43.9872C24.4935 44.232 24.1816 44.3986 23.8422 44.4662C23.5027 44.5337 23.1508 44.499 22.8311 44.3666C22.5113 44.2341 22.238 44.0098 22.0457 43.722C21.8534 43.4342 21.7508 43.0959 21.7508 42.7498C21.7508 42.2857 21.9351 41.8405 22.2633 41.5123C22.5915 41.1842 23.0366 40.9998 23.5008 40.9998ZM44.5008 23.4998C44.5008 23.8459 44.3981 24.1842 44.2058 24.472C44.0135 24.7598 43.7402 24.9841 43.4205 25.1166C43.1007 25.249 42.7488 25.2837 42.4094 25.2162C42.0699 25.1486 41.7581 24.982 41.5133 24.7372C41.2686 24.4925 41.1019 24.1807 41.0344 23.8412C40.9669 23.5017 41.0015 23.1499 41.134 22.8301C41.2664 22.5103 41.4907 22.237 41.7785 22.0447C42.0663 21.8524 42.4046 21.7498 42.7508 21.7498C43.2149 21.7498 43.66 21.9342 43.9882 22.2623C44.3164 22.5905 44.5008 23.0357 44.5008 23.4998ZM42.7508 5.99979C43.7891 5.99979 44.8041 6.30769 45.6675 6.88457C46.5309 7.46145 47.2038 8.28139 47.6011 9.2407C47.9985 10.2 48.1025 11.2556 47.8999 12.274C47.6973 13.2924 47.1973 14.2279 46.4631 14.9621C45.7288 15.6963 44.7934 16.1963 43.775 16.3989C42.7566 16.6015 41.701 16.4975 40.7417 16.1002C39.7824 15.7028 38.9624 15.0299 38.3855 14.1665C37.8087 13.3032 37.5008 12.2881 37.5008 11.2498C37.5008 9.8574 38.0539 8.52204 39.0385 7.53748C40.023 6.55291 41.3584 5.99979 42.7508 5.99979ZM2.50076 9.49979C2.50002 8.31578 2.79962 7.15093 3.37153 6.11421C3.94344 5.07749 4.76897 4.20277 5.7709 3.57189C6.77282 2.94101 7.9184 2.57457 9.10047 2.50687C10.2825 2.43916 11.4625 2.6724 12.5299 3.18475C13.5973 3.69711 14.5173 4.47184 15.2038 5.43648C15.8904 6.40112 16.321 7.52414 16.4555 8.70049C16.5899 9.87684 16.4238 11.0681 15.9726 12.1627C15.5215 13.2574 14.8 14.2198 13.8758 14.9598V13.8748C13.8756 13.2993 13.762 12.7294 13.5412 12.1979C13.3205 11.6664 12.9971 11.1836 12.5895 10.7773C12.3923 10.5805 12.1753 10.4046 11.942 10.2523C12.4409 9.76665 12.7837 9.14323 12.9264 8.46176C13.0692 7.7803 13.0054 7.07174 12.7433 6.4267C12.4812 5.78165 12.0327 5.22944 11.4551 4.84067C10.8775 4.4519 10.197 4.24424 9.50076 4.24424C8.8045 4.24424 8.12407 4.4519 7.54646 4.84067C6.96885 5.22944 6.52032 5.78165 6.25822 6.4267C5.99612 7.07174 5.93236 7.7803 6.0751 8.46176C6.21784 9.14323 6.56058 9.76665 7.05951 10.2523C6.46539 10.6518 5.97839 11.191 5.64123 11.8226C5.30408 12.4542 5.12708 13.1588 5.12576 13.8748V14.9598C4.3072 14.3044 3.64634 13.4735 3.19199 12.5285C2.73764 11.5834 2.50142 10.5484 2.50076 9.49979ZM7.75076 7.74979C7.75076 7.40367 7.8534 7.06532 8.04569 6.77754C8.23798 6.48975 8.5113 6.26545 8.83107 6.133C9.15084 6.00054 9.5027 5.96589 9.84217 6.03341C10.1816 6.10094 10.4935 6.26761 10.7382 6.51235C10.9829 6.75709 11.1496 7.06891 11.2171 7.40838C11.2847 7.74784 11.25 8.09971 11.1176 8.41948C10.9851 8.73925 10.7608 9.01257 10.473 9.20486C10.1852 9.39715 9.84688 9.49979 9.50076 9.49979C9.03663 9.49979 8.59151 9.31541 8.26333 8.98722C7.93514 8.65903 7.75076 8.21391 7.75076 7.74979ZM6.87576 15.9835V13.8748C6.87576 13.1786 7.15232 12.5109 7.64461 12.0186C8.13689 11.5263 8.80457 11.2498 9.50076 11.2498C10.197 11.2498 10.8646 11.5263 11.3569 12.0186C11.8492 12.5109 12.1258 13.1786 12.1258 13.8748V15.9835C10.4435 16.6721 8.55804 16.6721 6.87576 15.9835ZM9.50076 30.4998C9.50076 30.1537 9.6034 29.8153 9.79569 29.5275C9.98798 29.2398 10.2613 29.0155 10.5811 28.883C10.9008 28.7505 11.2527 28.7159 11.5922 28.7834C11.9316 28.8509 12.2435 29.0176 12.4882 29.2623C12.7329 29.5071 12.8996 29.8189 12.9671 30.1584C13.0347 30.4978 13 30.8497 12.8676 31.1695C12.7351 31.4893 12.5108 31.7626 12.223 31.9549C11.9352 32.1472 11.5969 32.2498 11.2508 32.2498C10.7866 32.2498 10.3415 32.0654 10.0133 31.7372C9.68514 31.409 9.50076 30.9639 9.50076 30.4998ZM11.2508 47.9998C10.2124 47.9998 9.19738 47.6919 8.33402 47.115C7.47066 46.5381 6.79776 45.7182 6.40039 44.7589C6.00304 43.7996 5.89907 42.744 6.10164 41.7256C6.30421 40.7072 6.80423 39.7717 7.53845 39.0375C8.27268 38.3032 9.20814 37.8032 10.2265 37.6007C11.2449 37.3981 12.3005 37.5021 13.2599 37.8994C14.2192 38.2968 15.0391 38.9697 15.616 39.833C16.1929 40.6964 16.5008 41.7114 16.5008 42.7498C16.5008 44.1422 15.9476 45.4775 14.9631 46.4621C13.9785 47.4467 12.6431 47.9998 11.2508 47.9998ZM22.6258 35.566V32.2498C22.6258 31.0895 23.0867 29.9767 23.9072 29.1562C24.7276 28.3357 25.8404 27.8748 27.0008 27.8748C28.1611 27.8748 29.2739 28.3357 30.0944 29.1562C30.9148 29.9767 31.3758 31.0895 31.3758 32.2498V35.566C30.0223 36.2615 28.5225 36.6243 27.0008 36.6243C25.479 36.6243 23.9792 36.2615 22.6258 35.566ZM24.3758 23.4998C24.3758 22.9806 24.5297 22.4731 24.8182 22.0414C25.1066 21.6097 25.5166 21.2733 25.9962 21.0746C26.4759 20.8759 27.0037 20.8239 27.5129 20.9252C28.0221 21.0265 28.4898 21.2765 28.8569 21.6436C29.224 22.0107 29.474 22.4785 29.5753 22.9877C29.6766 23.4969 29.6246 24.0247 29.4259 24.5043C29.2273 24.984 28.8908 25.394 28.4591 25.6824C28.0275 25.9708 27.5199 26.1248 27.0008 26.1248C26.3046 26.1248 25.6369 25.8482 25.1446 25.3559C24.6523 24.8637 24.3758 24.196 24.3758 23.4998ZM33.1258 34.4198V32.2498C33.1357 31.4492 32.9861 30.6546 32.6856 29.9125C32.3852 29.1703 31.9399 28.4955 31.3758 27.9273C30.9377 27.4777 30.4294 27.1023 29.8708 26.816C30.556 26.2376 31.047 25.4626 31.2773 24.5959C31.5075 23.7292 31.4658 22.8127 31.1579 21.9705C30.8499 21.1282 30.2906 20.401 29.5557 19.8871C28.8207 19.3733 27.9456 19.0977 27.0489 19.0977C26.1521 19.0977 25.277 19.3733 24.5421 19.8871C23.8071 20.401 23.2478 21.1282 22.9399 21.9705C22.632 22.8127 22.5903 23.7292 22.8205 24.5959C23.0507 25.4626 23.5417 26.2376 24.227 26.816C23.2228 27.3261 22.3787 28.1031 21.7875 29.0618C21.1962 30.0204 20.8808 31.1235 20.8758 32.2498V34.4198C19.3468 33.1585 18.2445 31.4558 17.7195 29.5445C17.1945 27.6332 17.2724 25.6064 17.9425 23.741C18.6127 21.8757 19.8424 20.2627 21.4636 19.1224C23.0849 17.9821 25.0187 17.3702 27.0008 17.3702C28.9829 17.3702 30.9166 17.9821 32.5379 19.1224C34.1592 20.2627 35.3889 21.8757 36.059 23.741C36.7291 25.6064 36.807 27.6332 36.282 29.5445C35.757 31.4558 34.6547 33.1585 33.1258 34.4198ZM41.8758 50.9835V48.8748C41.8758 48.1786 42.1523 47.5109 42.6446 47.0186C43.1369 46.5263 43.8046 46.2498 44.5008 46.2498C45.197 46.2498 45.8646 46.5263 46.3569 47.0186C46.8492 47.5109 47.1258 48.1786 47.1258 48.8748V50.9835C45.4435 51.6721 43.558 51.6721 41.8758 50.9835ZM42.7508 42.7498C42.7508 42.4037 42.8534 42.0653 43.0457 41.7775C43.238 41.4898 43.5113 41.2654 43.8311 41.133C44.1508 41.0005 44.5027 40.9659 44.8422 41.0334C45.1816 41.1009 45.4935 41.2676 45.7382 41.5123C45.9829 41.7571 46.1496 42.0689 46.2171 42.4084C46.2847 42.7478 46.25 43.0997 46.1176 43.4195C45.9851 43.7393 45.7608 44.0126 45.473 44.2049C45.1852 44.3972 44.8469 44.4998 44.5008 44.4998C44.0366 44.4998 43.5915 44.3154 43.2633 43.9872C42.9351 43.659 42.7508 43.2139 42.7508 42.7498ZM48.8758 49.9598V48.8748C48.8756 48.2993 48.762 47.7294 48.5412 47.1979C48.3205 46.6664 47.9971 46.1836 47.5895 45.7773C47.3923 45.5805 47.1753 45.4046 46.942 45.2523C47.4409 44.7666 47.7837 44.1432 47.9264 43.4618C48.0692 42.7803 48.0054 42.0717 47.7433 41.4267C47.4812 40.7817 47.0327 40.2294 46.4551 39.8407C45.8775 39.4519 45.197 39.2442 44.5008 39.2442C43.8045 39.2442 43.1241 39.4519 42.5465 39.8407C41.9688 40.2294 41.5203 40.7817 41.2582 41.4267C40.9961 42.0717 40.9324 42.7803 41.0751 43.4618C41.2178 44.1432 41.5606 44.7666 42.0595 45.2523C41.4654 45.6518 40.9784 46.191 40.6412 46.8226C40.3041 47.4542 40.1271 48.1588 40.1258 48.8748V49.9598C38.9936 49.0534 38.171 47.8177 37.7715 46.4235C37.3721 45.0293 37.4155 43.5455 37.8958 42.1771C38.3761 40.8086 39.2696 39.6232 40.4528 38.7845C41.636 37.9459 43.0505 37.4954 44.5008 37.4954C45.951 37.4954 47.3655 37.9459 48.5487 38.7845C49.7319 39.6232 50.6254 40.8086 51.1057 42.1771C51.586 43.5455 51.6295 45.0293 51.23 46.4235C50.8305 47.8177 50.0079 49.0534 48.8758 49.9598Z" fill="#DFBA78"/>
</svg>
