<svg width="51" height="51" viewBox="0 0 51 51" fill="none" xmlns="http://www.w3.org/2000/svg">
<mask id="path-1-inside-1_4125_5930" fill="white">
<path d="M11 4H37.25C37.7141 4 38.1592 4.18437 38.4874 4.51256C38.8156 4.84075 39 5.28587 39 5.75V18H42.5V5.75C42.5 4.35761 41.9469 3.02226 40.9623 2.03769C39.9777 1.05312 38.6424 0.5 37.25 0.5H5.75C4.35761 0.5 3.02226 1.05312 2.03769 2.03769C1.05312 3.02226 0.5 4.35761 0.5 5.75V44.25C0.5 45.6424 1.05312 46.9777 2.03769 47.9623C3.02226 48.9469 4.35761 49.5 5.75 49.5H22.375V46H11V4ZM4 44.25V5.75C4 5.28587 4.18437 4.84075 4.51256 4.51256C4.84075 4.18437 5.28587 4 5.75 4H7.5V46H5.75C5.28587 46 4.84075 45.8156 4.51256 45.4874C4.18437 45.1592 4 44.7141 4 44.25ZM48.625 42.5L40.5838 34.4588L41.2663 33.7762C42.171 34.3749 43.2659 34.6161 44.3385 34.4529C45.411 34.2898 46.3847 33.734 47.0705 32.8933C47.7563 32.0527 48.1053 30.9872 48.0498 29.9038C47.9943 28.8203 47.5382 27.7961 46.77 27.03L40.6012 20.8C39.9894 20.1866 39.2091 19.7686 38.3594 19.5992C37.5097 19.4297 36.6288 19.5164 35.8284 19.8481C35.0281 20.1799 34.3442 20.7419 33.8636 21.4628C33.3829 22.1837 33.1272 23.0311 33.1287 23.8975C33.1271 24.7538 33.3799 25.5913 33.855 26.3038L26.3038 33.855C25.6445 33.4209 24.8801 33.1732 24.0915 33.1381C23.303 33.1031 22.5196 33.2821 21.8245 33.6561C21.1294 34.0302 20.5484 34.5853 20.1431 35.2626C19.7379 35.94 19.5234 36.7144 19.5225 37.5037C19.5215 38.0787 19.6338 38.6482 19.853 39.1796C20.0722 39.7111 20.394 40.1942 20.8 40.6012L26.9862 46.7875C27.5981 47.4009 28.3784 47.8189 29.2281 47.9883C30.0778 48.1578 30.9587 48.0711 31.7591 47.7394C32.5594 47.4076 33.2433 46.8456 33.7239 46.1247C34.2046 45.4038 34.4603 44.5564 34.4588 43.69C34.4655 42.8355 34.2189 41.9981 33.75 41.2838L34.4325 40.6012L42.5 48.625C42.8761 49.1265 43.3555 49.5412 43.9059 49.8413C44.4562 50.1413 45.0646 50.3196 45.6899 50.364C46.3151 50.4084 46.9426 50.318 47.5298 50.0988C48.1171 49.8796 48.6504 49.5368 49.0936 49.0936C49.5368 48.6504 49.8796 48.1171 50.0988 47.5298C50.318 46.9426 50.4084 46.3151 50.364 45.6899C50.3196 45.0646 50.1413 44.4562 49.8413 43.9059C49.5412 43.3555 49.1265 42.8761 48.625 42.5ZM36.8913 23.25C37.0552 23.087 37.277 22.9956 37.5081 22.9956C37.7393 22.9956 37.9611 23.087 38.125 23.25L44.3112 29.4362C44.3923 29.518 44.4565 29.615 44.5 29.7216C44.5436 29.8282 44.5657 29.9423 44.565 30.0575C44.564 30.287 44.4729 30.507 44.3112 30.67C44.1473 30.833 43.9255 30.9244 43.6944 30.9244C43.4632 30.9244 43.2414 30.833 43.0775 30.67L36.8913 24.4837C36.7283 24.3198 36.6368 24.098 36.6368 23.8669C36.6368 23.6357 36.7283 23.4139 36.8913 23.25ZM36.27 28.815L38.7463 31.2912L31.3175 38.72L28.8412 36.2437L36.27 28.815ZM30.6962 44.3112C30.5333 44.4729 30.3133 44.564 30.0838 44.565C29.9686 44.5657 29.8544 44.5436 29.7478 44.5C29.6412 44.4565 29.5443 44.3923 29.4625 44.3112L23.25 38.125C23.087 37.9611 22.9956 37.7393 22.9956 37.5081C22.9956 37.277 23.087 37.0552 23.25 36.8913C23.4139 36.7283 23.6357 36.6368 23.8669 36.6368C24.098 36.6368 24.3198 36.7283 24.4837 36.8913L30.67 43.0775C30.833 43.2414 30.9244 43.4632 30.9244 43.6944C30.9244 43.9255 30.833 44.1473 30.67 44.3112H30.6962ZM46.1662 46.1662C46.0023 46.3292 45.7805 46.4207 45.5494 46.4207C45.3182 46.4207 45.0964 46.3292 44.9325 46.1662L36.8913 38.125L38.125 36.8913L46.1662 44.9325C46.3292 45.0964 46.4207 45.3182 46.4207 45.5494C46.4207 45.7805 46.3292 46.0023 46.1662 46.1662ZM16.25 7.5C15.7859 7.5 15.3408 7.68437 15.0126 8.01256C14.6844 8.34075 14.5 8.78587 14.5 9.25V16.25C14.5 16.7141 14.6844 17.1592 15.0126 17.4874C15.3408 17.8156 15.7859 18 16.25 18H33.75C34.2141 18 34.6592 17.8156 34.9874 17.4874C35.3156 17.1592 35.5 16.7141 35.5 16.25V9.25C35.5 8.78587 35.3156 8.34075 34.9874 8.01256C34.6592 7.68437 34.2141 7.5 33.75 7.5H16.25ZM32 14.5H18V11H32V14.5Z"/>
</mask>
<path d="M11 4H37.25C37.7141 4 38.1592 4.18437 38.4874 4.51256C38.8156 4.84075 39 5.28587 39 5.75V18H42.5V5.75C42.5 4.35761 41.9469 3.02226 40.9623 2.03769C39.9777 1.05312 38.6424 0.5 37.25 0.5H5.75C4.35761 0.5 3.02226 1.05312 2.03769 2.03769C1.05312 3.02226 0.5 4.35761 0.5 5.75V44.25C0.5 45.6424 1.05312 46.9777 2.03769 47.9623C3.02226 48.9469 4.35761 49.5 5.75 49.5H22.375V46H11V4ZM4 44.25V5.75C4 5.28587 4.18437 4.84075 4.51256 4.51256C4.84075 4.18437 5.28587 4 5.75 4H7.5V46H5.75C5.28587 46 4.84075 45.8156 4.51256 45.4874C4.18437 45.1592 4 44.7141 4 44.25ZM48.625 42.5L40.5838 34.4588L41.2663 33.7762C42.171 34.3749 43.2659 34.6161 44.3385 34.4529C45.411 34.2898 46.3847 33.734 47.0705 32.8933C47.7563 32.0527 48.1053 30.9872 48.0498 29.9038C47.9943 28.8203 47.5382 27.7961 46.77 27.03L40.6012 20.8C39.9894 20.1866 39.2091 19.7686 38.3594 19.5992C37.5097 19.4297 36.6288 19.5164 35.8284 19.8481C35.0281 20.1799 34.3442 20.7419 33.8636 21.4628C33.3829 22.1837 33.1272 23.0311 33.1287 23.8975C33.1271 24.7538 33.3799 25.5913 33.855 26.3038L26.3038 33.855C25.6445 33.4209 24.8801 33.1732 24.0915 33.1381C23.303 33.1031 22.5196 33.2821 21.8245 33.6561C21.1294 34.0302 20.5484 34.5853 20.1431 35.2626C19.7379 35.94 19.5234 36.7144 19.5225 37.5037C19.5215 38.0787 19.6338 38.6482 19.853 39.1796C20.0722 39.7111 20.394 40.1942 20.8 40.6012L26.9862 46.7875C27.5981 47.4009 28.3784 47.8189 29.2281 47.9883C30.0778 48.1578 30.9587 48.0711 31.7591 47.7394C32.5594 47.4076 33.2433 46.8456 33.7239 46.1247C34.2046 45.4038 34.4603 44.5564 34.4588 43.69C34.4655 42.8355 34.2189 41.9981 33.75 41.2838L34.4325 40.6012L42.5 48.625C42.8761 49.1265 43.3555 49.5412 43.9059 49.8413C44.4562 50.1413 45.0646 50.3196 45.6899 50.364C46.3151 50.4084 46.9426 50.318 47.5298 50.0988C48.1171 49.8796 48.6504 49.5368 49.0936 49.0936C49.5368 48.6504 49.8796 48.1171 50.0988 47.5298C50.318 46.9426 50.4084 46.3151 50.364 45.6899C50.3196 45.0646 50.1413 44.4562 49.8413 43.9059C49.5412 43.3555 49.1265 42.8761 48.625 42.5ZM36.8913 23.25C37.0552 23.087 37.277 22.9956 37.5081 22.9956C37.7393 22.9956 37.9611 23.087 38.125 23.25L44.3112 29.4362C44.3923 29.518 44.4565 29.615 44.5 29.7216C44.5436 29.8282 44.5657 29.9423 44.565 30.0575C44.564 30.287 44.4729 30.507 44.3112 30.67C44.1473 30.833 43.9255 30.9244 43.6944 30.9244C43.4632 30.9244 43.2414 30.833 43.0775 30.67L36.8913 24.4837C36.7283 24.3198 36.6368 24.098 36.6368 23.8669C36.6368 23.6357 36.7283 23.4139 36.8913 23.25ZM36.27 28.815L38.7463 31.2912L31.3175 38.72L28.8412 36.2437L36.27 28.815ZM30.6962 44.3112C30.5333 44.4729 30.3133 44.564 30.0838 44.565C29.9686 44.5657 29.8544 44.5436 29.7478 44.5C29.6412 44.4565 29.5443 44.3923 29.4625 44.3112L23.25 38.125C23.087 37.9611 22.9956 37.7393 22.9956 37.5081C22.9956 37.277 23.087 37.0552 23.25 36.8913C23.4139 36.7283 23.6357 36.6368 23.8669 36.6368C24.098 36.6368 24.3198 36.7283 24.4837 36.8913L30.67 43.0775C30.833 43.2414 30.9244 43.4632 30.9244 43.6944C30.9244 43.9255 30.833 44.1473 30.67 44.3112H30.6962ZM46.1662 46.1662C46.0023 46.3292 45.7805 46.4207 45.5494 46.4207C45.3182 46.4207 45.0964 46.3292 44.9325 46.1662L36.8913 38.125L38.125 36.8913L46.1662 44.9325C46.3292 45.0964 46.4207 45.3182 46.4207 45.5494C46.4207 45.7805 46.3292 46.0023 46.1662 46.1662ZM16.25 7.5C15.7859 7.5 15.3408 7.68437 15.0126 8.01256C14.6844 8.34075 14.5 8.78587 14.5 9.25V16.25C14.5 16.7141 14.6844 17.1592 15.0126 17.4874C15.3408 17.8156 15.7859 18 16.25 18H33.75C34.2141 18 34.6592 17.8156 34.9874 17.4874C35.3156 17.1592 35.5 16.7141 35.5 16.25V9.25C35.5 8.78587 35.3156 8.34075 34.9874 8.01256C34.6592 7.68437 34.2141 7.5 33.75 7.5H16.25ZM32 14.5H18V11H32V14.5Z" fill="#DFBA78" stroke="#0C4538" mask="url(#path-1-inside-1_4125_5930)"/>
</svg>
