<svg width="52" height="52" viewBox="0 0 52 52" fill="none" xmlns="http://www.w3.org/2000/svg">
<path d="M38.5478 15.2731L36.7149 12.0984C36.5005 11.7285 36.1702 11.4395 35.775 11.2761C35.3799 11.1128 34.9419 11.0841 34.5288 11.1946L32.6621 11.6977C31.9065 11.1191 31.0786 10.6418 30.1993 10.2776L29.7017 8.4098C29.5918 7.99624 29.3484 7.63057 29.0092 7.36962C28.6701 7.10867 28.2542 6.96706 27.8263 6.9668H24.1605C23.733 6.96689 23.3175 7.1082 22.9785 7.36876C22.6395 7.62932 22.3961 7.99454 22.2861 8.40768L21.7875 10.2776C20.9082 10.6418 20.0803 11.1191 19.3247 11.6977L17.4579 11.1946C17.0448 11.0841 16.6069 11.1127 16.2117 11.2761C15.8166 11.4395 15.4863 11.7285 15.2719 12.0984L13.439 15.2731C13.2256 15.6436 13.1404 16.0742 13.1965 16.498C13.2527 16.9219 13.4471 17.3155 13.7496 17.6177L15.1165 18.9814C14.9868 19.9258 14.9868 20.8835 15.1165 21.828L13.7496 23.1917C13.4471 23.4939 13.2527 23.8874 13.1965 24.3113C13.1404 24.7352 13.2256 25.1657 13.439 25.5363L15.2719 28.7109C15.4863 29.0808 15.8167 29.3697 16.2118 29.5331C16.6069 29.6965 17.0448 29.7252 17.4579 29.6148L19.3247 29.1118C20.0803 29.6903 20.9082 30.1676 21.7875 30.5317L22.2851 32.3995C22.395 32.8131 22.6384 33.1788 22.9776 33.4397C23.3167 33.7007 23.7326 33.8423 24.1605 33.8425H27.8263C28.2538 33.8425 28.6693 33.7012 29.0082 33.4406C29.3472 33.1801 29.5906 32.8149 29.7006 32.4018L30.1993 30.5317C31.0786 30.1676 31.9065 29.6903 32.6621 29.1118L34.5288 29.6148C34.9419 29.7254 35.3799 29.6968 35.7751 29.5334C36.1703 29.37 36.5006 29.0809 36.7149 28.7109L38.5478 25.5363C38.7612 25.1657 38.8464 24.7352 38.7902 24.3113C38.7341 23.8874 38.5397 23.4939 38.2372 23.1917L36.8702 21.828C36.9999 20.8835 36.9999 19.9258 36.8702 18.9814L38.2372 17.6177C38.5397 17.3154 38.7341 16.9219 38.7902 16.498C38.8464 16.0742 38.7612 15.6436 38.5478 15.2731ZM34.6349 19.169C34.7588 19.9885 34.7588 20.822 34.6349 21.6415C34.59 21.9422 34.616 22.2492 34.7108 22.538C34.8055 22.8269 34.9664 23.0897 35.1807 23.3054L36.493 24.615L34.8897 27.3926L33.0919 26.9082C32.8 26.8294 32.4937 26.8207 32.1978 26.8826C31.9019 26.9446 31.6249 27.0755 31.3891 27.2647C30.735 27.7793 30.0101 28.1971 29.2369 28.5053C28.9564 28.6171 28.7057 28.7924 28.5044 29.0175C28.3031 29.2425 28.1567 29.5112 28.0767 29.8024L27.5966 31.6029H24.3902L23.9101 29.7996C23.8295 29.5088 23.6827 29.2406 23.4812 29.016C23.2798 28.7913 23.0291 28.6164 22.7488 28.5047C21.9764 28.1969 21.2523 27.7797 20.5987 27.2658C20.3627 27.0763 20.0853 26.9452 19.789 26.8831C19.4928 26.8209 19.1861 26.8295 18.8938 26.9082L17.097 27.3926L15.4939 24.615L16.805 23.3065C17.0197 23.0906 17.1809 22.8275 17.2758 22.5383C17.3708 22.249 17.3968 21.9416 17.3518 21.6405C17.2279 20.8209 17.2279 19.9874 17.3518 19.1679C17.3967 18.8672 17.3708 18.5602 17.276 18.2713C17.1813 17.9824 17.0204 17.7197 16.8062 17.504L15.4939 16.1945L17.097 13.4168L18.895 13.9012C19.1868 13.9793 19.493 13.9878 19.7888 13.9258C20.0845 13.8639 20.3616 13.7333 20.5976 13.5447C21.2518 13.03 21.9766 12.6122 22.7498 12.304C23.0303 12.1922 23.281 12.0169 23.4823 11.7919C23.6837 11.5669 23.8301 11.2982 23.9101 11.0071L24.3902 9.20646H27.5966L28.0767 11.0098C28.1573 11.3006 28.304 11.5688 28.5055 11.7934C28.707 12.018 28.9577 12.193 29.238 12.3046C30.0104 12.6124 30.7345 13.0297 31.3881 13.5435C31.6242 13.733 31.9016 13.8641 32.1978 13.9262C32.494 13.9883 32.8007 13.9798 33.093 13.9012L34.8897 13.4168L36.493 16.1945L35.1817 17.5029C34.9671 17.7188 34.8059 17.9819 34.7109 18.2712C34.616 18.5604 34.59 18.8679 34.6349 19.169Z" fill="#DFBA78"/>
<path d="M25.9936 14.8057C24.8862 14.8057 23.8037 15.134 22.8829 15.7493C21.9622 16.3645 21.2445 17.239 20.8207 18.2621C20.397 19.2852 20.2861 20.411 20.5021 21.4971C20.7182 22.5832 21.2514 23.5809 22.0345 24.3639C22.8175 25.147 23.8152 25.6802 24.9013 25.8963C25.9874 26.1123 27.1132 26.0015 28.1363 25.5777C29.1594 25.1539 30.0339 24.4362 30.6491 23.5155C31.2644 22.5947 31.5927 21.5122 31.5927 20.4048C31.591 18.9203 31.0005 17.4972 29.9509 16.4476C28.9012 15.3979 27.4781 14.8074 25.9936 14.8057ZM25.9936 23.7642C25.3292 23.7642 24.6797 23.5672 24.1272 23.198C23.5748 22.8289 23.1442 22.3042 22.8899 21.6904C22.6357 21.0765 22.5691 20.401 22.6987 19.7494C22.8284 19.0977 23.1483 18.4991 23.6182 18.0293C24.088 17.5595 24.6866 17.2395 25.3382 17.1099C25.9899 16.9803 26.6654 17.0468 27.2792 17.3011C27.8931 17.5553 28.4178 17.9859 28.7869 18.5384C29.1561 19.0908 29.3531 19.7403 29.3531 20.4048C29.3521 21.2954 28.9978 22.1494 28.368 22.7792C27.7382 23.409 26.8843 23.7632 25.9936 23.7642Z" fill="#DFBA78"/>
<path d="M40.1811 5.66738C37.9475 3.65441 35.3099 2.14163 32.4445 1.23025C29.5792 0.318866 26.5523 0.0298914 23.5662 0.382657C19.3308 0.865857 15.3384 2.61109 12.1073 5.39182C8.87618 8.17255 6.55558 11.8604 5.44672 15.9765C4.33786 20.0927 4.49195 24.4472 5.88898 28.4747C7.28601 32.5022 9.86147 36.0167 13.281 38.5621C14.1062 39.1894 14.7739 40.0003 15.2312 40.9305C15.6885 41.8607 15.9228 42.8846 15.9155 43.9211C15.918 44.6304 16.1453 45.3207 16.5649 45.8926C16.9845 46.4646 17.5747 46.8886 18.2506 47.1039C18.4723 48.4041 19.146 49.5842 20.153 50.4361C21.16 51.2879 22.4354 51.7567 23.7544 51.7599H28.2337C29.5527 51.7567 30.8282 51.2878 31.8352 50.4359C32.8421 49.584 33.5159 48.4038 33.7375 47.1036C34.4172 46.8844 35.0096 46.4549 35.4293 45.8771C35.849 45.2992 36.0742 44.603 36.0725 43.8888C36.0683 42.8583 36.3038 41.8409 36.7602 40.9169C37.2166 39.993 37.8816 39.1877 38.7026 38.5648C41.3698 36.5981 43.5357 34.0301 45.0245 31.0694C46.5132 28.1087 47.2829 24.8387 47.2709 21.5248C47.2689 18.532 46.6365 15.5731 45.4149 12.841C44.1934 10.1088 42.4101 7.66454 40.1811 5.66738ZM28.2337 49.5202H23.7544C23.0598 49.5193 22.3824 49.3036 21.8152 48.9027C21.248 48.5017 20.8187 47.9351 20.5862 47.2805H31.4019C31.1694 47.9351 30.7401 48.5017 30.1729 48.9027C29.6057 49.3036 28.9283 49.5193 28.2337 49.5202ZM32.713 45.041H19.2751C19.1256 45.0399 18.9778 45.0091 18.8403 44.9504C18.7028 44.8917 18.5784 44.8063 18.4742 44.6991C18.37 44.5919 18.2881 44.4651 18.2333 44.326C18.1786 44.1869 18.152 44.0383 18.1552 43.8888C18.1544 43.5253 18.1315 43.1621 18.0866 42.8013H33.9051C33.8581 43.1727 33.834 43.5467 33.8328 43.9211C33.8326 44.218 33.7145 44.5027 33.5046 44.7126C33.2946 44.9226 33.01 45.0407 32.713 45.041ZM37.3641 36.7691C36.0727 37.7428 35.0768 39.0557 34.487 40.5617H17.503C16.9103 39.0549 15.9124 37.7414 14.6197 36.7664C11.5607 34.4896 9.25657 31.346 8.00642 27.7434C6.75626 24.1409 6.61776 20.2458 7.60887 16.5635C8.59998 12.8813 10.675 9.58189 13.5645 7.09359C16.4541 4.60528 20.0249 3.04291 23.8134 2.60922C24.5462 2.52735 25.2829 2.48626 26.0203 2.48613C30.6987 2.47226 35.2145 4.20132 38.6873 7.33618C40.6817 9.12321 42.2773 11.3102 43.3704 13.7549C44.4634 16.1995 45.0293 18.8469 45.0313 21.5248C45.0418 24.4896 44.3531 27.4152 43.0209 30.0639C41.6887 32.7127 39.7506 35.0099 37.3641 36.7691Z" fill="#DFBA78"/>
<path d="M46.1485 6.96727C46.2956 6.96746 46.4412 6.93858 46.5771 6.88228C46.713 6.82598 46.8364 6.74338 46.9402 6.63922L51.4196 2.16C51.6229 1.94865 51.7352 1.66598 51.7323 1.37272C51.7295 1.07947 51.6117 0.799027 51.4043 0.591661C51.197 0.384296 50.9165 0.26655 50.6233 0.263724C50.33 0.260898 50.0473 0.373217 49.836 0.576547L45.3568 5.05576C45.2037 5.2137 45.1002 5.41295 45.059 5.62897C45.0178 5.845 45.0407 6.06836 45.1249 6.27154C45.209 6.47472 45.3508 6.64885 45.5327 6.77247C45.7145 6.89609 45.9286 6.9638 46.1485 6.96727Z" fill="#DFBA78"/>
<path d="M5.04802 6.63782C5.25937 6.84104 5.542 6.95327 5.83519 6.95039C6.12839 6.94752 6.40876 6.82977 6.61609 6.62244C6.82342 6.41511 6.94117 6.13474 6.94404 5.84154C6.94692 5.54835 6.83469 5.26572 6.63147 5.05436L2.15226 0.575035C1.94213 0.365685 1.65752 0.24826 1.3609 0.248536C1.06429 0.248811 0.779896 0.366763 0.570156 0.576503C0.360416 0.786243 0.242463 1.07063 0.242188 1.36725C0.241913 1.66387 0.359337 1.94847 0.568688 2.1586L5.04802 6.63782Z" fill="#DFBA78"/>
<path d="M5.04554 37.5303L0.566209 42.0096C0.462238 42.1136 0.379765 42.237 0.323499 42.3729C0.267233 42.5087 0.238276 42.6543 0.238281 42.8014C0.238286 42.9484 0.267254 43.094 0.323529 43.2299C0.379805 43.3657 0.462287 43.4892 0.566265 43.5931C0.670244 43.6971 0.793683 43.7796 0.929535 43.8358C1.06539 43.8921 1.21099 43.9211 1.35803 43.9211C1.50508 43.9211 1.65068 43.8921 1.78653 43.8358C1.92237 43.7795 2.04581 43.6971 2.14978 43.5931L6.62911 39.1139C6.83185 38.9024 6.94367 38.6199 6.94058 38.327C6.9375 38.034 6.81976 37.7539 6.61261 37.5468C6.40545 37.3396 6.12538 37.2219 5.83244 37.2188C5.5395 37.2157 5.25701 37.3275 5.04554 37.5303Z" fill="#DFBA78"/>
<path d="M46.9432 37.5301C46.7319 37.3268 46.4492 37.2145 46.1559 37.2173C45.8627 37.2202 45.5822 37.338 45.3749 37.5453C45.1675 37.7527 45.0498 38.0332 45.0469 38.3264C45.0441 38.6197 45.1564 38.9023 45.3597 39.1137L49.8391 43.5929C49.943 43.6972 50.0664 43.7801 50.2024 43.8366C50.3383 43.8932 50.4841 43.9224 50.6313 43.9226C50.7786 43.9227 50.9244 43.8939 51.0605 43.8376C51.1965 43.7813 51.3202 43.6988 51.4243 43.5946C51.5284 43.4905 51.611 43.3669 51.6672 43.2308C51.7235 43.0948 51.7524 42.9489 51.7522 42.8017C51.7521 42.6544 51.7229 42.5087 51.6663 42.3727C51.6097 42.2368 51.5269 42.1133 51.4225 42.0094L46.9432 37.5301Z" fill="#DFBA78"/>
</svg>
