<svg width="329" height="303" viewBox="0 0 329 303" fill="none" xmlns="http://www.w3.org/2000/svg">
<g clip-path="url(#clip0_4125_4385)">
<path opacity="0.8" d="M102.643 269.626L82.1179 196.884C66.6461 201.25 59.9243 177.428 44.4648 181.79L71.712 278.354L102.643 269.626Z" fill="#4D8D7F" fill-opacity="0.58"/>
<path opacity="0.5" d="M195.431 243.442L164.376 133.383C148.916 137.745 176.027 233.826 160.575 238.213L164.516 252.179L195.447 243.451L195.431 243.442Z" fill="#4D8D7F" fill-opacity="0.58"/>
<path opacity="0.8" d="M288.238 217.255L251.243 86.147C235.784 90.5092 241.608 111.149 226.152 115.524L257.322 225.992L288.253 217.264L288.238 217.255Z" fill="#4D8D7F" fill-opacity="0.58"/>
<path opacity="0.8" d="M226.376 234.711L202.043 148.474C186.584 152.836 179.865 129.026 164.402 133.376L195.461 243.448L226.392 234.72L226.376 234.711Z" fill="#4D8D7F" fill-opacity="0.58"/>
<path opacity="0.5" d="M257.308 225.983L226.138 115.515C210.678 119.877 217.512 144.095 202.052 148.458L226.389 234.708L257.321 225.98L257.308 225.983Z" fill="#4D8D7F" fill-opacity="0.58"/>
<path opacity="0.5" d="M133.572 260.898L101.06 145.675C85.6007 150.037 97.591 192.531 82.1192 196.896L102.645 269.638L133.576 260.91L133.572 260.898Z" fill="#4D8D7F" fill-opacity="0.58"/>
<path opacity="0.8" d="M164.505 252.17L160.494 237.956L160.561 238.191C143.677 242.955 117.921 140.918 101.055 145.65L133.57 260.886L164.502 252.158L164.505 252.17Z" fill="#4D8D7F" fill-opacity="0.58"/>
<path opacity="0.5" d="M319.17 208.528L275.677 54.3896C275.677 54.3896 275.677 54.3896 275.665 54.3931C260.206 58.7553 266.704 81.785 251.244 86.1471L288.242 217.268L319.174 208.54L319.17 208.528Z" fill="#4D8D7F" fill-opacity="0.58"/>
<path opacity="0.8" d="M350.103 199.8L332.715 138.177C332.715 138.177 332.715 138.177 332.703 138.18C317.243 142.542 291.153 50.077 275.676 54.3772L319.172 208.528L350.103 199.8Z" fill="#4D8D7F" fill-opacity="0.58"/>
<path opacity="0.5" d="M381.032 191.072L348.744 76.6416C348.744 76.6416 348.744 76.6416 348.731 76.6451C333.272 81.0072 348.165 133.79 332.717 138.189L350.105 199.812L381.036 191.084L381.032 191.072Z" fill="#4D8D7F" fill-opacity="0.58"/>
<path d="M453.297 92.1222C453.115 91.4783 452.452 91.1175 451.797 91.2621C445.203 92.7752 440.934 90.6782 436.429 88.4602C431.459 86.0129 426.306 83.4836 418.117 85.794C409.929 88.1044 406.87 92.9511 403.9 97.6389C401.061 102.129 398.381 106.375 391.097 108.43C384.197 110.377 377.528 101.244 371.089 92.4068C364.149 82.8826 356.959 73.0412 348.399 75.4565C339.84 77.8718 339.635 92.2192 339.481 107.408C339.348 121.013 339.21 135.075 332.36 137.008C325.509 138.94 314.365 114.989 305.304 95.7706C293.913 71.6086 284.062 50.7279 275.317 53.1955C266.571 55.6632 264.572 62.8442 262.266 69.8846C260.068 76.6001 257.985 82.9626 250.899 84.9619C242.575 87.3108 240.01 93.9562 237.533 100.39C235.171 106.524 232.927 112.316 225.792 114.33C217.406 116.696 215.11 124.295 212.9 131.629C210.774 138.645 208.78 145.277 201.695 147.276C194.609 149.275 189.471 144.763 184.019 139.992C178.313 134.985 172.415 129.819 164.029 132.185C155.643 134.551 158.044 158.416 161.235 185.935C163.78 207.848 166.942 235.121 160.228 237.015C153.514 238.909 141.548 212.57 131.93 191.423C119.875 164.909 109.471 142.019 100.726 144.486C91.98 146.954 91.2398 159.26 90.3541 171.193C89.5243 182.282 88.6843 193.761 81.7846 195.708C74.8848 197.655 69.5485 193.199 64.1054 188.412C58.3997 183.405 52.5018 178.238 44.128 180.601L44.7988 182.978C51.8843 180.979 57.0225 185.491 62.4744 190.262C68.1801 195.269 74.078 200.435 82.4642 198.069C90.8505 195.703 91.95 183.295 92.8357 171.362C93.6655 160.274 94.5054 148.795 101.405 146.848C108.305 144.901 120.081 171.28 129.687 192.431C141.746 218.958 152.153 241.86 160.911 239.389C169.669 236.918 166.897 213.157 163.706 185.639C161.16 163.726 157.998 136.453 164.712 134.559C171.798 132.56 176.948 137.068 182.391 141.855C188.097 146.862 193.995 152.028 202.369 149.666C210.743 147.303 213.051 139.7 215.27 132.35C217.384 125.338 219.39 118.703 226.463 116.707C234.8 114.355 237.361 107.697 239.839 101.263C242.2 95.1295 244.432 89.3401 251.567 87.3268C259.928 84.9675 262.311 77.6781 264.618 70.6378C266.815 63.9222 268.898 57.5597 275.984 55.5604C282.71 53.6625 293.995 77.5874 303.055 96.8062C314.447 120.968 324.29 141.824 333.023 139.36C341.756 136.896 341.796 122.581 341.942 107.409C342.078 93.8156 342.216 79.7543 349.054 77.8249C355.892 75.8955 362.623 85.0108 369.074 93.8443C376.015 103.369 383.189 113.201 391.749 110.786C400.308 108.371 403.008 103.625 405.966 98.9408C408.805 94.4505 411.485 90.2052 418.756 88.1535C426.028 86.1017 430.544 88.3162 435.312 90.6604C440.031 92.978 444.906 95.3721 452.378 93.6515C453.057 93.4998 453.457 92.7854 453.265 92.1044L453.297 92.1222Z" fill="#4D8D7F" fill-opacity="0.58"/>
<path d="M100.789 288.515C100.257 288.665 99.749 288.715 99.2665 288.664C98.784 288.613 98.3549 288.467 97.9757 288.213L98.8111 286.386C99.0598 286.557 99.2821 286.681 99.4993 286.74C99.7166 286.799 99.9075 286.812 100.093 286.76C100.589 286.62 100.756 286.265 100.595 285.696L99.8583 283.083L97.5295 283.74L97.0369 281.995L101.657 280.691L102.849 284.913C103.114 285.854 103.066 286.63 102.712 287.224C102.361 287.831 101.718 288.253 100.802 288.512L100.789 288.515Z" fill="#4D8D7F" fill-opacity="0.58"/>
<path d="M103.755 287.505L104.814 279.787L107.093 279.144L112.03 285.17L109.639 285.844L105.794 280.7L106.698 280.445L106.109 286.84L103.755 287.505ZM105.2 285.8L105.311 283.964L108.47 283.073L109.536 284.577L105.2 285.8Z" fill="#4D8D7F" fill-opacity="0.58"/>
<path d="M112.412 285.061L110.473 278.19L112.38 277.651L117.054 280.851L116.175 281.099L114.994 276.914L117.249 276.278L119.188 283.15L117.28 283.688L112.606 280.489L113.485 280.24L114.666 284.425L112.412 285.061Z" fill="#4D8D7F" fill-opacity="0.58"/>
<path d="M132.724 279.329L130.408 279.983L128.469 273.111L134.055 271.534L134.548 273.28L131.278 274.203L132.724 279.329ZM131.452 275.437L134.475 274.584L134.967 276.33L131.945 277.183L131.452 275.437Z" fill="#4D8D7F" fill-opacity="0.58"/>
<path d="M138.515 275.811L141.946 274.843L142.439 276.589L136.728 278.2L134.789 271.328L140.376 269.752L140.868 271.498L137.561 272.431L138.515 275.811ZM137.627 273.281L140.687 272.418L141.158 274.089L138.099 274.953L137.627 273.281Z" fill="#4D8D7F" fill-opacity="0.58"/>
<path d="M143.33 276.337L141.391 269.465L145.057 268.431C146.011 268.162 146.754 268.139 147.306 268.344C147.859 268.549 148.204 268.92 148.351 269.44C148.449 269.786 148.437 270.124 148.328 270.449C148.207 270.777 147.994 271.064 147.667 271.33C147.341 271.596 146.916 271.796 146.384 271.946L146.432 271.358C146.964 271.208 147.456 271.149 147.882 271.189C148.308 271.23 148.68 271.365 148.971 271.59C149.262 271.816 149.472 272.131 149.583 272.527C149.751 273.122 149.636 273.662 149.231 274.124C148.83 274.598 148.157 274.962 147.203 275.231L143.339 276.321L143.33 276.337ZM145.151 274.072L146.539 273.681C146.799 273.607 146.971 273.505 147.07 273.384C147.169 273.262 147.193 273.108 147.141 272.923C147.088 272.737 146.991 272.63 146.843 272.579C146.695 272.527 146.482 272.533 146.235 272.603L144.686 273.04L144.253 271.505L145.492 271.155C145.752 271.082 145.936 270.977 146.023 270.858C146.11 270.74 146.15 270.595 146.101 270.422C146.052 270.249 145.955 270.142 145.807 270.091C145.658 270.039 145.462 270.054 145.202 270.128L144.124 270.432L145.148 274.06L145.151 274.072Z" fill="#4D8D7F" fill-opacity="0.58"/>
<path d="M159.494 271.776L157.555 264.904L159.462 264.366L163.477 268.072L162.474 268.355L163.872 263.121L165.78 262.583L167.744 269.448L165.638 270.042L164.572 266.359L164.906 266.265L163.952 269.849L162.936 270.136L160.162 267.604L160.571 267.488L161.612 271.178L159.506 271.772L159.494 271.776Z" fill="#4D8D7F" fill-opacity="0.58"/>
<path d="M168.115 269.343L169.174 261.625L171.453 260.982L176.39 267.008L173.999 267.683L170.153 262.539L171.058 262.283L170.468 268.679L168.115 269.343ZM169.56 267.639L169.67 265.803L172.829 264.912L173.895 266.415L169.56 267.639Z" fill="#4D8D7F" fill-opacity="0.58"/>
<path d="M176.763 266.903L174.824 260.031L178.132 259.098C178.776 258.916 179.361 258.858 179.879 258.939C180.409 259.017 180.852 259.213 181.221 259.523C181.589 259.833 181.846 260.269 181.992 260.789C182.139 261.309 182.148 261.815 181.996 262.272C181.844 262.729 181.565 263.115 181.154 263.458C180.739 263.789 180.213 264.058 179.582 264.236L177.562 264.806L178.322 263.563L179.076 266.237L176.76 266.891L176.763 266.903ZM178.395 263.823L177.07 263.06L178.94 262.533C179.262 262.442 179.477 262.301 179.587 262.123C179.697 261.945 179.724 261.71 179.655 261.462C179.585 261.214 179.455 261.037 179.252 260.934C179.049 260.831 178.796 260.836 178.486 260.923L176.616 261.451L177.347 260.108L178.395 263.823ZM180.876 265.743L178.485 263.717L180.938 263.025L183.353 265.044L180.876 265.743Z" fill="#4D8D7F" fill-opacity="0.58"/>
<path d="M191.048 262.873L192.107 255.155L194.386 254.512L199.323 260.538L196.932 261.213L193.087 256.069L193.991 255.813L193.402 262.209L191.048 262.873ZM192.493 261.169L192.616 259.329L195.775 258.438L196.841 259.942L192.506 261.165L192.493 261.169Z" fill="#4D8D7F" fill-opacity="0.58"/>
<path d="M199.709 260.43L197.77 253.558L201.077 252.625C201.721 252.443 202.294 252.388 202.824 252.466C203.354 252.544 203.797 252.739 204.166 253.05C204.534 253.36 204.791 253.796 204.938 254.316C205.084 254.836 205.093 255.341 204.941 255.799C204.79 256.256 204.514 256.654 204.103 256.998C203.692 257.341 203.166 257.61 202.534 257.788L200.515 258.358L201.263 257.077L202.018 259.751L199.702 260.405L199.709 260.43ZM201.34 257.349L200.015 256.587L201.886 256.059C202.208 255.968 202.422 255.828 202.532 255.65C202.639 255.459 202.67 255.237 202.6 254.989C202.53 254.741 202.4 254.564 202.197 254.461C202.006 254.354 201.741 254.362 201.431 254.45L199.561 254.978L200.292 253.635L201.34 257.349Z" fill="#4D8D7F" fill-opacity="0.58"/>
<path d="M206.904 258.399L204.965 251.527L208.272 250.594C208.916 250.412 209.502 250.354 210.02 250.435C210.55 250.513 210.993 250.709 211.361 251.019C211.73 251.33 211.986 251.765 212.133 252.285C212.28 252.805 212.289 253.311 212.137 253.768C211.985 254.225 211.706 254.611 211.295 254.955C210.88 255.285 210.354 255.554 209.722 255.732L207.703 256.302L208.462 255.059L209.217 257.733L206.9 258.387L206.904 258.399ZM208.536 255.319L207.21 254.556L209.081 254.029C209.403 253.938 209.617 253.797 209.728 253.619C209.838 253.441 209.865 253.206 209.795 252.958C209.725 252.711 209.595 252.533 209.392 252.43C209.189 252.327 208.936 252.332 208.627 252.419L206.756 252.947L207.487 251.604L208.536 255.319ZM211.016 257.239L208.626 255.213L211.079 254.521L213.494 256.54L211.016 257.239Z" fill="#4D8D7F" fill-opacity="0.58"/>
<path d="M222.001 254.138L220.062 247.267L221.97 246.728L225.985 250.435L224.981 250.718L226.392 245.481L228.3 244.942L230.264 251.807L228.158 252.401L227.092 248.718L227.427 248.624L226.472 252.209L225.456 252.495L222.682 249.963L223.091 249.847L224.132 253.537L222.026 254.131L222.001 254.138Z" fill="#4D8D7F" fill-opacity="0.58"/>
<path d="M230.623 251.706L231.681 243.988L233.961 243.345L238.897 249.371L236.507 250.045L232.661 244.901L233.565 244.646L232.976 251.042L230.623 251.706ZM232.067 250.001L232.178 248.166L235.337 247.274L236.403 248.778L232.067 250.001Z" fill="#4D8D7F" fill-opacity="0.58"/>
<path d="M240.606 248.888L239.758 245.88L240.681 247.116L236.082 242.76L238.522 242.071L241.638 245.055L240.213 245.457L241.334 241.278L243.576 240.645L241.957 246.756L242.074 245.226L242.923 248.235L240.606 248.888Z" fill="#4D8D7F" fill-opacity="0.58"/>
<path d="M256.461 244.589C255.928 244.74 255.421 244.789 254.938 244.738C254.456 244.687 254.027 244.541 253.648 244.287L254.483 242.461C254.732 242.631 254.954 242.755 255.171 242.814C255.388 242.873 255.579 242.886 255.765 242.834C256.261 242.694 256.428 242.339 256.267 241.77L255.53 239.157L253.201 239.815L252.709 238.069L257.329 236.765L258.521 240.987C258.786 241.928 258.737 242.704 258.384 243.298C258.033 243.905 257.39 244.327 256.473 244.586L256.461 244.589Z" fill="#4D8D7F" fill-opacity="0.58"/>
<path d="M263.634 242.566C262.581 242.863 261.683 242.809 260.928 242.407C260.185 242.002 259.664 241.293 259.374 240.265L258.309 236.489L260.625 235.835L261.673 239.55C261.82 240.07 262.024 240.413 262.272 240.584C262.521 240.754 262.813 240.792 263.135 240.701C263.457 240.611 263.686 240.426 263.809 240.15C263.931 239.875 263.926 239.476 263.779 238.956L262.731 235.241L265.01 234.598L266.076 238.374C266.366 239.402 266.292 240.278 265.871 241.012C265.449 241.746 264.699 242.265 263.646 242.562L263.634 242.566Z" fill="#4D8D7F" fill-opacity="0.58"/>
<path d="M267.998 241.16L266.059 234.289L267.966 233.75L272.64 236.95L271.761 237.198L270.58 233.013L272.834 232.377L274.773 239.248L272.866 239.787L268.192 236.587L269.071 236.339L270.252 240.524L267.998 241.16Z" fill="#4D8D7F" fill-opacity="0.58"/>
<path d="M288.496 235.55C287.964 235.701 287.456 235.75 286.974 235.699C286.491 235.648 286.062 235.502 285.683 235.248L286.518 233.422C286.767 233.592 286.989 233.717 287.206 233.776C287.424 233.835 287.615 233.848 287.8 233.795C288.296 233.655 288.463 233.301 288.303 232.731L287.565 230.119L285.237 230.776L284.744 229.03L289.364 227.726L290.556 231.948C290.821 232.889 290.773 233.665 290.419 234.259C290.068 234.866 289.425 235.288 288.509 235.547L288.496 235.55Z" fill="#4D8D7F" fill-opacity="0.58"/>
<path d="M295.681 233.523C294.628 233.82 293.73 233.766 292.975 233.364C292.232 232.959 291.711 232.251 291.421 231.223L290.355 227.447L292.672 226.793L293.72 230.507C293.867 231.027 294.071 231.371 294.319 231.541C294.568 231.712 294.86 231.75 295.182 231.659C295.504 231.568 295.732 231.383 295.855 231.108C295.978 230.833 295.973 230.433 295.826 229.913L294.778 226.199L297.057 225.556L298.123 229.332C298.413 230.36 298.339 231.236 297.917 231.97C297.496 232.704 296.746 233.223 295.693 233.52L295.681 233.523Z" fill="#4D8D7F" fill-opacity="0.58"/>
<path d="M300.044 232.118L298.105 225.246L300.422 224.592L301.854 229.669L304.951 228.795L305.458 230.59L300.044 232.118Z" fill="#4D8D7F" fill-opacity="0.58"/>
<path d="M315.255 227.826L316.314 220.108L318.593 219.465L323.53 225.491L321.139 226.165L317.294 221.021L318.198 220.766L317.609 227.162L315.255 227.826ZM316.7 226.121L316.811 224.286L319.97 223.394L321.036 224.898L316.7 226.121Z" fill="#4D8D7F" fill-opacity="0.58"/>
<path d="M327.107 224.655C326.054 224.953 325.156 224.898 324.401 224.497C323.658 224.091 323.137 223.383 322.847 222.355L321.781 218.579L324.098 217.925L325.146 221.64C325.293 222.16 325.496 222.503 325.745 222.674C325.994 222.844 326.285 222.882 326.607 222.791C326.93 222.7 327.158 222.516 327.281 222.24C327.404 221.965 327.398 221.566 327.252 221.045L326.204 217.331L328.483 216.688L329.548 220.464C329.838 221.492 329.765 222.368 329.343 223.102C328.922 223.836 328.172 224.355 327.119 224.652L327.107 224.655Z" fill="#4D8D7F" fill-opacity="0.58"/>
<path d="M58.3309 284.548C57.7239 284.719 57.1404 284.737 56.6017 284.581C56.0507 284.429 55.5761 284.122 55.1534 283.666C54.743 283.207 54.4216 282.59 54.2085 281.834C53.9954 281.079 53.95 280.397 54.0564 279.779C54.1663 279.173 54.4226 278.659 54.813 278.242C55.2033 277.824 55.6976 277.538 56.3045 277.366C56.9115 277.195 57.495 277.177 58.0337 277.333C58.5848 277.485 59.0593 277.792 59.482 278.248C59.8924 278.707 60.2138 279.324 60.4269 280.08C60.6401 280.835 60.689 281.53 60.579 282.135C60.4691 282.741 60.2128 283.255 59.8224 283.672C59.4321 284.09 58.9379 284.376 58.3309 284.548ZM57.8068 282.69C57.9555 282.648 58.0778 282.56 58.1702 282.414C58.2537 282.284 58.3004 282.07 58.3014 281.789C58.3023 281.508 58.2293 281.154 58.107 280.721C57.9847 280.288 57.8462 279.939 57.7144 279.709C57.5702 279.482 57.4311 279.321 57.2793 279.257C57.1275 279.193 56.9861 279.166 56.8251 279.211C56.6641 279.257 56.5542 279.341 56.4617 279.487C56.3782 279.618 56.3315 279.832 56.3271 280.1C56.3226 280.369 56.3991 280.735 56.5214 281.168C56.6437 281.602 56.7787 281.938 56.914 282.18C57.0617 282.419 57.1973 282.568 57.3526 282.645C57.5044 282.709 57.6458 282.736 57.8068 282.69Z" fill="#4D8D7F" fill-opacity="0.58"/>
<path d="M41.967 253.474L41.5652 252.05L43.3964 249.061C43.5155 248.867 43.5885 248.699 43.6314 248.567C43.6743 248.434 43.6959 248.321 43.6962 248.227C43.6965 248.134 43.6845 248.044 43.6635 247.969C43.6146 247.796 43.5301 247.686 43.3907 247.619C43.2512 247.551 43.0762 247.547 42.8533 247.61C42.6551 247.666 42.4708 247.771 42.3165 247.935C42.1621 248.099 42.0678 248.286 42.0157 248.528L40.021 248.142C40.136 247.601 40.3993 247.113 40.8109 246.676C41.2226 246.239 41.8 245.915 42.5433 245.706C43.0883 245.552 43.5959 245.502 44.066 245.557C44.5361 245.611 44.928 245.768 45.2542 246.023C45.5804 246.279 45.8126 246.628 45.9348 247.061C45.9977 247.284 46.0358 247.514 46.0368 247.754C46.0377 247.995 45.9926 248.261 45.9015 248.554C45.7979 248.851 45.627 249.193 45.3764 249.585L43.997 251.805L43.4106 251.102L46.9782 250.095L47.4848 251.891L41.96 253.449L41.967 253.474Z" fill="#4D8D7F" fill-opacity="0.58"/>
<path d="M51.1043 251.07C50.4973 251.241 49.9139 251.258 49.3752 251.103C48.8241 250.951 48.3496 250.644 47.9268 250.188C47.5165 249.729 47.195 249.112 46.9819 248.356C46.7688 247.601 46.7234 246.919 46.8298 246.301C46.9397 245.695 47.196 245.181 47.5864 244.764C47.9768 244.346 48.471 244.06 49.078 243.888C49.685 243.717 50.2684 243.699 50.8071 243.855C51.3582 244.007 51.8327 244.314 52.2555 244.77C52.6658 245.229 52.9873 245.846 53.2004 246.602C53.4135 247.357 53.4624 248.052 53.3525 248.657C53.2426 249.263 52.9862 249.777 52.5959 250.194C52.2055 250.612 51.7113 250.898 51.1043 251.07ZM50.5803 249.212C50.7289 249.17 50.8512 249.082 50.9312 248.94C51.0272 248.806 51.0615 248.595 51.0624 248.314C51.051 248.037 50.9903 247.68 50.8681 247.246C50.7458 246.813 50.6073 246.464 50.4755 246.234C50.3313 246.008 50.1922 245.846 50.0404 245.782C49.9009 245.715 49.7472 245.691 49.5985 245.733C49.4499 245.775 49.3276 245.863 49.2352 246.009C49.1516 246.14 49.1049 246.354 49.1005 246.622C49.096 246.891 49.1726 247.257 49.2949 247.69C49.4171 248.124 49.5521 248.46 49.6874 248.702C49.8227 248.945 49.9707 249.09 50.1261 249.167C50.2655 249.234 50.4192 249.258 50.5803 249.212Z" fill="#4D8D7F" fill-opacity="0.58"/>
<path d="M32.529 220.207L32.1132 218.733L33.8329 213.69L36.2113 213.019L34.5907 218.034L33.4222 218.016L38.7363 216.517L39.2429 218.312L32.529 220.207ZM36.4284 220.376L36.0965 219.2L35.6519 217.387L35.3549 216.335L37.5351 215.72L38.6705 219.744L36.4284 220.376Z" fill="#4D8D7F" fill-opacity="0.58"/>
<path d="M43.0613 218.678C42.4544 218.849 41.8709 218.867 41.3322 218.711C40.7811 218.559 40.3066 218.252 39.8838 217.796C39.4735 217.337 39.1521 216.72 38.9389 215.964C38.7258 215.209 38.6804 214.527 38.7868 213.909C38.8967 213.303 39.1531 212.789 39.5434 212.372C39.9338 211.954 40.428 211.668 41.035 211.496C41.642 211.325 42.2255 211.308 42.7642 211.463C43.3152 211.615 43.7898 211.922 44.2125 212.378C44.6229 212.837 44.9443 213.455 45.1574 214.21C45.3705 214.965 45.4194 215.66 45.3095 216.266C45.1996 216.871 44.9433 217.385 44.5529 217.802C44.1625 218.22 43.6683 218.506 43.0613 218.678ZM42.5373 216.821C42.6859 216.779 42.8082 216.691 42.8883 216.548C42.9842 216.414 43.0185 216.204 43.0195 215.923C43.008 215.645 42.9474 215.288 42.8251 214.855C42.7028 214.421 42.5643 214.073 42.4325 213.842C42.2883 213.616 42.1492 213.455 41.9974 213.39C41.8579 213.323 41.7042 213.299 41.5556 213.341C41.4069 213.383 41.2846 213.471 41.1922 213.618C41.1087 213.748 41.062 213.962 41.0575 214.23C41.0531 214.499 41.1296 214.865 41.2519 215.298C41.3742 215.732 41.5092 216.068 41.6445 216.311C41.7798 216.553 41.9278 216.698 42.0831 216.775C42.2225 216.843 42.3763 216.866 42.5373 216.821Z" fill="#4D8D7F" fill-opacity="0.58"/>
<path d="M27.6814 190.2C27.0249 190.385 26.4201 190.422 25.8513 190.302C25.2859 190.194 24.7936 189.919 24.3689 189.504C23.9567 189.085 23.6298 188.496 23.4202 187.753C23.1931 186.948 23.162 186.222 23.3234 185.561C23.4847 184.901 23.8084 184.342 24.2944 183.884C24.7803 183.426 25.4073 183.089 26.1506 182.879C26.5594 182.763 26.9573 182.705 27.3693 182.695C27.7689 182.69 28.1259 182.722 28.4349 182.822L28.0626 184.679C27.8225 184.586 27.5875 184.559 27.3629 184.569C27.1384 184.578 26.9208 184.613 26.7102 184.673C26.2395 184.805 25.9063 185.046 25.7141 185.408C25.5185 185.757 25.4851 186.208 25.6353 186.74L25.7995 187.322L25.1586 187.089C25.232 186.827 25.3282 186.6 25.4562 186.39C25.5877 186.192 25.7633 186.009 25.9866 185.853C26.2099 185.696 26.472 185.582 26.794 185.491C27.2152 185.372 27.6237 185.351 28.0353 185.435C28.447 185.519 28.8017 185.686 29.1155 185.945C29.4294 186.204 29.6526 186.569 29.7784 187.015C29.9182 187.51 29.9131 187.966 29.7666 188.395C29.6202 188.824 29.3626 189.191 28.9973 189.508C28.6321 189.825 28.1893 190.057 27.669 190.203L27.6814 190.2ZM27.0697 188.648C27.206 188.61 27.3228 188.55 27.4169 188.457C27.5144 188.376 27.5642 188.268 27.5982 188.151C27.6322 188.035 27.6186 187.892 27.5801 187.756C27.5207 187.545 27.4099 187.389 27.2352 187.291C27.064 187.206 26.8855 187.19 26.6749 187.249C26.5386 187.288 26.4218 187.347 26.3401 187.437C26.2585 187.527 26.1928 187.626 26.1623 187.755C26.1283 187.871 26.1384 188.002 26.1804 188.151C26.2223 188.299 26.282 188.416 26.3719 188.498C26.4618 188.579 26.5729 188.641 26.686 188.663C26.7991 188.684 26.9334 188.687 27.0697 188.648Z" fill="#4D8D7F" fill-opacity="0.58"/>
<path d="M33.9871 188.421C33.3801 188.592 32.7967 188.61 32.258 188.454C31.7069 188.302 31.2324 187.995 30.8096 187.54C30.3993 187.081 30.0778 186.463 29.8647 185.708C29.6516 184.952 29.6062 184.27 29.7126 183.652C29.8225 183.046 30.0789 182.533 30.4692 182.115C30.8596 181.697 31.3538 181.411 31.9608 181.24C32.5678 181.068 33.1512 181.051 33.6899 181.206C34.241 181.358 34.7155 181.665 35.1383 182.121C35.5486 182.58 35.8701 183.198 36.0832 183.953C36.2963 184.708 36.3452 185.403 36.2353 186.009C36.1254 186.615 35.8691 187.128 35.4787 187.546C35.0883 187.963 34.5941 188.25 33.9871 188.421ZM33.4631 186.564C33.6117 186.522 33.734 186.434 33.814 186.291C33.91 186.157 33.9443 185.947 33.9452 185.666C33.9338 185.388 33.8731 185.031 33.7509 184.598C33.6286 184.164 33.4901 183.816 33.3583 183.586C33.2141 183.359 33.075 183.198 32.9232 183.134C32.7837 183.066 32.63 183.043 32.4813 183.084C32.3327 183.126 32.2104 183.214 32.118 183.361C32.0344 183.491 31.9878 183.705 31.9833 183.974C31.9789 184.242 32.0554 184.608 32.1777 185.042C32.3 185.475 32.4349 185.811 32.5702 186.054C32.7055 186.296 32.8536 186.442 33.0089 186.518C33.1483 186.586 33.302 186.609 33.4631 186.564Z" fill="#4D8D7F" fill-opacity="0.58"/>
<path d="M18.2705 157.834C17.6635 158.005 17.1064 158.069 16.5957 158.012C16.085 157.956 15.6559 157.809 15.289 157.552C14.9345 157.291 14.69 156.946 14.5642 156.5C14.4384 156.054 14.4664 155.632 14.6516 155.246C14.8367 154.859 15.1261 154.51 15.5514 154.216C15.9767 153.923 16.4725 153.689 17.0671 153.521C17.6617 153.354 18.2064 153.293 18.7226 153.322C19.2387 153.35 19.6678 153.496 20.0277 153.729C20.3875 153.961 20.6321 154.307 20.7579 154.752C20.8837 155.198 20.8557 155.62 20.6899 156.028C20.5241 156.436 20.2347 156.785 19.8164 157.103C19.407 157.406 18.9023 157.655 18.2953 157.827L18.2705 157.834ZM17.3727 154.652C16.84 154.802 16.3359 154.864 15.857 154.825C15.378 154.787 14.9841 154.671 14.6525 154.443C14.3209 154.216 14.0992 153.904 13.9839 153.496C13.8687 153.087 13.8877 152.681 14.0357 152.305C14.1961 151.925 14.4518 151.599 14.84 151.316C15.2122 151.024 15.6833 150.797 16.2407 150.64C16.7981 150.483 17.3181 150.429 17.7882 150.484C18.2583 150.538 18.6591 150.679 18.9907 150.907C19.3258 151.146 19.5386 151.474 19.6574 151.895C19.7761 152.316 19.7501 152.697 19.5827 153.052C19.4188 153.419 19.1472 153.736 18.7556 154.007C18.364 154.278 17.9177 154.498 17.3727 154.652ZM17.8303 156.274C18.0533 156.211 18.2216 156.096 18.323 155.934C18.4243 155.772 18.4497 155.577 18.3868 155.355C18.3239 155.132 18.2007 154.979 18.0295 154.894C17.8583 154.809 17.6515 154.787 17.4286 154.85C17.2056 154.913 17.0372 155.027 16.9394 155.202C16.8381 155.364 16.8127 155.558 16.8756 155.781C16.9384 156.004 17.0617 156.156 17.2329 156.242C17.4041 156.327 17.6074 156.336 17.8303 156.274ZM17.0163 153.389C17.1773 153.343 17.2872 153.259 17.3673 153.116C17.4384 152.989 17.4584 152.823 17.406 152.637C17.3536 152.451 17.2622 152.317 17.1227 152.249C16.9957 152.178 16.8454 152.167 16.6844 152.212C16.5234 152.258 16.4135 152.342 16.3299 152.473C16.2588 152.6 16.2388 152.766 16.2912 152.952C16.3436 153.137 16.4316 153.26 16.5745 153.34C16.7174 153.419 16.8553 153.434 17.0163 153.389Z" fill="#4D8D7F" fill-opacity="0.58"/>
<path d="M24.9949 155.936C24.388 156.107 23.8045 156.124 23.2658 155.969C22.7147 155.817 22.2402 155.51 21.8174 155.054C21.4071 154.595 21.0857 153.978 20.8725 153.222C20.6594 152.467 20.614 151.785 20.7204 151.166C20.8303 150.561 21.0867 150.047 21.477 149.63C21.8674 149.212 22.3616 148.926 22.9686 148.754C23.5756 148.583 24.1591 148.565 24.6977 148.721C25.2488 148.873 25.7233 149.18 26.1461 149.636C26.5565 150.095 26.8779 150.712 27.091 151.468C27.3041 152.223 27.353 152.918 27.2431 153.523C27.1332 154.129 26.8769 154.643 26.4865 155.06C26.0961 155.478 25.6019 155.764 24.9949 155.936ZM24.4709 154.078C24.6195 154.036 24.7418 153.948 24.8219 153.806C24.9178 153.672 24.9521 153.461 24.953 153.18C24.9416 152.903 24.881 152.546 24.7587 152.112C24.6364 151.679 24.4979 151.33 24.3661 151.1C24.2219 150.874 24.0828 150.712 23.931 150.648C23.7915 150.581 23.6378 150.557 23.4892 150.599C23.3405 150.641 23.2182 150.729 23.1258 150.875C23.0423 151.006 22.9956 151.22 22.9911 151.488C22.9867 151.757 23.0632 152.123 23.1855 152.556C23.3078 152.99 23.4427 153.326 23.5781 153.568C23.7134 153.811 23.8614 153.956 24.0167 154.033C24.1561 154.1 24.3098 154.124 24.4709 154.078Z" fill="#4D8D7F" fill-opacity="0.58"/>
<path d="M3.15917 127.263L1.45076 121.208L2.70727 121.869L0.539483 122.481L0.046875 120.735L3.54011 119.75L5.4791 126.621L3.16266 127.275L3.15917 127.263Z" fill="#4D8D7F" fill-opacity="0.58"/>
<path d="M9.4715 125.655C8.86452 125.826 8.28104 125.844 7.74235 125.688C7.19128 125.536 6.71675 125.229 6.294 124.774C5.88364 124.315 5.56222 123.697 5.3491 122.941C5.13599 122.186 5.09058 121.504 5.19699 120.886C5.3069 120.28 5.56323 119.766 5.95359 119.349C6.34396 118.931 6.83819 118.645 7.44517 118.474C8.05215 118.302 8.63562 118.285 9.17431 118.44C9.72538 118.592 10.1999 118.899 10.6227 119.355C11.033 119.814 11.3544 120.432 11.5676 121.187C11.7807 121.942 11.8296 122.637 11.7197 123.243C11.6098 123.848 11.3534 124.362 10.9631 124.779C10.5727 125.197 10.0785 125.484 9.4715 125.655ZM8.94745 123.798C9.0961 123.756 9.21838 123.668 9.29842 123.525C9.39435 123.391 9.42866 123.181 9.42961 122.9C9.41818 122.622 9.35752 122.265 9.23524 121.832C9.11296 121.398 8.97449 121.05 8.84268 120.819C8.69848 120.593 8.55936 120.432 8.40754 120.367C8.2681 120.3 8.11437 120.276 7.96572 120.318C7.81708 120.36 7.69479 120.448 7.60236 120.595C7.51882 120.725 7.47213 120.939 7.46768 121.207C7.46323 121.476 7.53977 121.842 7.66205 122.275C7.78433 122.709 7.91931 123.045 8.05461 123.288C8.18992 123.53 8.33793 123.675 8.49325 123.752C8.63268 123.82 8.78641 123.843 8.94745 123.798Z" fill="#4D8D7F" fill-opacity="0.58"/>
<path d="M16.2723 123.736C15.6653 123.907 15.0818 123.925 14.5431 123.769C13.9921 123.617 13.5175 123.31 13.0948 122.855C12.6844 122.396 12.363 121.778 12.1499 121.023C11.9368 120.267 11.8914 119.585 11.9978 118.967C12.1077 118.361 12.364 117.848 12.7544 117.43C13.1447 117.012 13.639 116.726 14.2459 116.555C14.8529 116.383 15.4364 116.366 15.9751 116.521C16.5262 116.673 17.0007 116.98 17.4234 117.436C17.8338 117.895 18.1552 118.513 18.3683 119.268C18.5815 120.023 18.6304 120.718 18.5205 121.324C18.4105 121.929 18.1542 122.443 17.7639 122.861C17.3735 123.278 16.8793 123.565 16.2723 123.736ZM15.7482 121.879C15.8969 121.837 16.0192 121.749 16.0992 121.606C16.1951 121.472 16.2294 121.262 16.2304 120.981C16.219 120.703 16.1583 120.346 16.036 119.913C15.9137 119.479 15.7753 119.131 15.6435 118.901C15.4993 118.674 15.3601 118.513 15.2083 118.449C15.0689 118.381 14.9152 118.357 14.7665 118.399C14.6179 118.441 14.4956 118.529 14.4031 118.676C14.3196 118.806 14.2729 119.02 14.2685 119.289C14.264 119.557 14.3405 119.923 14.4628 120.357C14.5851 120.79 14.7201 121.126 14.8554 121.369C14.9907 121.611 15.1387 121.757 15.294 121.833C15.4335 121.901 15.5872 121.924 15.7482 121.879Z" fill="#4D8D7F" fill-opacity="0.58"/>
</g>
<defs>
<clipPath id="clip0_4125_4385">
<rect width="444" height="189" fill="white" transform="translate(0 120.574) rotate(-15.7573)"/>
</clipPath>
</defs>
</svg>
