<svg width="380" height="624" viewBox="0 0 380 624" fill="none" xmlns="http://www.w3.org/2000/svg">
<g opacity="0.5">
<g filter="url(#filter0_f_4125_4370)">
<ellipse cx="243.614" cy="63.0718" rx="237.029" ry="52.9936" transform="rotate(-12.7084 243.614 63.0718)" fill="white"/>
</g>
<g filter="url(#filter1_f_4125_4370)">
<ellipse cx="442.602" cy="97.8451" rx="178.345" ry="62.3265" transform="rotate(-22.1653 442.602 97.8451)" fill="white"/>
</g>
<g opacity="0.6">
<g filter="url(#filter2_f_4125_4370)">
<ellipse cx="298.962" cy="94.5585" rx="190.408" ry="144.927" fill="white"/>
</g>
<mask id="mask0_4125_4370" style="mask-type:alpha" maskUnits="userSpaceOnUse" x="108" y="-51" width="382" height="291">
<ellipse cx="298.962" cy="94.5585" rx="190.408" ry="144.927" fill="white"/>
</mask>
<g mask="url(#mask0_4125_4370)">
<path d="M35.5293 372.817V-152.205M45.6259 372.817V-152.205M55.7224 372.817V-152.205M65.819 372.817V-152.205M75.9156 372.817V-152.205M86.0121 372.817V-152.205M96.1087 372.817V-152.205M106.205 372.817V-152.205M116.302 372.817V-152.205M126.398 372.817V-152.205M136.495 372.817V-152.205M146.591 372.817V-152.205M156.688 372.817V-152.205M166.785 372.817V-152.205M176.881 372.817V-152.205M186.978 372.817V-152.205M197.074 372.817V-152.205M207.171 372.817V-152.205M217.267 372.817V-152.205M227.364 372.817V-152.205M237.461 372.817V-152.205M247.557 372.817V-152.205M257.654 372.817V-152.205M267.75 372.817V-152.205M277.847 372.817V-152.205M287.943 372.817V-152.205M298.04 372.817V-152.205M35.4609 110.374L560.482 110.374M35.4609 120.471L560.482 120.471M35.4609 130.567L560.482 130.567M35.4609 140.664L560.482 140.664M35.4609 150.76H560.482M35.4609 160.857H560.482M35.4609 170.954H560.482M35.4609 181.05H560.482M35.4609 191.147L560.482 191.147M35.4609 201.243H560.482M35.4609 211.34H560.482M35.4609 221.436H560.482M35.4609 231.533H560.482M35.4609 241.63H560.482M35.4609 251.726H560.482M35.4609 261.823L560.482 261.823M35.4609 271.919L560.482 271.919M35.4609 282.016L560.482 282.016M35.4609 292.112H560.482M35.4609 302.209H560.482M35.4609 312.305H560.482M35.4609 322.402H560.482M35.4609 332.499L560.482 332.499M35.4609 342.595L560.482 342.595M35.4609 352.692L560.482 352.692M35.4609 362.788H560.482M35.4609 372.885H560.482M35.4609 -152.136L560.482 -152.136M35.4609 -142.04L560.482 -142.04M35.4609 -131.943L560.482 -131.943M35.4609 -121.847L560.482 -121.847M35.4609 -111.75L560.482 -111.75M35.4609 -101.654L560.482 -101.654M35.4609 -91.5571L560.482 -91.5571M35.4609 -81.4605L560.482 -81.4605M35.4609 -71.364L560.482 -71.364M35.4609 -61.2674L560.482 -61.2674M35.4609 -51.1708L560.482 -51.1708M35.4609 -41.0743L560.482 -41.0743M35.4609 -30.9777L560.482 -30.9777M35.4609 -20.8811L560.482 -20.8811M35.4609 -10.7846L560.482 -10.7846M35.4609 -0.688031L560.482 -0.688014M35.4609 9.40854L560.482 9.40856M35.4609 19.5051L560.482 19.5051M35.4609 29.6017L560.482 29.6017M35.4609 39.6982L560.482 39.6982M35.4609 49.7948L560.482 49.7948M35.4609 59.8914L560.482 59.8914M35.4609 69.9879L560.482 69.9879M35.4609 80.0845L560.482 80.0845M35.4609 90.1811L560.482 90.1811M35.4609 100.278L560.482 100.278M308.137 372.817V-152.205M318.233 372.817V-152.205M328.33 372.817V-152.205M338.426 372.817V-152.205M348.523 372.817V-152.205M358.619 372.817V-152.205M368.716 372.817V-152.205M378.812 372.817V-152.205M388.909 372.817V-152.205M399.006 372.817V-152.205M409.102 372.817V-152.205M419.199 372.817V-152.205M429.295 372.817V-152.205M439.392 372.817V-152.205M449.488 372.817V-152.205M459.585 372.817V-152.205M469.682 372.817V-152.205M479.778 372.817V-152.205M489.875 372.817V-152.205M499.971 372.817V-152.205M510.068 372.817V-152.205M520.164 372.817V-152.205M530.261 372.817V-152.205M540.358 372.817V-152.205M550.454 372.817V-152.205M560.551 372.817V-152.205" stroke="white" stroke-width="0.775962"/>
</g>
</g>
<path d="M304.15 -14.0745C385.33 -14.0745 451.143 51.992 451.143 133.493C451.143 214.994 385.33 281.06 304.15 281.06C222.971 281.06 157.159 214.994 157.159 133.493C157.159 51.9922 222.971 -14.0743 304.15 -14.0745Z" stroke="white" stroke-width="0.896498"/>
<g filter="url(#filter3_f_4125_4370)">
<circle cx="303.572" cy="133.493" r="200.554" stroke="white" stroke-opacity="0.8" stroke-width="0.896498"/>
</g>
<g filter="url(#filter4_f_4125_4370)">
<circle cx="303.577" cy="133.493" r="265.059" stroke="white" stroke-opacity="0.6" stroke-width="0.896498"/>
</g>
</g>
<defs>
<filter id="filter0_f_4125_4370" x="-570.033" y="-592.48" width="1627.3" height="1311.1" filterUnits="userSpaceOnUse" color-interpolation-filters="sRGB">
<feFlood flood-opacity="0" result="BackgroundImageFix"/>
<feBlend mode="normal" in="SourceGraphic" in2="BackgroundImageFix" result="shape"/>
<feGaussianBlur stdDeviation="291.063" result="effect1_foregroundBlur_4125_4370"/>
</filter>
<filter id="filter1_f_4125_4370" x="-156.926" y="-423.484" width="1199.06" height="1042.66" filterUnits="userSpaceOnUse" color-interpolation-filters="sRGB">
<feFlood flood-opacity="0" result="BackgroundImageFix"/>
<feBlend mode="normal" in="SourceGraphic" in2="BackgroundImageFix" result="shape"/>
<feGaussianBlur stdDeviation="216.338" result="effect1_foregroundBlur_4125_4370"/>
</filter>
<filter id="filter2_f_4125_4370" x="-332.626" y="-491.549" width="1263.18" height="1172.21" filterUnits="userSpaceOnUse" color-interpolation-filters="sRGB">
<feFlood flood-opacity="0" result="BackgroundImageFix"/>
<feBlend mode="normal" in="SourceGraphic" in2="BackgroundImageFix" result="shape"/>
<feGaussianBlur stdDeviation="220.59" result="effect1_foregroundBlur_4125_4370"/>
</filter>
<filter id="filter3_f_4125_4370" x="94.3762" y="-75.7029" width="418.392" height="418.392" filterUnits="userSpaceOnUse" color-interpolation-filters="sRGB">
<feFlood flood-opacity="0" result="BackgroundImageFix"/>
<feBlend mode="normal" in="SourceGraphic" in2="BackgroundImageFix" result="shape"/>
<feGaussianBlur stdDeviation="4.09708" result="effect1_foregroundBlur_4125_4370"/>
</filter>
<filter id="filter4_f_4125_4370" x="29.4303" y="-140.654" width="548.296" height="548.294" filterUnits="userSpaceOnUse" color-interpolation-filters="sRGB">
<feFlood flood-opacity="0" result="BackgroundImageFix"/>
<feBlend mode="normal" in="SourceGraphic" in2="BackgroundImageFix" result="shape"/>
<feGaussianBlur stdDeviation="4.32" result="effect1_foregroundBlur_4125_4370"/>
</filter>
</defs>
</svg>
