<svg width="58" height="58" viewBox="0 0 58 58" fill="none" xmlns="http://www.w3.org/2000/svg">
<g clip-path="url(#clip0_4125_3945)">
<path d="M57.7774 41.8355L51.5023 25.4396C51.4239 25.235 51.2688 25.0691 51.07 24.9773C50.8711 24.8854 50.6443 24.8748 50.4377 24.9477L43.8265 27.3064C43.7203 27.3445 43.6228 27.4035 43.5399 27.48C43.4569 27.5564 43.3902 27.6487 43.3436 27.7515C43.2969 27.8542 43.2714 27.9652 43.2685 28.078C43.2656 28.1907 43.2854 28.3029 43.3267 28.4079L43.9015 29.8646L39.3902 32.0071L31.9856 30.6165C31.2644 30.4817 30.5232 30.4971 29.8083 30.6618C29.0933 30.8264 28.4201 31.1368 27.8305 31.5735L26.5072 32.5551L25.6309 31.9242C24.9695 31.4506 24.2089 31.1339 23.4069 30.9979C22.6048 30.862 21.7824 30.9106 21.0019 31.1398L18.1602 31.9859L14.4377 29.7604L14.9722 28.409C15.0135 28.3041 15.0332 28.1919 15.0303 28.0791C15.0274 27.9663 15.0019 27.8553 14.9553 27.7526C14.9087 27.6498 14.842 27.5575 14.759 27.4811C14.6761 27.4046 14.5786 27.3456 14.4724 27.3075L7.85667 24.9477C7.64983 24.8741 7.42242 24.8844 7.22306 24.9763C7.02371 25.0682 6.86824 25.2345 6.7899 25.4396L0.517038 41.8355C0.43926 42.0374 0.442463 42.2616 0.525979 42.4612C0.609494 42.6608 0.766869 42.8204 0.965259 42.9068L7.24036 45.6107C7.34373 45.6553 7.45502 45.6788 7.56762 45.6796C7.68022 45.6804 7.79184 45.6585 7.89584 45.6154C7.99984 45.5722 8.0941 45.5086 8.17303 45.4283C8.25196 45.348 8.31395 45.2526 8.35531 45.1479L8.98731 43.5489L14.1889 46.4802C13.8384 46.9891 13.677 47.6046 13.7326 48.22C13.7883 48.8355 14.0576 49.412 14.4937 49.8497C14.739 50.0952 15.0305 50.2898 15.3512 50.4222C15.672 50.5547 16.0158 50.6226 16.3628 50.6218H16.4289C16.4877 51.2793 16.7907 51.8908 17.2782 52.336C17.7656 52.7811 18.4021 53.0274 19.0622 53.0265H19.1306C19.1838 53.6443 19.4537 54.2233 19.8925 54.6614C20.1379 54.9069 20.4293 55.1014 20.75 55.2339C21.0708 55.3664 21.4146 55.4342 21.7616 55.4335H21.8277C21.8722 55.9343 22.0586 56.412 22.3651 56.8106C22.6717 57.2092 23.0855 57.512 23.5582 57.6836C24.0308 57.8551 24.5426 57.8882 25.0334 57.7791C25.5242 57.6699 25.9737 57.4229 26.329 57.0672L27.3274 56.0699L28.6788 57.0784C29.2513 57.5051 29.9587 57.7106 30.6707 57.6571C31.3827 57.6036 32.0514 57.2946 32.5537 56.7871L32.6489 56.6907C33.0732 56.2577 33.3547 55.7051 33.4557 55.1074C33.9613 55.2501 34.4958 55.2557 35.0043 55.1236C35.5128 54.9915 35.9769 54.7263 36.349 54.3555L36.4185 54.286C36.89 53.8154 37.1879 53.1987 37.2634 52.5368C37.7729 52.6886 38.314 52.6995 38.8292 52.5683C39.3443 52.437 39.8143 52.1687 40.1891 51.7917L40.2362 51.7446C40.6959 51.289 40.9908 50.6933 41.0744 50.0514C41.528 50.1596 42.0008 50.1589 42.4541 50.0493C42.9074 49.9396 43.3283 49.7242 43.6823 49.4207C44.0363 49.1171 44.3135 48.7341 44.491 48.3029C44.6686 47.8716 44.7415 47.4045 44.7038 46.9397C44.6892 46.7594 44.658 46.5809 44.6108 46.4063L49.4953 44.015L49.9436 45.1445C49.9847 45.2495 50.0465 45.345 50.1254 45.4255C50.2043 45.506 50.2986 45.5697 50.4027 45.6129C50.5067 45.6561 50.6185 45.6779 50.7312 45.6769C50.8438 45.676 50.9552 45.6523 51.0585 45.6073L57.3336 42.9034C57.5304 42.8163 57.6862 42.6568 57.7687 42.4581C57.8513 42.2593 57.8544 42.0365 57.7774 41.8355ZM7.10926 43.7248L2.37492 41.6831L8.06397 26.8078L9.45906 27.3042L6.76973 34.9486C6.69543 35.159 6.70776 35.3903 6.80401 35.5916C6.90026 35.793 7.07253 35.9478 7.28294 36.0221C7.49335 36.0964 7.72466 36.0841 7.92598 35.9878C8.1273 35.8916 8.28214 35.7193 8.35643 35.5089L11.039 27.8723L13.0841 28.6018L7.10926 43.7248ZM17.0452 48.6608C16.8638 48.835 16.6213 48.9313 16.3698 48.929C16.1183 48.9266 15.8776 48.826 15.6994 48.6485C15.5212 48.471 15.4195 48.2308 15.4161 47.9792C15.4128 47.7277 15.508 47.4849 15.6815 47.3027L17.4744 45.5098C17.6092 45.3755 17.7808 45.2841 17.9675 45.2471C18.1542 45.2102 18.3477 45.2294 18.5235 45.3022C18.6994 45.3751 18.8497 45.4984 18.9555 45.6566C19.0613 45.8148 19.118 46.0008 19.1182 46.1911C19.1187 46.3176 19.0939 46.4428 19.0454 46.5596C18.997 46.6764 18.9257 46.7823 18.8359 46.8713L17.0452 48.6608ZM19.8937 50.9199C19.8432 50.9692 19.7984 51.0218 19.7536 51.0745L19.7446 51.0644C19.6561 51.1571 19.5499 51.2312 19.4323 51.2824C19.3147 51.3335 19.188 51.3606 19.0598 51.3621C18.9316 51.3636 18.8043 51.3395 18.6856 51.2911C18.5668 51.2427 18.4589 51.1712 18.3682 51.0805C18.2775 50.9899 18.2058 50.882 18.1573 50.7633C18.1089 50.6446 18.0846 50.5174 18.086 50.3891C18.0874 50.2609 18.1144 50.1343 18.1655 50.0166C18.2165 49.899 18.2905 49.7927 18.3832 49.7041L20.0281 48.0602C20.0774 48.0109 20.1245 47.9594 20.1693 47.9067L20.1772 47.9145C20.3589 47.7407 20.6015 47.6448 20.853 47.6476C21.1045 47.6503 21.345 47.7514 21.5229 47.9292C21.7008 48.1069 21.8021 48.3473 21.805 48.5988C21.808 48.8503 21.7124 49.093 21.5386 49.2749L19.8937 50.9199ZM22.4396 53.4658C22.2564 53.6302 22.0171 53.7183 21.771 53.7118C21.5249 53.7052 21.2906 53.6047 21.1164 53.4307C20.9422 53.2568 20.8412 53.0227 20.8343 52.7766C20.8274 52.5305 20.915 52.2911 21.0792 52.1076L22.8721 50.3148C22.9591 50.2163 23.0653 50.1366 23.1842 50.0807C23.3031 50.0248 23.4322 49.9939 23.5636 49.9898C23.6949 49.9857 23.8257 50.0085 23.9479 50.0568C24.0701 50.1052 24.181 50.1781 24.274 50.2709C24.3669 50.3638 24.4399 50.4747 24.4884 50.5969C24.5368 50.719 24.5597 50.8498 24.5558 50.9811C24.5518 51.1125 24.5209 51.2416 24.4651 51.3606C24.4093 51.4795 24.3298 51.5858 24.2313 51.6729L22.4396 53.4658ZM26.9307 54.0776L25.1379 55.8705C24.9561 56.0443 24.7135 56.1402 24.462 56.1374C24.2105 56.1347 23.97 56.0336 23.7921 55.8558C23.6142 55.6781 23.5129 55.4377 23.51 55.1862C23.507 54.9347 23.6027 54.692 23.7764 54.5101L25.4214 52.8663C25.4707 52.817 25.5177 52.7654 25.5625 52.7127L25.5704 52.7206C25.7521 52.5467 25.9947 52.4509 26.2462 52.4536C26.4977 52.4564 26.7382 52.5574 26.9161 52.7352C27.094 52.913 27.1953 53.1534 27.1983 53.4049C27.2012 53.6564 27.1056 53.899 26.9319 54.0809L26.9307 54.0776ZM42.6588 48.0714C42.4355 48.2973 42.1352 48.4307 41.8179 48.445C41.5005 48.4593 41.1894 48.3535 40.9466 48.1487L40.2911 47.603C40.2453 47.5365 40.1902 47.4768 40.1275 47.426L38.6159 46.2113C38.4417 46.0804 38.2234 46.0223 38.0072 46.0492C37.7909 46.0761 37.5936 46.186 37.4568 46.3556C37.32 46.5253 37.2545 46.7414 37.274 46.9585C37.2935 47.1755 37.3966 47.3765 37.5614 47.519L38.8658 48.5712C38.902 48.6212 38.9433 48.6674 38.989 48.709C39.1186 48.8237 39.2233 48.9638 39.2968 49.1205C39.3702 49.2772 39.4108 49.4473 39.416 49.6202C39.4213 49.7932 39.3911 49.9654 39.3273 50.1263C39.2635 50.2872 39.1674 50.4333 39.0451 50.5557L38.998 50.6027C38.7854 50.8162 38.5038 50.9469 38.2036 50.9716C37.9034 50.9962 37.6042 50.9131 37.3597 50.7372L36.061 49.8071L36.0476 49.7971L35.5568 49.4463C35.3755 49.3166 35.1501 49.2642 34.9302 49.3007C34.7103 49.3371 34.5138 49.4595 34.3841 49.6407C34.2544 49.822 34.202 50.0474 34.2384 50.2673C34.2749 50.4873 34.3972 50.6837 34.5785 50.8134L35.0783 51.1709C35.2266 51.2789 35.3498 51.4179 35.4393 51.5781C35.5287 51.7383 35.5824 51.9161 35.5966 52.0991C35.6107 52.282 35.5851 52.4659 35.5213 52.638C35.4576 52.8101 35.3573 52.9664 35.2273 53.096L35.1579 53.1655C34.9292 53.3939 34.6222 53.5266 34.2992 53.5368C33.9761 53.547 33.6614 53.4339 33.4188 53.2204L32.0181 51.9877C31.9376 51.9043 31.8408 51.8384 31.7336 51.7942C31.6265 51.75 31.5114 51.7284 31.3955 51.7308C31.2796 51.7333 31.1655 51.7596 31.0603 51.8083C30.9551 51.857 30.8611 51.9268 30.7842 52.0136C30.7073 52.1003 30.6492 52.202 30.6135 52.3123C30.5778 52.4226 30.5653 52.539 30.5768 52.6544C30.5883 52.7697 30.6235 52.8814 30.6802 52.9825C30.737 53.0835 30.814 53.1718 30.9065 53.2416L31.3827 53.663C31.5125 53.7771 31.6176 53.9164 31.6916 54.0726C31.7656 54.2287 31.807 54.3983 31.8132 54.571C31.8193 54.7436 31.7902 54.9157 31.7276 55.0768C31.6649 55.2378 31.5701 55.3843 31.4488 55.5074L31.3536 55.6038C31.1373 55.8223 30.8494 55.9554 30.5428 55.9784C30.2362 56.0015 29.9316 55.913 29.6851 55.7293L28.4749 54.8261C28.7306 54.4266 28.8742 53.9657 28.8905 53.4917C28.9068 53.0176 28.7953 52.5479 28.5676 52.1318C28.3399 51.7157 28.0044 51.3685 27.5963 51.1267C27.1883 50.8849 26.7227 50.7573 26.2483 50.7574H26.1822C26.1232 50.1001 25.8203 49.4887 25.3332 49.0435C24.8461 48.5982 24.21 48.3514 23.55 48.3515H23.4817C23.4207 47.6846 23.108 47.066 22.6072 46.6214C22.1064 46.1768 21.4551 45.9396 20.7856 45.958C20.7329 45.3402 20.4624 44.7612 20.0225 44.3243C19.5265 43.8291 18.8543 43.551 18.1534 43.551C17.4526 43.551 16.7804 43.8291 16.2844 44.3243L15.3801 45.2274L9.60921 41.9778L13.8091 31.3505L17.6122 33.6241C17.7123 33.684 17.8238 33.7224 17.9395 33.7369C18.0553 33.7514 18.1728 33.7416 18.2845 33.7081L21.4804 32.7568C22.0143 32.5995 22.5771 32.5659 23.1259 32.6585C23.6748 32.7511 24.1954 32.9675 24.6482 33.2913L25.0897 33.6095L20.5974 36.9432C20.264 37.1907 19.9929 37.5123 19.8055 37.8828C19.6181 38.2532 19.5195 38.6622 19.5175 39.0773C19.5156 39.4924 19.6103 39.9023 19.7942 40.2745C19.9782 40.6466 20.2462 40.9709 20.5772 41.2215C21.2015 41.6901 21.9528 41.9592 22.7326 41.9934C23.5125 42.0276 24.2845 41.8253 24.9474 41.4131L28.4749 39.1933C28.885 40.0113 29.6514 41.1229 30.9827 41.8075C32.5257 42.6009 34.4015 42.621 36.5641 41.868L42.5031 46.1452C42.6523 46.2529 42.7764 46.3918 42.8667 46.5521C42.9571 46.7125 43.0115 46.8906 43.0263 47.074C43.0411 47.2575 43.0159 47.442 42.9525 47.6148C42.8891 47.7875 42.7889 47.9445 42.6588 48.0748V48.0714ZM43.7391 44.9608L37.1849 40.2432C37.0712 40.1615 36.9388 40.1095 36.7999 40.0919C36.661 40.0743 36.5199 40.0917 36.3893 40.1424C34.518 40.8685 32.9638 40.9268 31.7671 40.3205C30.1826 39.5149 29.6974 37.7534 29.6929 37.7433C29.6602 37.6151 29.5976 37.4964 29.5104 37.3969C29.4231 37.2974 29.3136 37.22 29.1907 37.1708C29.0679 37.1217 28.9351 37.1022 28.8033 37.1141C28.6715 37.1259 28.5444 37.1687 28.4323 37.239L24.0532 39.9855C23.679 40.218 23.2432 40.3317 22.8032 40.3117C22.3631 40.2917 21.9394 40.1389 21.5879 39.8734C21.465 39.7806 21.3655 39.6604 21.2971 39.5223C21.2288 39.3842 21.1937 39.2322 21.1944 39.0781C21.1952 38.9241 21.2319 38.7724 21.3015 38.635C21.3712 38.4976 21.472 38.3784 21.5958 38.2867L28.8278 32.9193C29.2313 32.6206 29.6919 32.4084 30.1811 32.2958C30.6702 32.1832 31.1773 32.1727 31.6707 32.2649L39.3442 33.7059C39.5187 33.7394 39.6993 33.7162 39.8597 33.6398L44.5167 31.4278L48.8723 42.4496L43.7391 44.9608ZM51.1851 43.7214L45.207 28.5939L47.2531 27.8645L49.9346 35.501C50.0089 35.7114 50.1637 35.8837 50.3651 35.98C50.5664 36.0762 50.7977 36.0885 51.0081 36.0143C51.2185 35.94 51.3908 35.7851 51.487 35.5838C51.5833 35.3825 51.5956 35.1512 51.5213 34.9408L48.832 27.2963L50.2271 26.7999L55.9161 41.6753L51.1851 43.7214Z" fill="white"/>
<path d="M29.1509 26.7967C31.755 26.7967 34.3006 26.0245 36.4658 24.5777C38.631 23.1309 40.3186 21.0746 41.3152 18.6687C42.3117 16.2629 42.5724 13.6155 42.0644 11.0615C41.5564 8.50743 40.3024 6.16138 38.461 4.32001C36.6196 2.47864 34.2736 1.22465 31.7195 0.71662C29.1655 0.208587 26.5181 0.469328 24.1123 1.46587C21.7064 2.46241 19.6501 4.15 18.2033 6.31522C16.7566 8.48044 15.9844 11.0261 15.9844 13.6301C15.9882 17.1209 17.3767 20.4676 19.845 22.936C22.3134 25.4044 25.6601 26.7928 29.1509 26.7967ZM29.1509 2.14446C31.4225 2.14446 33.6432 2.81808 35.532 4.08015C37.4208 5.34221 38.893 7.13603 39.7623 9.23476C40.6316 11.3335 40.8591 13.6429 40.4159 15.8709C39.9727 18.0989 38.8788 20.1454 37.2725 21.7517C35.6662 23.358 33.6196 24.452 31.3916 24.8951C29.1636 25.3383 26.8542 25.1109 24.7555 24.2415C22.6568 23.3722 20.863 21.9001 19.6009 20.0112C18.3388 18.1224 17.6652 15.9018 17.6652 13.6301C17.6685 10.585 18.8796 7.66542 21.0329 5.51214C23.1862 3.35887 26.1057 2.14772 29.1509 2.14446Z" fill="white"/>
<path d="M29.1486 23.4349C31.0878 23.4349 32.9835 22.8599 34.5959 21.7825C36.2083 20.7051 37.465 19.1738 38.2071 17.3822C38.9492 15.5906 39.1434 13.6192 38.7651 11.7172C38.3867 9.81526 37.4529 8.06821 36.0817 6.69697C34.7104 5.32574 32.9634 4.39192 31.0614 4.0136C29.1595 3.63527 27.188 3.82944 25.3964 4.57155C23.6048 5.31366 22.0735 6.57037 20.9962 8.18277C19.9188 9.79517 19.3438 11.6908 19.3438 13.63C19.3467 16.2295 20.3807 18.7217 22.2188 20.5598C24.0569 22.398 26.5491 23.4319 29.1486 23.4349ZM29.1486 5.50603C30.7554 5.50603 32.3261 5.9825 33.6621 6.87517C34.998 7.76785 36.0393 9.03665 36.6542 10.5211C37.2691 12.0056 37.43 13.6391 37.1165 15.215C36.803 16.7909 36.0293 18.2384 34.8931 19.3746C33.757 20.5108 32.3094 21.2845 30.7335 21.598C29.1576 21.9114 27.5241 21.7505 26.0397 21.1357C24.5552 20.5208 23.2864 19.4795 22.3937 18.1435C21.501 16.8075 21.0246 15.2368 21.0246 13.63C21.027 11.4762 21.8836 9.41116 23.4067 7.88812C24.9297 6.36509 26.9947 5.5084 29.1486 5.50603Z" fill="white"/>
<path d="M46.0625 13.6302C46.0625 13.7406 46.0842 13.8499 46.1265 13.9518C46.1687 14.0538 46.2306 14.1464 46.3087 14.2245C46.3867 14.3025 46.4793 14.3644 46.5813 14.4067C46.6833 14.4489 46.7926 14.4706 46.9029 14.4706H51.5599C51.7828 14.4706 51.9966 14.3821 52.1542 14.2245C52.3118 14.0669 52.4004 13.8531 52.4004 13.6302C52.4004 13.4073 52.3118 13.1936 52.1542 13.0359C51.9966 12.8783 51.7828 12.7898 51.5599 12.7898H46.9029C46.68 12.7898 46.4663 12.8783 46.3087 13.0359C46.151 13.1936 46.0625 13.4073 46.0625 13.6302Z" fill="white"/>
<path d="M45.1595 9.79892C45.3089 9.80008 45.4559 9.7614 45.5853 9.68687L49.077 7.63513C49.2701 7.52235 49.4106 7.33745 49.4674 7.1211C49.5243 6.90476 49.4928 6.67469 49.3801 6.48152C49.2673 6.28835 49.0824 6.14789 48.866 6.09104C48.6497 6.0342 48.4196 6.06563 48.2265 6.17841L44.7337 8.23351C44.5728 8.32612 44.4471 8.46942 44.3762 8.64102C44.3053 8.81262 44.2932 9.00286 44.3418 9.18204C44.3905 9.36122 44.4971 9.51925 44.645 9.63146C44.7929 9.74367 44.9738 9.80374 45.1595 9.80228V9.79892Z" fill="white"/>
<path d="M44.7306 19.0267L48.2234 21.0818C48.319 21.1376 48.4248 21.1741 48.5345 21.1891C48.6442 21.204 48.7559 21.1973 48.863 21.1691C48.9701 21.141 49.0706 21.092 49.1588 21.025C49.247 20.958 49.3212 20.8743 49.377 20.7786C49.4329 20.683 49.4693 20.5773 49.4843 20.4675C49.4993 20.3578 49.4925 20.2462 49.4644 20.1391C49.4362 20.0319 49.3873 19.9314 49.3203 19.8432C49.2533 19.755 49.1695 19.6809 49.0739 19.625L45.5823 17.5744C45.487 17.5164 45.3813 17.478 45.271 17.4613C45.1608 17.4446 45.0484 17.45 44.9403 17.4771C44.8322 17.5043 44.7305 17.5527 44.6413 17.6195C44.5521 17.6863 44.4771 17.7702 44.4206 17.8663C44.3641 17.9624 44.3273 18.0688 44.3123 18.1793C44.2973 18.2897 44.3045 18.4021 44.3333 18.5097C44.3622 18.6174 44.4122 18.7183 44.4804 18.8064C44.5486 18.8946 44.6337 18.9683 44.7306 19.0233V19.0267Z" fill="white"/>
<path d="M6.73885 14.4706H11.3959C11.6188 14.4706 11.8325 14.3821 11.9901 14.2245C12.1477 14.0669 12.2363 13.8531 12.2363 13.6302C12.2363 13.4073 12.1477 13.1936 11.9901 13.0359C11.8325 12.8783 11.6188 12.7898 11.3959 12.7898H6.73885C6.51596 12.7898 6.3022 12.8783 6.14459 13.0359C5.98698 13.1936 5.89844 13.4073 5.89844 13.6302C5.89844 13.8531 5.98698 14.0669 6.14459 14.2245C6.3022 14.3821 6.51596 14.4706 6.73885 14.4706Z" fill="white"/>
<path d="M9.22285 7.63513L12.7145 9.68574C12.8097 9.74373 12.9155 9.78219 13.0257 9.79889C13.1359 9.8156 13.2484 9.81021 13.3565 9.78304C13.4646 9.75588 13.5662 9.70748 13.6554 9.64066C13.7446 9.57383 13.8197 9.48993 13.8762 9.39383C13.9327 9.29773 13.9695 9.19135 13.9844 9.08089C13.9994 8.97043 13.9923 8.85809 13.9634 8.75042C13.9346 8.64275 13.8846 8.54189 13.8164 8.45373C13.7482 8.36556 13.6631 8.29184 13.5661 8.23687L10.0734 6.17841C9.9777 6.12256 9.87199 6.0861 9.76225 6.07111C9.65251 6.05612 9.5409 6.0629 9.43377 6.09104C9.21743 6.14789 9.03253 6.28834 8.91974 6.48152C8.80696 6.67469 8.77553 6.90476 8.83238 7.1211C8.88922 7.33744 9.02968 7.52234 9.22285 7.63513Z" fill="white"/>
<path d="M12.7145 17.5778L9.22285 19.625C9.02968 19.7378 8.88922 19.9227 8.83238 20.1391C8.77553 20.3554 8.80696 20.5855 8.91974 20.7786C9.03253 20.9718 9.21743 21.1123 9.43377 21.1691C9.65012 21.226 9.88018 21.1945 10.0734 21.0817L13.5661 19.03C13.6631 18.975 13.7482 18.9013 13.8164 18.8132C13.8846 18.725 13.9346 18.6241 13.9634 18.5165C13.9923 18.4088 13.9994 18.2964 13.9844 18.186C13.9695 18.0755 13.9327 17.9692 13.8762 17.8731C13.8197 17.7769 13.7446 17.693 13.6554 17.6262C13.5662 17.5594 13.4646 17.511 13.3565 17.4838C13.2484 17.4567 13.1359 17.4513 13.0257 17.468C12.9155 17.4847 12.8097 17.5232 12.7145 17.5811V17.5778Z" fill="white"/>
<path d="M27.2609 17.2856C27.3397 17.3703 27.435 17.4378 27.5411 17.484C27.6471 17.5302 27.7615 17.5541 27.8772 17.5541C27.9929 17.5541 28.1073 17.5302 28.2133 17.484C28.3194 17.4378 28.4147 17.3703 28.4935 17.2856L34.2464 11.1225C34.3218 11.0416 34.3804 10.9466 34.4191 10.843C34.4577 10.7394 34.4756 10.6292 34.4716 10.5187C34.4676 10.4082 34.442 10.2995 34.396 10.199C34.3501 10.0984 34.2848 10.0078 34.2039 9.9325C34.1229 9.85716 34.0279 9.79849 33.9243 9.75986C33.8207 9.72122 33.7105 9.70337 33.6 9.70733C33.4895 9.71128 33.3809 9.73696 33.2803 9.7829C33.1797 9.82884 33.0892 9.89414 33.0138 9.97508L27.8761 15.4792L25.2786 12.6969C25.1265 12.5335 24.9156 12.4371 24.6924 12.4292C24.4693 12.4212 24.2521 12.5022 24.0886 12.6543C23.9252 12.8065 23.8288 13.0173 23.8209 13.2405C23.8129 13.4637 23.8939 13.6809 24.046 13.8444L27.2609 17.2856Z" fill="white"/>
</g>
<defs>
<clipPath id="clip0_4125_3945">
<rect width="57.3724" height="57.3724" fill="white" transform="translate(0.460938 0.463623)"/>
</clipPath>
</defs>
</svg>
