<svg width="25" height="25" viewBox="0 0 25 25" fill="none" xmlns="http://www.w3.org/2000/svg">
<g clip-path="url(#clip0_4164_4329)">
<path d="M12.5007 0.249954C19.2668 0.249954 24.7513 5.73459 24.7513 12.5007C24.7513 19.2658 19.2668 24.7504 12.5007 24.7504C5.73455 24.7504 0.25 19.2659 0.25 12.5008C0.25 5.73459 5.73455 0.249954 12.5007 0.249954Z" fill="#D6D4D1"/>
<mask id="mask0_4164_4329" style="mask-type:luminance" maskUnits="userSpaceOnUse" x="0" y="0" width="25" height="25">
<path d="M12.4995 0.54805C19.1009 0.54805 24.4517 5.89925 24.4517 12.5008C24.4517 19.1012 19.1009 24.453 12.4995 24.453C5.89807 24.453 0.546875 19.1012 0.546875 12.5008C0.546875 5.89925 5.89816 0.54805 12.4995 0.54805Z" fill="white"/>
</mask>
<g mask="url(#mask0_4164_4329)">
<path d="M-5.42188 0.550079H30.4341V24.454H-5.42188V0.550079Z" fill="#026C34"/>
<path d="M3.15947 8.77021C3.15947 8.77021 3.3767 8.46346 3.3767 8.17365C3.3767 7.88234 3.1996 7.9312 3.13328 7.97962C3.06687 8.03007 2.9351 8.15971 3.00354 8.239C3.06996 8.31776 3.14254 8.17876 3.18937 8.17876C3.23568 8.17876 3.24802 8.20293 3.24802 8.32552C3.24802 8.4475 3.15947 8.77021 3.15947 8.77021Z" fill="white"/>
<path d="M2.63737 8.82841C2.63737 8.82841 2.6513 10.3313 2.98019 10.3313C2.98019 10.3313 3.12589 10.3313 3.16707 9.94118C3.21029 9.55109 3.37857 8.5752 3.78877 8.5752C4.19897 8.5752 3.58336 9.36473 3.90871 10.056C3.90871 10.056 4.02707 10.3123 4.24941 10.3123C4.24941 10.3123 4.19429 9.26904 4.12382 8.92111C4.05432 8.57115 4.09348 8.57115 4.09348 8.57115C4.09348 8.57115 3.93544 8.37914 4.03739 8.20619C4.14084 8.03324 4.19129 7.96577 4.28751 8.11658C4.38021 8.26846 4.71835 8.7471 4.40949 8.91132L4.53711 10.2649C4.53711 10.2649 4.86088 10.0606 4.78265 9.68488C4.70495 9.30758 4.5402 8.75018 4.73837 8.45579C4.73837 8.45579 5.00702 8.6298 5.00702 8.89791C5.00702 9.16656 4.98594 10.2346 5.52578 10.2346C6.06316 10.2346 5.39402 9.03691 5.39402 8.82171C5.39402 8.82171 5.3688 8.76253 5.49747 8.62662C5.62615 8.49071 5.64159 8.43929 5.73992 8.54222C5.83667 8.64567 6.0158 8.8248 6.0158 9.00084C6.0158 9.17687 5.86499 9.10217 5.86499 9.10217C5.86499 9.10217 6.04676 9.67862 6.04676 10.0636C6.04676 10.4491 5.82336 10.7615 5.41007 10.7615C4.99678 10.7615 4.91856 10.2561 4.91856 10.2561C4.91856 10.2561 4.69004 10.6251 4.57318 10.7034L4.66173 12.3957C4.66173 12.3957 4.65088 12.6509 4.51091 12.7827C4.51091 12.7827 4.47996 12.7951 4.46867 12.62C4.45579 12.4491 4.29466 10.8927 4.29466 10.8927C4.29466 10.8927 3.56845 11.0183 3.56845 9.94206C3.56845 9.94206 3.57666 9.764 3.59579 9.554C3.61687 9.34551 3.59377 9.12008 3.5263 9.28633C3.45883 9.4531 3.43669 9.60189 3.33121 10.133C3.22467 10.6622 3.09087 10.8109 2.93186 10.8109C2.77381 10.8109 2.48047 10.325 2.48047 9.53345C2.48144 8.73837 2.63737 8.82841 2.63737 8.82841Z" fill="white"/>
<path d="M5.27869 8.03783C5.27869 8.03783 5.30392 8.33373 5.41046 8.33373C5.51903 8.33373 5.53349 8.12532 5.53349 8.12532C5.53349 8.12532 5.57574 8.16395 5.57574 8.29977C5.57574 8.43515 5.47484 8.48869 5.41972 8.48869C5.36416 8.48869 5.2607 8.42739 5.2607 8.36204C5.2607 8.36204 5.21237 8.47731 5.06359 8.47731C4.91586 8.47731 4.85156 8.29977 4.85156 8.19376C4.85156 8.08722 4.89478 7.99664 4.92873 7.99664C4.96216 7.99664 4.97821 8.15054 4.97821 8.18194C4.97821 8.21493 5.00441 8.31891 5.06773 8.31891C5.13106 8.31891 5.19332 8.26326 5.27869 8.03783Z" fill="white"/>
<path d="M2.62109 12.212C2.62109 12.212 3.13422 11.4919 3.93459 11.2809C3.93459 11.2809 4.07253 11.2242 4.07253 11.3693C4.07253 11.5171 4.09158 11.5119 3.90267 11.5675C3.7164 11.6247 3.22074 11.8353 2.62109 12.212Z" fill="white"/>
<path d="M8.55696 11.4297C8.55696 11.3633 8.55176 10.985 8.48746 10.9808C8.42317 10.9783 8.25842 11.109 8.28929 11.1419C8.31962 11.1764 8.42828 11.6602 8.17551 11.6602C7.92124 11.6602 7.84972 11.0415 7.84972 11.0415C7.70922 11.4357 7.52904 11.7091 7.33862 11.7091C7.14971 11.7091 7.09926 11.4646 7.09926 11.4054C7.09926 11.3452 7.14353 11.0806 7.04114 11.0806C6.93768 11.0806 6.72822 11.3111 6.72822 11.3111L6.58561 9.26525C6.72822 9.41915 6.81465 9.30229 6.81465 9.15668C6.81465 9.01151 6.53004 8.25029 6.46363 8.13449C6.39722 8.02178 6.26546 8.1695 6.15486 8.33575C6.04214 8.50253 6.16826 8.65846 6.16826 8.65846C6.16826 8.89209 6.1971 9.25599 6.28001 9.97602C6.36441 10.6971 6.43488 11.5021 6.43488 11.5021L6.16209 11.6637C6.16209 11.6637 5.98711 11.0692 5.51826 11.0692C5.04985 11.0692 5.05347 11.4656 5.05347 12.0513C5.05347 12.6375 5.95889 12.1861 5.95889 12.1861C5.95889 12.5706 5.40096 13.3478 4.65667 13.3478C3.91089 13.3478 4.09513 12.0431 4.09513 12.0431C3.66279 12.933 3.92941 13.8388 4.64124 13.8388C5.35254 13.8388 6.0021 13.178 6.156 12.8691C6.30991 12.5593 6.24764 12.0811 6.24764 12.0811L6.4571 11.9596C6.4571 11.9596 6.51223 12.6694 6.4108 13.1347C6.31096 13.5968 5.3603 14.2443 4.56971 14.2443C3.78018 14.2443 3.68802 13.5052 3.68802 13.2829C3.68802 13.0585 3.73997 12.8011 3.73997 12.6343C3.73997 12.4676 3.69878 12.3914 3.69878 12.3914C3.47335 12.69 3.48049 13.3962 3.48049 13.3962C3.48049 14.7076 4.11718 14.7529 4.50833 14.7529C4.89948 14.7529 5.52329 14.6747 6.29377 14.1394C7.06327 13.6041 6.76623 11.8351 6.76623 11.8351L6.82382 11.7723C6.82382 11.7723 6.81562 12.0302 7.20007 12.0302C7.58504 12.0302 7.77599 11.7404 7.77599 11.7404C7.92989 11.9767 8.14041 11.9767 8.14041 11.9767C8.5873 11.9767 8.55696 11.497 8.55696 11.4297ZM5.52135 11.8651C5.33446 11.8651 5.30412 11.5224 5.45185 11.5224C5.60011 11.5224 5.78902 11.791 5.78902 11.791C5.78902 11.791 5.70867 11.8651 5.52135 11.8651Z" fill="white"/>
<path d="M2.97221 12.9228C2.97221 12.9228 3.0298 13.174 2.93314 13.4375C2.83736 13.701 2.77924 14.6336 3.25585 14.0222C3.25585 14.0222 3.43497 14.6336 2.97124 14.6336C2.50645 14.6336 2.68972 13.6228 2.81628 13.279C2.94231 12.9352 2.97221 12.9228 2.97221 12.9228Z" fill="white"/>
<path d="M7.69046 12.7272C7.69046 12.7272 7.48047 12.8445 7.48047 12.6057C7.48047 12.3649 7.68685 12.3916 7.68685 12.3916C7.68685 12.3916 7.86544 12.404 7.86544 12.7499C7.86544 13.0958 7.65342 13.2625 7.65342 13.2625C7.65342 13.2625 7.75899 12.9289 7.69046 12.7272Z" fill="white"/>
<path d="M8.7321 8.3631C8.7321 8.28434 8.70476 8.03316 8.50976 8.03316C8.3137 8.03316 8.11861 8.22004 8.11861 8.50157C8.11861 8.78265 8.25655 8.84694 8.25655 8.84694C7.87828 9.45117 6.55552 10.1995 7.41252 9.82953C8.26943 9.45734 8.46963 8.99264 8.46963 8.99264C8.76253 9.00657 8.59522 8.77233 8.59522 8.77233C8.59522 8.77233 8.7321 8.44036 8.7321 8.3631ZM8.41142 8.59937C8.33055 8.53199 8.35269 8.45579 8.37482 8.4012C8.39696 8.34405 8.5035 8.28743 8.5035 8.39397C8.50359 8.50465 8.41142 8.59937 8.41142 8.59937Z" fill="white"/>
<path d="M8.51118 10.0677C8.51118 10.0677 8.48904 10.5073 8.12409 10.5073C7.75764 10.5073 7.82713 9.9231 8.20743 9.64925C8.20743 9.64925 8.27693 9.64308 8.19615 9.79134C8.1158 9.93906 7.95369 10.289 8.17912 10.289C8.4057 10.2881 8.51118 10.0677 8.51118 10.0677Z" fill="white"/>
<path d="M10.809 8.32967C10.809 8.32967 10.7307 8.26846 10.8064 8.17374C10.8816 8.07848 10.952 8.08933 11.0236 8.26325C11.0967 8.43621 11.1574 8.81245 10.9932 9.22115C10.9932 9.22009 11.0524 8.59937 10.809 8.32967Z" fill="white"/>
<path d="M11.2485 10.9329C11.2485 10.9329 11.3402 11.2979 11.4411 11.2979C11.5414 11.2979 11.5585 10.9206 11.5585 10.9206C11.5585 10.9206 11.7093 11.2387 11.789 11.2387C11.8703 11.2387 11.8724 10.81 11.8724 10.81C11.8724 10.81 11.9841 10.9206 11.9841 11.1523C11.9841 11.3844 11.8333 11.4215 11.7839 11.4215C11.7334 11.4215 11.6017 11.3139 11.6017 11.3139C11.6017 11.3139 11.5574 11.512 11.4118 11.512C11.2686 11.512 11.1652 11.2253 11.2485 10.9329Z" fill="white"/>
<path d="M15.1695 8.15159C15.1695 8.15159 15.2559 7.96682 15.3557 8.09338C15.4556 8.21801 15.5668 8.47483 15.5668 8.75529C15.5668 9.03787 15.3897 9.16867 15.3897 9.16867C15.3897 9.16867 15.468 8.68377 15.2837 8.50164C15.1016 8.31784 15.0953 8.29976 15.1695 8.15159Z" fill="white"/>
<path d="M15.2556 9.58496C15.2556 9.58496 15.3173 9.79804 15.3832 9.79804C15.447 9.79804 15.5016 9.52058 15.5016 9.52058C15.5016 9.52058 15.5644 9.76506 15.6426 9.76506C15.7188 9.76506 15.796 9.44023 15.796 9.44023C15.796 9.44023 15.8527 9.5324 15.8527 9.73974C15.8527 9.94612 15.7373 9.96729 15.7054 9.96729C15.6745 9.96729 15.587 9.96526 15.5284 9.8484C15.5284 9.8484 15.4717 9.96932 15.338 9.96932C15.2104 9.97099 15.1979 9.72599 15.2556 9.58496Z" fill="white"/>
<path d="M21.1396 8.61225C21.1396 8.61225 21.224 8.42748 21.3249 8.55201C21.4258 8.6776 21.5369 8.93548 21.5369 9.21595C21.5369 9.4965 21.3578 9.62817 21.3578 9.62817C21.3578 9.62817 21.4361 9.14336 21.2549 8.96009C21.0696 8.77744 21.0634 8.7605 21.1396 8.61225Z" fill="white"/>
<path d="M13.0885 14.2363C13.0885 14.2363 13.3788 13.981 13.5302 13.981C13.6794 13.981 13.5127 14.2487 13.5127 14.3269C13.5127 14.4051 13.4777 14.5718 13.7185 14.4545C13.9604 14.3371 14.1807 14.2487 14.2229 14.263C14.2641 14.2816 13.874 14.7201 13.5198 14.7201C13.1657 14.7201 13.3387 14.3423 13.35 14.2898C13.3623 14.2404 13.3747 14.1642 13.1781 14.2558C12.9794 14.3433 13.0885 14.2363 13.0885 14.2363Z" fill="white"/>
<path d="M19.7997 14.0305C19.7997 14.0305 20.0262 14.012 20.0262 14.1396C20.0262 14.2682 19.809 14.4215 19.9953 14.4215C20.1846 14.4215 20.1765 14.5667 20.0221 14.6377C19.8656 14.7119 19.5352 14.8755 19.5352 14.6789C19.5352 14.4812 19.7688 14.5492 19.7688 14.3783C19.7688 14.2075 19.5958 14.3011 19.5958 14.1756C19.596 14.051 19.7997 14.0305 19.7997 14.0305Z" fill="white"/>
<path d="M18.9945 11.7724C18.9945 11.7724 19.083 11.6288 19.2086 11.7714C19.3342 11.9103 19.3857 12.0725 19.3857 12.2434C19.3857 12.4122 19.254 12.5316 19.22 12.5254C19.1839 12.5193 19.2241 12.3762 19.2241 12.2614C19.2241 12.1466 19.0481 12.002 18.9883 11.9557C18.9266 11.9103 18.9575 11.8048 18.9945 11.7724Z" fill="white"/>
<path d="M19.2344 11.0133C19.2344 11.0133 19.3631 10.915 19.3631 11.1621C19.3631 11.4096 19.115 11.3423 18.625 11.7113C18.135 12.0803 18.275 11.843 18.2966 11.807C18.3203 11.7714 19.2344 11.0133 19.2344 11.0133Z" fill="white"/>
<path d="M18.3264 10.2387C18.3264 10.2387 18.4788 10.4548 18.5704 10.6504C18.6651 10.8444 18.765 10.9057 18.7691 10.6643C18.7732 10.4218 18.7691 10.0719 18.7691 10.0719C18.7691 10.0719 18.7629 9.9231 18.8535 9.9231C18.942 9.9231 18.9461 10.0415 19.0059 9.97716C19.0635 9.91181 19.0079 9.82114 18.9914 9.76408C18.9729 9.70746 18.9112 9.56282 18.7671 9.69564C18.6219 9.8274 18.6353 9.98034 18.6538 10.1604C18.6724 10.3396 18.6961 10.6453 18.5797 10.388C18.4624 10.1312 18.3944 9.88359 18.238 9.88359C18.0825 9.88359 18.1195 10.3165 18.2194 10.3165C18.3202 10.3164 18.3264 10.2387 18.3264 10.2387Z" fill="white"/>
<path d="M13.9982 12.5213C13.605 12.5913 11.731 12.5543 11.731 12.5543C12.4089 12.2362 12.8349 12.0864 12.8349 12.0864L12.9729 12.1568L12.9769 12.0441C12.9769 12.0441 13.714 11.7585 13.714 11.3791C13.714 10.9983 13.1951 10.6884 12.8595 10.6884C12.524 10.6884 12.3099 11.1145 12.3099 11.3492C12.3099 11.5855 12.4201 11.6972 12.4201 11.6972C12.4201 11.6972 11.2492 12.0986 11.0984 12.2119C10.9476 12.3236 10.8559 12.6056 10.8559 12.7683C10.8559 12.9309 11.2712 12.898 11.2712 12.898C12.1071 12.898 12.2667 13.1327 12.2667 13.1327C11.4376 13.4498 11.6485 14.0859 11.6485 14.0859C11.0211 13.8862 10.8991 13.5671 10.8075 13.2192C10.7154 12.8733 10.6325 12.1991 10.5311 11.8311C10.4307 11.4626 10.0833 10.5876 10.0123 10.5876C9.94079 10.5876 9.73644 10.9772 9.81979 11.2197C9.90269 11.4626 10.3679 12.9846 10.3679 12.9846C9.89952 13.8822 9.2294 14.3743 8.79398 14.3743C8.35847 14.3743 8.42488 13.9748 8.42488 13.9748C9.29167 13.521 9.67717 12.8466 9.67717 12.4308C9.67717 12.0103 9.479 11.5583 9.479 11.5583C9.479 11.5583 9.61694 11.6375 9.61694 11.4919C9.61694 11.3442 9.20727 10.8897 9.14086 10.8897C9.07339 10.8897 8.88456 11.2114 8.88456 11.354C8.88456 11.4961 9.04357 11.5382 9.04357 11.5382C9.04357 11.5382 9.39151 12.0061 9.39151 12.3958C9.39151 12.7849 8.50514 13.3736 8.50514 13.3736C8.50514 13.3736 8.59677 12.7272 8.47991 12.7478C8.36253 12.7683 8.11602 13.6546 8.11602 13.6546C8.11602 13.6546 7.11138 14.2815 7.05679 14.3072C7.00175 14.331 6.04694 14.7457 6.43042 14.7457C6.81539 14.7457 8.09909 14.1651 8.09909 14.1651C8.1109 14.8734 8.77484 14.8909 8.77484 14.8909C9.67303 14.8909 10.5098 13.563 10.5098 13.563C11.0521 14.7838 12.1505 14.8169 12.4047 14.8169C12.66 14.8169 12.697 14.5904 12.697 14.4319C12.697 14.2734 11.9559 14.1848 11.9559 13.8349C11.9559 13.4828 13.4258 13.1678 13.7881 13.0998C14.1545 13.0339 14.1648 12.9249 14.2081 12.8085C14.2493 12.6922 14.3914 12.4513 13.9982 12.5213ZM12.7856 11.2253C12.8329 11.2253 13.22 11.4214 13.22 11.4656C13.22 11.5099 12.7795 11.5964 12.7795 11.5964C12.7073 11.3947 12.7383 11.2253 12.7856 11.2253Z" fill="white"/>
<path d="M9.10785 8.50262C9.10785 8.50262 9.05537 9.03276 9.05537 9.32972C9.05537 9.62826 9.25867 10.0328 9.4265 10.0328C9.59275 10.0328 10.042 8.3802 10.3962 8.3802C10.7504 8.3802 10.4688 8.80275 10.4688 9.6407C10.4688 10.4771 10.9938 10.1837 11.052 10.1596C11.1106 10.1333 11.5008 9.91093 11.5008 9.39005C11.5008 8.86819 11.3195 8.35807 11.3195 8.27058C11.3195 8.18309 11.4776 7.8176 11.56 7.89945C11.6423 7.98182 11.7885 8.48569 11.7885 8.83671C11.7885 9.18878 11.9218 10.0869 12.3377 10.0869C12.7535 10.0869 12.4632 9.13825 12.4159 8.98338C12.3685 8.82586 12.1647 8.43321 12.2419 8.33487C12.3211 8.23706 12.4179 8.08933 12.4508 8.02504C12.4858 7.96074 12.6001 8.04303 12.6927 8.14498C12.7884 8.24844 12.9778 8.49398 12.9778 8.71993C12.9778 8.94633 12.6979 8.66172 12.6979 8.66172C12.6979 8.66172 12.881 9.20263 12.881 9.67668C12.881 10.1513 12.6309 10.4894 12.3294 10.4894C12.0288 10.4894 11.6736 10.0498 11.6736 10.0498C11.6736 10.0498 11.3751 10.6804 10.7621 10.6804C10.1486 10.6804 10.198 9.73692 10.198 9.73692C10.198 9.73692 10.2485 9.22688 10.181 9.24999C10.1147 9.27213 9.91643 9.87997 9.84693 10.076C9.77646 10.2742 9.70644 10.4821 9.50932 10.4821C9.31114 10.4821 8.89062 9.99622 8.89062 9.38273C8.89062 8.76924 9.10785 8.50262 9.10785 8.50262Z" fill="white"/>
<path d="M13.8221 8.85364L14.2895 9.53875L14.2142 8.73423C14.2142 8.73423 14.1227 8.65961 14.1227 8.53402C14.1227 8.40949 14.2153 8.11968 14.3429 8.11968C14.4705 8.11968 14.8371 9.02192 14.8371 9.22468C14.8371 9.427 14.6528 9.27822 14.6528 9.27822L14.6888 10.1954C14.6888 10.1954 15.6853 11.651 16.0353 12.5501C16.3873 13.4478 16.1732 13.4292 16.0785 13.211C15.9827 12.9886 15.2725 11.4842 14.7455 10.8433C14.7455 10.8433 14.9071 12.5295 14.9071 12.9392C14.9071 13.349 14.7826 14.1704 14.5941 14.1704C14.4048 14.1704 14.6724 13.6084 14.661 13.2707C14.6477 12.9309 14.4212 10.7852 14.3224 10.1954L13.3023 8.77532C13.3023 8.77532 13.1017 8.80055 13.1017 8.51594C13.1017 8.23239 13.0378 7.96057 13.1675 7.96057C13.2972 7.96057 14.0713 8.68069 14.0713 8.80672C14.0713 8.93134 13.8221 8.85364 13.8221 8.85364Z" fill="white"/>
<path d="M16.488 9.09503C16.488 9.09503 16.4725 9.63241 16.5848 10.6031C16.696 11.5728 16.7124 12.2758 16.7124 12.6613C16.7124 13.0463 16.8298 14.9033 14.9007 14.9033C14.9007 14.9033 14.7812 14.9074 14.7812 14.8601C14.7812 14.8128 14.8986 14.7716 15.0674 14.714C15.2372 14.6563 16.5229 14.2631 16.4159 12.7334C16.3088 11.2053 16.1317 8.78935 16.0473 8.71112C16.0473 8.71112 15.9701 8.66993 15.9701 8.51912C15.9701 8.36733 16.2656 8.07964 16.3437 8.07964C16.421 8.07964 16.669 8.91908 16.669 9.08119C16.6692 9.24532 16.488 9.09503 16.488 9.09503Z" fill="white"/>
<path d="M17.4215 9.21807C17.4215 9.21807 17.7479 12.1189 17.8571 12.8405C17.9661 13.559 17.5687 13.9111 17.4967 13.9111C17.4268 13.9111 17.5133 13.664 17.5133 13.2708C17.5133 12.8776 17.1283 10.3134 17.0459 9.63453C16.9615 8.95666 16.875 8.96027 16.875 8.55113C16.875 8.1419 17.1324 7.98703 17.2012 7.98703C17.2682 7.98703 17.3546 8.26652 17.3546 8.26652C17.3546 8.26652 17.5399 8.81572 17.6397 8.96962C17.7406 9.12458 17.7406 9.19196 17.7406 9.24347C17.7397 9.29215 17.5399 9.31843 17.4215 9.21807Z" fill="white"/>
<path d="M17.2119 12.8898C17.2119 12.8898 17.1953 14.2652 17.6092 14.2652C17.6092 14.2652 17.7225 14.3371 18.0395 13.6166C18.3586 12.8981 18.5089 12.7642 18.6592 12.7642C18.8095 12.7642 19.108 13.3613 19.4044 13.3613C19.7019 13.3613 19.7894 12.9012 19.7894 12.5687C19.7894 12.2306 19.6298 10.057 19.6298 10.057L18.6674 8.82171C18.6674 8.82171 18.6261 8.78052 18.6261 8.51091C18.6261 8.24121 18.587 8.0672 18.6878 8.0672C18.7898 8.0672 18.9391 8.29262 19.1295 8.45579C19.3189 8.61948 19.3971 8.67769 19.3971 8.77232C19.3971 8.86599 19.2561 8.80681 19.2561 8.80681L19.571 9.27204L19.5216 8.71517C19.5216 8.71517 19.4331 8.5932 19.4331 8.46452C19.4331 8.3369 19.5874 8.02081 19.6822 8.02081C19.7789 8.02081 20.0774 8.85205 20.0774 9.01363C20.0774 9.17679 19.9476 9.00542 19.9476 9.00542L19.993 9.89788L20.5849 10.7055C20.5849 10.7055 20.3409 9.17273 20.3409 8.50976C20.3409 8.50976 20.3079 8.47934 20.3079 8.38311C20.3079 8.28742 20.5014 7.97089 20.5962 7.97089C20.6909 7.97089 20.9513 8.85875 20.9513 9.05684C20.9513 9.25299 20.7959 9.11708 20.7959 9.11708L20.9544 11.2237C20.9544 11.2237 21.7121 12.2866 21.8417 12.5831C21.9715 12.8795 21.9581 13.3119 21.9118 13.2912C21.8655 13.2706 21.501 12.546 21.01 11.9648C21.01 11.9648 21.1511 13.1615 20.8874 13.3489C20.8874 13.3489 20.8617 12.8568 20.8617 12.6056C20.8617 12.3545 20.7423 11.6087 20.7423 11.6087L20.0598 10.6513C20.0598 10.6513 20.1658 12.4677 20.1658 12.9598C20.1658 13.4539 19.9259 13.9068 19.4834 13.9068C19.0397 13.9068 18.6506 13.3591 18.6506 13.3591C18.6506 13.3591 18.4982 13.462 18.1874 14.0952C17.8725 14.7262 17.7756 14.7797 17.6418 14.7797C17.508 14.7797 16.9727 14.4607 16.9727 13.9181C16.9689 13.3736 17.2119 12.8898 17.2119 12.8898Z" fill="white"/>
<path d="M21.729 8.4856C21.729 8.4856 21.6919 8.46346 21.6919 8.35895C21.6919 8.2555 21.8772 7.97292 21.9595 7.97292C22.0439 7.97292 22.4341 8.81748 22.4341 8.97861C22.4341 9.14125 22.2539 8.95445 22.2539 8.95445C22.2539 8.95445 22.2498 9.10835 22.3508 10.3725C22.4517 11.6339 23.0301 13.9202 21.3625 14.5965C19.697 15.2748 21.6971 14.1518 21.9802 13.4539C22.2612 12.7539 22.0955 11.8419 22.0018 10.8985C21.9061 9.95609 21.729 8.4856 21.729 8.4856Z" fill="white"/>
<path d="M19.4571 18.0141H17.6599L17.6546 17.8494C17.6546 17.8494 17.7772 17.7331 17.7772 17.6518C17.7772 17.5694 17.6599 17.3512 17.5754 17.3512C17.493 17.3512 17.3675 17.5344 17.3675 17.6395C17.3675 17.7465 17.4951 17.8515 17.4951 17.8515V18.0162L5.01953 17.9771C5.6212 18.5803 5.67835 18.5906 8.37785 18.6576C11.0785 18.7245 17.5281 18.5319 17.5281 18.5319V18.7326C17.5281 18.7326 17.3984 18.8325 17.3984 18.9385C17.3984 19.0445 17.5085 19.2236 17.6053 19.2236C17.7031 19.2236 17.7607 19.0116 17.7607 19.0116H18.398C18.398 19.0116 18.3867 19.1413 18.5431 19.1413C18.6986 19.1413 18.7048 18.9941 18.7048 18.9941H19.3852C19.3852 18.9941 19.484 19.1475 19.6406 19.1475C19.796 19.1475 19.9947 19.0723 19.9947 18.5196C19.9924 17.9709 19.4571 18.0141 19.4571 18.0141ZM19.3295 18.8335L18.7016 18.8418C18.7016 18.8418 18.6584 18.7265 18.541 18.7265C18.4237 18.7265 18.4052 18.8603 18.4052 18.8603L17.7916 18.8696C17.7916 18.8696 17.7607 18.7738 17.6763 18.7224L17.666 18.5237L19.3522 18.4825C19.3511 18.4815 19.2616 18.6936 19.3295 18.8335Z" fill="white"/>
</g>
</g>
<defs>
<clipPath id="clip0_4164_4329">
<rect width="25" height="25" fill="white"/>
</clipPath>
</defs>
</svg>
