<svg width="22" height="22" viewBox="0 0 22 22" fill="none" xmlns="http://www.w3.org/2000/svg">
<path fill-rule="evenodd" clip-rule="evenodd" d="M20.374 5.25627H10.5052V2.38387H17.8381C18.845 3.18552 19.7033 4.15775 20.374 5.25627ZM21.9995 10.9998H10.5112V8.12825H21.621C21.873 9.06459 22.0003 10.0301 21.9995 10.9998ZM10.9997 21.9996C13.4866 22.0053 15.901 21.1626 17.8441 19.6106H4.15579C6.0986 21.1628 8.51296 22.0056 10.9997 21.9996ZM20.3861 16.7446H1.61337C1.06584 15.8517 0.650059 14.8844 0.378906 13.8726H21.6205C21.3494 14.8844 20.9337 15.8517 20.3861 16.7446Z" fill="#D80027"/>
<path fill-rule="evenodd" clip-rule="evenodd" d="M5.10674 1.71185H5.09685V1.71873L5.10674 1.71185ZM5.10674 1.71185H6.10144L5.16431 2.3843L5.5188 3.48428L4.58382 2.81183L3.65485 3.48428L3.96035 2.53512C3.13927 3.22233 2.4229 4.0257 1.83387 4.91983H2.15785L1.56489 5.34951L1.29591 5.82216L1.57692 6.69613L1.04541 6.30942L0.678893 7.16276L0.984395 8.12094H2.14453L1.22244 8.80027L1.57692 9.90024L0.641941 9.2278L0.0919518 9.63084C0.0305775 10.0846 -0.000142616 10.5419 4.9772e-07 10.9998H10.9998V9.26495e-06C8.91243 -0.0027055 6.86778 0.591234 5.10674 1.71185ZM5.51665 9.89466L5.52481 9.9011H5.5188L5.51665 9.89466ZM5.16388 8.8007L5.51665 9.89466L4.58339 9.22866L3.64841 9.9011L4.00289 8.80113L3.06791 8.12868H4.22804L4.58253 7.0287L4.93701 8.12868H6.09715L5.16388 8.8007ZM5.17033 5.59873L5.52481 6.69871L4.58983 6.02626L3.65485 6.69871L4.00934 5.59873L3.07435 4.92628H4.23449L4.58897 3.8263L4.94346 4.92628H6.10359L5.17033 5.59873ZM8.53729 9.22866L9.47228 9.9011L9.11779 8.80113L10.0545 8.12868H8.89436L8.53987 7.0287L8.18539 8.12868H7.02525L7.96024 8.80113L7.60575 9.9011L8.53729 9.22866ZM9.11779 5.59873L9.47228 6.69871L8.53729 6.02626L7.60231 6.69871L7.9568 5.59873L7.02182 4.92628H8.18195L8.53644 3.8263L8.89092 4.92628H10.0511L9.11779 5.59873ZM9.47228 3.49631L9.11779 2.39633L10.0545 1.72388H8.89436L8.53987 0.623903L8.18539 1.72388H7.02525L7.96024 2.39633L7.60575 3.49631L8.54073 2.82386L9.47228 3.49631Z" fill="#0052B4"/>
</svg>
