<svg width="42" height="62" viewBox="0 0 42 62" fill="none" xmlns="http://www.w3.org/2000/svg">
<path d="M19.5783 24.8201C9.32828 24.8201 0.988281 33.1601 0.988281 43.4001C0.988281 53.6401 9.32828 62.0001 19.5783 62.0001C29.8283 62.0001 38.1683 53.6601 38.1683 43.4001C38.1683 37.9801 35.8183 32.8901 31.7183 29.3401L40.8983 18.0101C41.0083 17.8801 41.0383 17.7101 40.9883 17.5401C40.9383 17.3801 40.8183 17.2601 40.6583 17.2101L32.9983 14.7601L39.0183 3.36007C39.0883 3.23007 39.0983 3.07007 39.0483 2.93007C38.9883 2.79007 38.8683 2.69007 38.7283 2.64007L30.6283 0.0200676C30.3783 -0.0499324 30.1183 0.0600675 30.0083 0.300068L20.7283 20.4801C20.6683 20.6201 20.6683 20.7701 20.7283 20.9101C20.7883 21.0401 20.9083 21.1401 21.0483 21.1801L24.9983 22.3601C25.4183 22.4801 25.8483 22.6001 26.2883 22.7501L28.2683 23.3401L26.8883 26.3401C24.5783 25.3501 22.1183 24.8201 19.5783 24.8201ZM19.5783 35.2001C15.0483 35.2001 11.3583 38.8801 11.3583 43.4001C11.3583 47.9201 15.0483 51.6201 19.5783 51.6201C24.1083 51.6201 27.7883 47.9401 27.7883 43.4001C27.7883 41.1101 26.8383 38.9601 25.1783 37.4001L27.1483 34.9601C29.5583 37.1101 30.9283 40.1601 30.9283 43.4001C30.9283 49.6601 25.8383 54.7501 19.5783 54.7501C13.3183 54.7501 8.23828 49.6601 8.23828 43.4001C8.23828 37.1401 13.3283 32.0601 19.5783 32.0601C21.0783 32.0601 22.5283 32.3401 23.8883 32.9001L22.5683 35.7701C21.6183 35.4001 20.6183 35.2001 19.5783 35.2001ZM29.4283 22.8101C29.3683 22.6701 29.2483 22.5701 29.1083 22.5301L26.5983 21.7801C26.1683 21.6301 25.7183 21.5101 25.2383 21.3701L21.8983 20.3801L30.7383 1.13007L37.8383 3.42007L31.8183 14.8301C31.7483 14.9601 31.7383 15.1201 31.7983 15.2601C31.8483 15.3901 31.9683 15.5001 32.1083 15.5501L39.6383 17.9501L30.6283 29.0701C30.6283 29.0701 30.6183 29.0701 30.6083 29.0701L26.6983 33.9101H26.6883L24.1383 37.0501C24.1383 37.0501 24.0983 37.1001 24.0783 37.1201L21.7683 39.9701L25.0283 32.8501V32.8301L29.3483 23.4101L29.4283 23.2101C29.4883 23.0801 29.4883 22.9301 29.4283 22.8001V22.8101Z" fill="#A33939"/>
</svg>
