<svg width="1920" height="1483" viewBox="0 0 1920 1483" fill="none" xmlns="http://www.w3.org/2000/svg">
<g clip-path="url(#clip0_4125_3807)">
<rect width="1920" height="1483" fill="#064541"/>
<circle cx="184.5" cy="1236.5" r="18.5" fill="white"/>
<path d="M185.38 1242.92C185.503 1242.87 185.615 1242.8 185.71 1242.71L190.71 1237.71C190.803 1237.62 190.877 1237.51 190.927 1237.38C190.978 1237.26 191.004 1237.13 191.004 1237C191.004 1236.73 190.898 1236.48 190.71 1236.29C190.617 1236.2 190.506 1236.12 190.384 1236.07C190.262 1236.02 190.132 1236 190 1236C189.734 1236 189.478 1236.1 189.29 1236.29L186 1239.59L186 1232C186 1231.73 185.894 1231.48 185.707 1231.29C185.519 1231.11 185.265 1231 185 1231C184.735 1231 184.48 1231.11 184.293 1231.29C184.105 1231.48 184 1231.73 184 1232L184 1239.59L180.71 1236.29C180.617 1236.2 180.506 1236.12 180.384 1236.07C180.263 1236.02 180.132 1235.99 180 1235.99C179.868 1235.99 179.737 1236.02 179.615 1236.07C179.493 1236.12 179.383 1236.2 179.29 1236.29C179.196 1236.38 179.122 1236.49 179.071 1236.62C179.02 1236.74 178.994 1236.87 178.994 1237C178.994 1237.13 179.02 1237.26 179.071 1237.38C179.122 1237.51 179.196 1237.62 179.29 1237.71L184.29 1242.71C184.385 1242.8 184.497 1242.87 184.62 1242.92C184.863 1243.02 185.136 1243.02 185.38 1242.92Z" fill="#186756"/>
<rect x="828" y="556.029" width="73.5742" height="73.0487" rx="7.58603" fill="#F2F9F6" fill-opacity="0.23"/>
<path d="M881.504 583.621L873.981 576.1C873.731 575.849 873.434 575.651 873.107 575.516C872.78 575.38 872.43 575.311 872.076 575.311C871.723 575.311 871.372 575.38 871.046 575.516C870.719 575.651 870.422 575.849 870.172 576.1L849.414 596.857C849.163 597.106 848.964 597.403 848.829 597.73C848.693 598.056 848.624 598.407 848.625 598.761V606.284C848.625 606.998 848.909 607.683 849.414 608.188C849.919 608.693 850.604 608.977 851.318 608.977H879.598C879.956 608.977 880.298 608.835 880.551 608.582C880.803 608.33 880.945 607.987 880.945 607.63C880.945 607.273 880.803 606.931 880.551 606.678C880.298 606.425 879.956 606.284 879.598 606.284H862.651L881.504 587.43C881.754 587.18 881.953 586.883 882.088 586.556C882.223 586.23 882.293 585.879 882.293 585.525C882.293 585.172 882.223 584.821 882.088 584.495C881.953 584.168 881.754 583.871 881.504 583.621ZM866.132 583.947L868.941 586.757L854.685 601.013L851.876 598.204L866.132 583.947ZM851.318 606.284V601.454L856.148 606.284H851.318ZM859.398 605.726L856.591 602.917L870.845 588.661L873.655 591.47L859.398 605.726ZM875.558 589.566L868.037 582.043L872.077 578.003L879.598 585.526L875.558 589.566Z" fill="#77A694"/>
<g clip-path="url(#clip1_4125_3807)">
<path d="M1057.5 1405.25C1060.84 1405.25 1061.24 1405.27 1062.55 1405.32C1063.77 1405.38 1064.43 1405.58 1064.87 1405.75C1065.45 1405.98 1065.87 1406.25 1066.3 1406.69C1066.74 1407.13 1067.01 1407.54 1067.24 1408.12C1067.41 1408.56 1067.61 1409.23 1067.67 1410.44C1067.72 1411.76 1067.74 1412.16 1067.74 1415.49C1067.74 1418.83 1067.72 1419.23 1067.67 1420.54C1067.61 1421.76 1067.41 1422.42 1067.24 1422.86C1067.01 1423.44 1066.74 1423.86 1066.3 1424.29C1065.86 1424.73 1065.45 1425 1064.87 1425.23C1064.43 1425.4 1063.76 1425.6 1062.55 1425.66C1061.23 1425.71 1060.83 1425.73 1057.5 1425.73C1054.16 1425.73 1053.76 1425.71 1052.45 1425.66C1051.23 1425.6 1050.57 1425.4 1050.13 1425.23C1049.55 1425 1049.13 1424.73 1048.7 1424.29C1048.26 1423.85 1047.99 1423.44 1047.76 1422.86C1047.59 1422.42 1047.39 1421.75 1047.33 1420.54C1047.28 1419.22 1047.26 1418.83 1047.26 1415.49C1047.26 1412.15 1047.28 1411.75 1047.33 1410.44C1047.39 1409.22 1047.59 1408.56 1047.76 1408.12C1047.99 1407.54 1048.26 1407.12 1048.7 1406.69C1049.14 1406.25 1049.55 1405.98 1050.13 1405.75C1050.57 1405.58 1051.24 1405.38 1052.45 1405.32C1053.76 1405.27 1054.16 1405.25 1057.5 1405.25ZM1057.5 1403C1054.11 1403 1053.68 1403.01 1052.35 1403.07C1051.02 1403.13 1050.11 1403.35 1049.32 1403.65C1048.49 1403.98 1047.79 1404.4 1047.1 1405.1C1046.4 1405.79 1045.98 1406.49 1045.65 1407.31C1045.35 1408.11 1045.13 1409.02 1045.07 1410.34C1045.01 1411.68 1045 1412.11 1045 1415.5C1045 1418.89 1045.01 1419.32 1045.07 1420.65C1045.13 1421.98 1045.35 1422.89 1045.65 1423.68C1045.98 1424.51 1046.4 1425.21 1047.1 1425.9C1047.79 1426.59 1048.49 1427.02 1049.31 1427.34C1050.11 1427.65 1051.02 1427.86 1052.34 1427.92C1053.68 1427.98 1054.1 1428 1057.5 1428C1060.89 1428 1061.31 1427.98 1062.65 1427.92C1063.97 1427.86 1064.89 1427.65 1065.68 1427.34C1066.5 1427.02 1067.2 1426.59 1067.89 1425.9C1068.58 1425.21 1069.01 1424.51 1069.33 1423.69C1069.64 1422.89 1069.85 1421.98 1069.91 1420.66C1069.97 1419.32 1069.99 1418.9 1069.99 1415.5C1069.99 1412.11 1069.97 1411.69 1069.91 1410.35C1069.85 1409.03 1069.64 1408.11 1069.33 1407.32C1069.02 1406.49 1068.6 1405.79 1067.9 1405.1C1067.21 1404.41 1066.51 1403.98 1065.69 1403.66C1064.89 1403.35 1063.98 1403.14 1062.66 1403.08C1061.32 1403.01 1060.89 1403 1057.5 1403Z" fill="white"/>
<path d="M1057.5 1409.08C1053.96 1409.08 1051.08 1411.96 1051.08 1415.5C1051.08 1419.04 1053.96 1421.92 1057.5 1421.92C1061.05 1421.92 1063.92 1419.04 1063.92 1415.5C1063.92 1411.96 1061.05 1409.08 1057.5 1409.08ZM1057.5 1419.67C1055.2 1419.67 1053.34 1417.8 1053.34 1415.5C1053.34 1413.2 1055.2 1411.33 1057.5 1411.33C1059.8 1411.33 1061.67 1413.2 1061.67 1415.5C1061.67 1417.8 1059.8 1419.67 1057.5 1419.67Z" fill="white"/>
<path d="M1065.67 1408.83C1065.67 1409.66 1065 1410.32 1064.17 1410.32C1063.34 1410.32 1062.68 1409.65 1062.68 1408.83C1062.68 1408 1063.35 1407.33 1064.17 1407.33C1065 1407.33 1065.67 1408 1065.67 1408.83Z" fill="white"/>
</g>
<path d="M971.751 1410.5C971.751 1410.5 971.507 1408.78 970.755 1408.02C969.803 1407.02 968.738 1407.02 968.25 1406.96C964.754 1406.71 959.505 1406.71 959.505 1406.71H959.495C959.495 1406.71 954.246 1406.71 950.75 1406.96C950.262 1407.02 949.197 1407.02 948.245 1408.02C947.493 1408.78 947.254 1410.5 947.254 1410.5C947.254 1410.5 947 1412.53 947 1414.55V1416.44C947 1418.46 947.249 1420.49 947.249 1420.49C947.249 1420.49 947.493 1422.21 948.24 1422.97C949.192 1423.97 950.442 1423.93 950.999 1424.04C953.001 1424.23 959.5 1424.29 959.5 1424.29C959.5 1424.29 964.754 1424.28 968.25 1424.03C968.738 1423.97 969.803 1423.97 970.755 1422.97C971.507 1422.21 971.751 1420.49 971.751 1420.49C971.751 1420.49 972 1418.47 972 1416.44V1414.55C972 1412.53 971.751 1410.5 971.751 1410.5ZM956.917 1418.74V1411.72L963.67 1415.24L956.917 1418.74Z" fill="white"/>
<path d="M874 1471.25C874 1470.05 868.404 1469.08 861.5 1469.08C854.596 1469.08 849 1470.05 849 1471.25C849 1472.34 853.571 1473.24 859.547 1473.4V1471.88H856.373V1471.25H859.547V1470.77C859.547 1470.23 861.413 1469.93 864.268 1469.93C865.635 1469.93 867.066 1469.97 867.066 1469.97V1470.51H865.49C863.938 1470.51 863.453 1470.67 863.453 1470.85V1471.25H866.92L866.366 1471.88H863.453V1473.4C869.429 1473.24 874 1472.34 874 1471.25Z" fill="white"/>
<path d="M905.865 1472.98C915.296 1472.98 920.457 1471.62 920.457 1470.44C920.457 1470.4 920.452 1470.36 920.442 1470.32C921.446 1470.19 922.312 1470.04 923 1469.86C922.065 1469.93 921.073 1469.98 920.056 1470C921.126 1469.89 921.928 1469.71 922.312 1469.51C921.305 1469.61 920.204 1469.68 919.056 1469.72C918.282 1469.58 917.259 1469.48 916.146 1469.45C915.032 1469.42 913.889 1469.45 912.893 1469.55C911.898 1469.64 911.106 1469.79 910.639 1469.97C910.173 1470.14 910.058 1470.34 910.312 1470.54C908.273 1470.52 906.279 1470.43 904.458 1470.27C902.638 1470.1 901.031 1469.88 899.743 1469.6C899.088 1469.8 898.888 1470.03 899.182 1470.25C899.477 1470.48 900.245 1470.67 901.33 1470.8C900.515 1470.79 899.719 1470.75 899.006 1470.68V1470.69C899.005 1470.9 899.415 1471.1 900.165 1471.26C900.915 1471.42 901.96 1471.53 903.121 1471.57C902.367 1471.61 901.575 1471.61 900.807 1471.59C901.135 1471.76 901.772 1471.92 902.631 1472.03C903.49 1472.14 904.526 1472.2 905.596 1472.21C903.78 1472.45 901.536 1472.59 899.226 1472.59C898.816 1472.59 898.407 1472.58 898 1472.57C900.347 1472.84 903.077 1472.98 905.865 1472.98Z" fill="white"/>
<path d="M1019.15 1469.08H997.846C996.825 1469.08 996 1469.22 996 1469.39V1473.11C996 1473.29 996.825 1473.43 997.846 1473.43H1019.15C1020.17 1473.43 1021 1473.29 1021 1473.12V1469.39C1021 1469.22 1020.17 1469.08 1019.15 1469.08ZM1003.42 1472.79H999.706V1470.71H1003.42V1472.79ZM1001.56 1470.43C1000.37 1470.43 999.408 1470.26 999.408 1470.05C999.408 1469.85 1000.37 1469.68 1001.56 1469.68C1002.75 1469.68 1003.71 1469.85 1003.71 1470.05C1003.71 1470.26 1002.75 1470.43 1001.56 1470.43ZM1017.3 1472.79H1013.6V1471.78C1013.6 1471.54 1013.57 1471.23 1011.67 1471.23C1009.74 1471.23 1009.45 1471.49 1009.45 1471.76V1472.79H1005.75V1470.71H1009.3V1470.99H1009.35C1009.84 1470.83 1011.05 1470.66 1012.86 1470.66C1016.61 1470.66 1017.3 1471.09 1017.3 1471.65V1472.79V1472.79Z" fill="white"/>
<path d="M0 92H1920V1483H0V92Z" fill="#064541"/>
<path opacity="0.64" d="M2131 452L960 1266" stroke="url(#paint0_linear_4125_3807)" stroke-opacity="0.37" stroke-width="278"/>
<path opacity="0.77" d="M2131 910L1548 1313" stroke="url(#paint1_linear_4125_3807)" stroke-opacity="0.17" stroke-width="278"/>
<g clip-path="url(#clip2_4125_3807)">
<path d="M1441.28 565.579C1436.29 565.409 1431.31 565.296 1426.32 565.126L1410.18 651.67C1410.13 652.01 1408.65 652.745 1408.88 653.707L1458.95 697.318C1463.31 700.938 1467.61 704.558 1471.97 708.178L1523.11 748L1641.77 694.773L1661.82 580.965L1565.76 495.382L1526.85 599.518L1426.95 643.073L1441.39 565.579H1441.28Z" fill="#215048"/>
<path d="M1473.45 341.357C1472.03 336.606 1470.67 331.798 1469.25 327.046L1381.81 338.472C1381.47 338.472 1380.34 337.398 1379.43 337.85L1353.38 398.883C1351.28 404.144 1349.19 409.348 1347.09 414.608L1324.95 475.472L1412.28 571.688L1526.85 555.511L1578.68 437.8L1467.5 432.992L1395.12 351.539L1473.39 341.301L1473.45 341.357Z" fill="#215048"/>
<path d="M1696.93 302.61C1701.07 299.782 1705.14 297.01 1709.28 294.182L1671.39 214.652C1671.22 214.313 1671.96 212.899 1671.22 212.22L1605.07 206.337C1599.46 205.941 1593.8 205.602 1588.19 205.206L1523.4 203L1458.72 315.677L1509.52 419.529L1637.63 432.369L1607.84 325.293L1663.01 231.395L1696.93 302.61Z" fill="#215048"/>
<path d="M1802.9 502.905C1806.86 505.96 1810.77 509.014 1814.74 512.012L1878.74 451.432C1878.74 451.432 1880.6 451.432 1881 450.527L1866.16 385.873C1864.8 380.387 1863.39 374.956 1862.03 369.47L1844.13 307.248L1716.81 280.663L1633.61 360.985L1660.97 486.615L1753.74 425.242L1860.22 448.66L1802.9 502.849V502.905Z" fill="#215048"/>
<path d="M1644.88 665.415C1643.19 670.11 1641.54 674.805 1639.84 679.5L1717.27 721.584C1717.61 721.754 1717.83 723.338 1718.8 723.451L1775.77 689.342C1780.53 686.344 1785.34 683.346 1790.1 680.348L1843.85 644.091L1829.86 514.954L1727.63 460.765L1616.45 525.588L1703.56 594.71L1714.15 703.087L1644.83 665.415H1644.88Z" fill="#215048"/>
</g>
</g>
<defs>
<linearGradient id="paint0_linear_4125_3807" x1="1918.98" y1="332.405" x2="1129.16" y2="1071.66" gradientUnits="userSpaceOnUse">
<stop stop-color="#045752"/>
<stop offset="1" stop-color="#09BDB2" stop-opacity="0"/>
</linearGradient>
<linearGradient id="paint1_linear_4125_3807" x1="2112.6" y1="791.275" x2="1564.67" y2="1351.38" gradientUnits="userSpaceOnUse">
<stop stop-color="#2A6E2A"/>
<stop offset="1" stop-color="#51D451" stop-opacity="0"/>
</linearGradient>
<clipPath id="clip0_4125_3807">
<rect width="1920" height="1483" fill="white"/>
</clipPath>
<clipPath id="clip1_4125_3807">
<rect width="25" height="25" fill="white" transform="translate(1045 1403)"/>
</clipPath>
<clipPath id="clip2_4125_3807">
<rect width="556" height="545" fill="white" transform="translate(1325 203)"/>
</clipPath>
</defs>
</svg>
