<svg width="48" height="50" viewBox="0 0 48 50" fill="none" xmlns="http://www.w3.org/2000/svg">
<path d="M47.9883 3.87484V27.0665C47.067 26.2184 45.8603 25.748 44.6081 25.7488C43.7264 25.7475 42.8602 25.9808 42.0985 26.4248L42.007 26.4707L41.1133 27.1353V3.87484C41.1142 3.57121 41.2352 3.28028 41.4499 3.06558C41.6646 2.85089 41.9555 2.72988 42.2591 2.729H46.8424C47.1461 2.72988 47.437 2.85088 47.6517 3.06557C47.8664 3.28027 47.9874 3.57121 47.9883 3.87484Z" fill="#186756"/>
<path d="M39.9688 8.45833V27.9833L33.0938 33.1052V8.45833C33.0946 8.15471 33.2156 7.86377 33.4303 7.64908C33.645 7.43438 33.936 7.31338 34.2396 7.3125H38.8229C39.1265 7.31338 39.4175 7.43438 39.6322 7.64908C39.8469 7.86377 39.9679 8.15471 39.9688 8.45833Z" fill="#186756"/>
<path d="M31.9492 14.1873V29.1519C31.5853 28.7468 31.1401 28.4231 30.6425 28.202C30.1449 27.9809 29.6062 27.8672 29.0617 27.8686H25.0742V14.1873C25.0751 13.8837 25.1961 13.5928 25.4108 13.3781C25.6255 13.1634 25.9164 13.0424 26.2201 13.0415H30.8034C31.107 13.0424 31.3979 13.1634 31.6126 13.3781C31.8273 13.5928 31.9483 13.8837 31.9492 14.1873Z" fill="#186756"/>
<path d="M23.9258 19.9168V27.8689H18.7007C18.1438 27.8721 17.5895 27.9453 17.0508 28.0866V19.9168C17.0517 19.6132 17.1727 19.3223 17.3874 19.1076C17.6021 18.8929 17.893 18.7719 18.1966 18.771H22.7799C23.0836 18.7719 23.3745 18.8929 23.5892 19.1076C23.8039 19.3223 23.9249 19.6132 23.9258 19.9168Z" fill="#186756"/>
<path d="M18.8688 45.9642L14.9517 49.0979C14.7389 49.2682 14.4723 49.357 14.1998 49.3484C13.9274 49.3398 13.6669 49.2343 13.4652 49.051L2.57817 39.1537C2.45553 39.0422 2.35854 38.9054 2.29389 38.7528C2.22924 38.6002 2.19847 38.4354 2.2037 38.2697C2.20892 38.104 2.25003 37.9415 2.32418 37.7932C2.39832 37.645 2.50374 37.5146 2.63317 37.4111L6.5502 34.2775C6.76307 34.1072 7.02967 34.0183 7.30213 34.0269C7.57459 34.0355 7.83507 34.141 8.03677 34.3244L18.9238 44.2216C19.0464 44.3331 19.1434 44.4699 19.2081 44.6225C19.2727 44.7751 19.3035 44.94 19.2983 45.1056C19.293 45.2713 19.2519 45.4338 19.1778 45.5821C19.1036 45.7303 18.9982 45.8607 18.8688 45.9642Z" fill="#186756"/>
<path d="M47.8426 30.259C47.7703 29.7374 47.5707 29.2417 47.2617 28.8154C46.9526 28.389 46.5434 28.0453 46.0702 27.8144C45.5834 27.5705 45.0436 27.4517 44.4994 27.4686C43.9553 27.4856 43.4239 27.6379 42.9533 27.9116L32.1347 35.9565C31.5704 36.2761 30.9328 36.4439 30.2843 36.4435H25.6775C25.5142 36.4448 25.3523 36.4138 25.2011 36.3522C25.0499 36.2907 24.9124 36.1998 24.7965 36.0848C24.6806 35.9698 24.5886 35.833 24.5258 35.6823C24.463 35.5316 24.4307 35.3699 24.4307 35.2067C24.4307 35.0434 24.463 34.8817 24.5258 34.731C24.5886 34.5803 24.6806 34.4435 24.7965 34.3285C24.9124 34.2136 25.0499 34.1227 25.2011 34.0611C25.3523 33.9995 25.5142 33.9685 25.6775 33.9698H29.0861C29.3701 33.9698 29.6513 33.9139 29.9136 33.8052C30.176 33.6966 30.4144 33.5373 30.6152 33.3365C30.816 33.1357 30.9752 32.8973 31.0839 32.635C31.1926 32.3726 31.2485 32.0914 31.2485 31.8074V31.7784C31.2485 31.1972 31.0176 30.6399 30.6067 30.2289C30.1957 29.8179 29.6383 29.587 29.0571 29.587H18.6992C17.8614 29.587 17.0395 29.8167 16.323 30.2511L5.01953 37.1042L15.0877 44.8001H31.4023C33.1017 44.8011 34.7406 44.1691 35.9994 43.0275L46.5667 33.4049C47.0294 33.0323 47.3893 32.5478 47.6126 31.9974C47.8358 31.4469 47.915 30.8486 47.8426 30.259Z" fill="#186756"/>
<path d="M16.4792 8.45833C16.4792 7.50729 14.3937 6.96875 14.0499 6.14375C13.6949 5.28437 14.7834 3.43958 14.1302 2.78646C13.4769 2.13333 11.6323 3.22187 10.7729 2.86667C9.94797 2.52292 9.40947 0.4375 8.45833 0.4375C7.5072 0.4375 6.96875 2.52292 6.14375 2.86667C5.28437 3.22187 3.43974 2.13333 2.78654 2.78646C2.13333 3.43958 3.22182 5.28437 2.86683 6.14375C2.523 6.96875 0.4375 7.50729 0.4375 8.45833C0.4375 9.40937 2.523 9.94792 2.8668 10.7729C3.22179 11.6323 2.13331 13.4771 2.78652 14.1303C3.43972 14.7834 5.28437 13.6948 6.14375 14.05C6.96875 14.3937 7.5072 16.4792 8.45833 16.4792C9.40947 16.4792 9.94797 14.3937 10.7729 14.05C11.6323 13.6948 13.4769 14.7833 14.1301 14.1302C14.7833 13.4771 13.6949 11.6323 14.0499 10.7729C14.3937 9.94792 16.4792 9.40937 16.4792 8.45833Z" fill="#186756"/>
<path d="M13.0417 15.448V21.2918C13.0413 21.496 12.9861 21.6965 12.882 21.8722C12.7778 22.0479 12.6284 22.1924 12.4493 22.2907C12.2703 22.389 12.0681 22.4375 11.864 22.4311C11.6598 22.4247 11.4611 22.3636 11.2885 22.2543L8.45833 20.4897L5.62813 22.2543C5.45559 22.3636 5.25688 22.4247 5.05271 22.4311C4.84855 22.4375 4.64641 22.389 4.46736 22.2907C4.2883 22.1924 4.1389 22.0479 4.03471 21.8722C3.93052 21.6965 3.87537 21.496 3.875 21.2918V15.448C4.1912 15.4084 4.50492 15.3511 4.81466 15.2762C5.10438 15.2033 5.39939 15.1535 5.69695 15.1272C5.86546 15.348 6.02225 15.5775 6.16667 15.8147C6.63664 16.5824 7.28958 17.6251 8.45833 17.6251C9.62708 17.6251 10.2803 16.5824 10.75 15.8147C10.8889 15.5766 11.0419 15.347 11.2082 15.1272C11.5104 15.1466 11.8098 15.1965 12.102 15.2762C12.4117 15.3511 12.7255 15.4084 13.0417 15.448Z" fill="#186756"/>
</svg>
