<svg width="54" height="54" viewBox="0 0 54 54" fill="none" xmlns="http://www.w3.org/2000/svg">
<path d="M40.0054 16.0834L38.1277 12.831C37.9079 12.452 37.5695 12.1559 37.1647 11.9885C36.7598 11.8212 36.3111 11.7918 35.8879 11.905L33.9755 12.4204C33.2014 11.8277 32.3532 11.3386 31.4524 10.9656L30.9426 9.05198C30.83 8.62828 30.5805 8.25365 30.2331 7.9863C29.8856 7.71896 29.4596 7.57388 29.0212 7.57361H25.2656C24.8276 7.57371 24.4018 7.71848 24.0546 7.98542C23.7073 8.25237 23.4579 8.62654 23.3452 9.0498L22.8344 10.9656C21.9336 11.3386 21.0854 11.8277 20.3112 12.4204L18.3987 11.905C17.9755 11.7918 17.5268 11.8211 17.122 11.9885C16.7171 12.1559 16.3787 12.452 16.1591 12.831L14.2813 16.0834C14.0627 16.463 13.9753 16.9042 14.0329 17.3384C14.0904 17.7727 14.2895 18.1759 14.5995 18.4855L15.9999 19.8826C15.867 20.8502 15.867 21.8314 15.9999 22.799L14.5995 24.1961C14.2895 24.5057 14.0904 24.9089 14.0329 25.3432C13.9753 25.7774 14.0627 26.2186 14.2813 26.5982L16.1591 29.8506C16.3788 30.2295 16.7172 30.5256 17.122 30.6929C17.5268 30.8603 17.9755 30.8897 18.3987 30.7766L20.3112 30.2613C21.0854 30.854 21.9336 31.343 22.8344 31.716L23.3442 33.6296C23.4568 34.0533 23.7062 34.4279 24.0537 34.6953C24.4011 34.9626 24.8272 35.1077 25.2656 35.108H29.0212C29.4591 35.1079 29.8848 34.9631 30.2321 34.6962C30.5793 34.4293 30.8287 34.0551 30.9414 33.6319L31.4524 31.716C32.3532 31.343 33.2014 30.854 33.9755 30.2613L35.8879 30.7766C36.3111 30.8899 36.7599 30.8606 37.1648 30.6932C37.5696 30.5258 37.908 30.2297 38.1277 29.8506L40.0054 26.5982C40.224 26.2185 40.3113 25.7774 40.2538 25.3432C40.1963 24.9089 39.9972 24.5057 39.6873 24.1961L38.2867 22.799C38.4196 21.8314 38.4196 20.8502 38.2867 19.8826L39.6873 18.4855C39.9972 18.1759 40.1963 17.7727 40.2538 17.3384C40.3113 16.9042 40.224 16.463 40.0054 16.0834ZM35.9966 20.0748C36.1236 20.9144 36.1236 21.7683 35.9966 22.6079C35.9507 22.916 35.9773 23.2305 36.0743 23.5265C36.1714 23.8224 36.3363 24.0916 36.5558 24.3126L37.9002 25.6543L36.2577 28.5L34.4158 28.0037C34.1168 27.923 33.8029 27.914 33.4998 27.9775C33.1967 28.041 32.9128 28.1751 32.6713 28.3689C32.0011 28.8962 31.2585 29.3242 30.4664 29.6399C30.179 29.7545 29.9221 29.9341 29.7159 30.1647C29.5097 30.3953 29.3597 30.6705 29.2777 30.9688L28.7858 32.8134H25.5009L25.009 30.9659C24.9264 30.668 24.776 30.3933 24.5696 30.1631C24.3632 29.933 24.1064 29.7537 23.8192 29.6394C23.0279 29.324 22.2861 28.8966 21.6165 28.3701C21.3746 28.176 21.0904 28.0416 20.787 27.978C20.4835 27.9143 20.1692 27.9231 19.8698 28.0037L18.029 28.5L16.3865 25.6543L17.7298 24.3137C17.9497 24.0925 18.1149 23.823 18.2122 23.5267C18.3094 23.2303 18.3361 22.9154 18.29 22.6069C18.163 21.7673 18.163 20.9133 18.29 20.0737C18.336 19.7656 18.3094 19.4511 18.2124 19.1551C18.1153 18.8592 17.9505 18.59 17.731 18.369L16.3865 17.0274L18.029 14.1816L19.871 14.6779C20.17 14.758 20.4837 14.7666 20.7867 14.7032C21.0897 14.6397 21.3735 14.506 21.6153 14.3127C22.2855 13.7854 23.0281 13.3574 23.8202 13.0417C24.1076 12.9271 24.3645 12.7475 24.5708 12.517C24.777 12.2864 24.927 12.0112 25.009 11.7129L25.5009 9.86816H28.7858L29.2777 11.7157C29.3603 12.0136 29.5106 12.2884 29.717 12.5185C29.9234 12.7486 30.1803 12.9279 30.4675 13.0422C31.2588 13.3576 32.0006 13.7851 32.6703 14.3115C32.9121 14.5056 33.1963 14.6399 33.4998 14.7036C33.8033 14.7672 34.1175 14.7584 34.4169 14.6779L36.2577 14.1816L37.9002 17.0274L36.5568 18.3679C36.3369 18.5891 36.1718 18.8586 36.0745 19.155C35.9773 19.4514 35.9506 19.7663 35.9966 20.0748Z" fill="white"/>
<path d="M27.1426 15.6046C26.008 15.6046 24.899 15.941 23.9556 16.5714C23.0123 17.2017 22.2771 18.0976 21.8429 19.1457C21.4087 20.1939 21.2951 21.3473 21.5165 22.46C21.7378 23.5728 22.2841 24.5949 23.0864 25.3971C23.8886 26.1994 24.9107 26.7457 26.0235 26.967C27.1362 27.1884 28.2896 27.0748 29.3378 26.6406C30.3859 26.2064 31.2818 25.4712 31.9121 24.5279C32.5425 23.5845 32.8789 22.4755 32.8789 21.3409C32.8771 19.8201 32.2721 18.3621 31.1968 17.2867C30.1214 16.2114 28.6634 15.6064 27.1426 15.6046ZM27.1426 24.7827C26.4619 24.7827 25.7964 24.5808 25.2304 24.2027C24.6644 23.8245 24.2233 23.2869 23.9628 22.658C23.7023 22.0291 23.6341 21.3371 23.7669 20.6695C23.8997 20.0018 24.2275 19.3886 24.7089 18.9072C25.1902 18.4259 25.8035 18.0981 26.4711 17.9653C27.1388 17.8325 27.8308 17.9007 28.4597 18.1612C29.0886 18.4217 29.6261 18.8628 30.0043 19.4288C30.3825 19.9948 30.5843 20.6602 30.5843 21.3409C30.5833 22.2534 30.2204 23.1283 29.5752 23.7735C28.9299 24.4188 28.0551 24.7817 27.1426 24.7827Z" fill="white"/>
<path d="M41.6792 6.24236C39.3909 4.18006 36.6886 2.63021 33.753 1.69649C30.8174 0.762772 27.7163 0.466715 24.6571 0.828126C20.3179 1.32317 16.2276 3.11117 12.9174 5.96005C9.60707 8.80892 7.2296 12.5871 6.09357 16.8042C4.95753 21.0212 5.1154 25.4824 6.54666 29.6086C7.97793 33.7348 10.6165 37.3355 14.1199 39.9432C14.9653 40.5859 15.6493 41.4166 16.1178 42.3696C16.5863 43.3226 16.8263 44.3717 16.8189 45.4335C16.8214 46.1603 17.0544 46.8675 17.4842 47.4534C17.9141 48.0393 18.5188 48.4738 19.2112 48.6944C19.4383 50.0264 20.1286 51.2355 21.1603 52.1082C22.1919 52.9809 23.4986 53.4612 24.8499 53.4644H29.439C30.7903 53.4612 32.0971 52.9808 33.1287 52.108C34.1603 51.2352 34.8506 50.0261 35.0777 48.694C35.774 48.4695 36.381 48.0294 36.811 47.4374C37.2409 46.8455 37.4717 46.1322 37.4699 45.4005C37.4656 44.3447 37.7068 43.3024 38.1744 42.3557C38.6421 41.4091 39.3233 40.5842 40.1644 39.946C42.897 37.9311 45.116 35.3002 46.6412 32.2669C48.1665 29.2337 48.955 25.8835 48.9427 22.4884C48.9406 19.4222 48.2928 16.3909 47.0413 13.5917C45.7898 10.7926 43.9628 8.28847 41.6792 6.24236ZM29.439 51.1699H24.8499C24.1382 51.169 23.4443 50.948 22.8632 50.5372C22.2821 50.1264 21.8423 49.5459 21.6041 48.8753H32.6848C32.4466 49.5459 32.0068 50.1264 31.4257 50.5372C30.8446 50.948 30.1506 51.169 29.439 51.1699ZM34.0281 46.5809H20.2608C20.1076 46.5798 19.9562 46.5482 19.8154 46.4881C19.6745 46.428 19.547 46.3405 19.4403 46.2306C19.3335 46.1208 19.2497 45.9909 19.1936 45.8484C19.1374 45.7059 19.1102 45.5536 19.1135 45.4005C19.1126 45.028 19.0892 44.656 19.0432 44.2863H35.2493C35.2012 44.6669 35.1765 45.05 35.1753 45.4335C35.175 45.7377 35.0541 46.0294 34.839 46.2445C34.6239 46.4596 34.3323 46.5806 34.0281 46.5809ZM38.7931 38.1063C37.4701 39.1039 36.4498 40.4489 35.8455 41.9918H18.4453C17.8381 40.4481 16.8157 39.1024 15.4913 38.1035C12.3573 35.771 9.99678 32.5503 8.71599 28.8594C7.4352 25.1686 7.2933 21.178 8.3087 17.4055C9.3241 13.633 11.4499 10.2528 14.4103 7.70352C17.3707 5.15423 21.029 3.55357 24.9104 3.10925C25.6611 3.02538 26.4159 2.98328 27.1713 2.98315C31.9644 2.96894 36.5909 4.74038 40.1488 7.95206C42.192 9.78288 43.8268 12.0235 44.9466 14.528C46.0664 17.0326 46.6462 19.7449 46.6482 22.4884C46.659 25.5259 45.9534 28.5232 44.5886 31.2368C43.2237 33.9505 41.2382 36.304 38.7931 38.1063Z" fill="white"/>
<path d="M47.7929 7.57369C47.9436 7.57389 48.0928 7.54429 48.232 7.48662C48.3712 7.42894 48.4976 7.34431 48.604 7.2376L53.1931 2.64862C53.4014 2.43208 53.5165 2.14248 53.5136 1.84204C53.5106 1.5416 53.39 1.25429 53.1775 1.04184C52.9651 0.82939 52.6777 0.708759 52.3773 0.705864C52.0769 0.702969 51.7873 0.81804 51.5707 1.02635L46.9818 5.61534C46.825 5.77714 46.7189 5.98128 46.6767 6.2026C46.6345 6.42392 46.6579 6.65275 46.7441 6.86091C46.8304 7.06907 46.9756 7.24747 47.1619 7.37412C47.3483 7.50077 47.5676 7.57014 47.7929 7.57369Z" fill="white"/>
<path d="M5.68142 7.23629C5.89795 7.4445 6.18751 7.55947 6.48789 7.55653C6.78826 7.55358 7.07551 7.43295 7.28792 7.22053C7.50033 7.00812 7.62096 6.72088 7.62391 6.4205C7.62686 6.12012 7.51188 5.83057 7.30368 5.61403L2.71469 1.02493C2.49941 0.81045 2.20783 0.690148 1.90394 0.69043C1.60006 0.690712 1.3087 0.811555 1.09382 1.02644C0.878938 1.24132 0.758095 1.53267 0.757813 1.83656C0.757531 2.14045 0.877833 2.43203 1.09231 2.64731L5.68142 7.23629Z" fill="white"/>
<path d="M5.68288 38.8859L1.09378 43.475C0.987258 43.5816 0.902764 43.708 0.845119 43.8472C0.787474 43.9864 0.757807 44.1356 0.757813 44.2862C0.757818 44.4369 0.787495 44.586 0.84515 44.7252C0.902805 44.8644 0.987308 44.9908 1.09383 45.0974C1.20036 45.2039 1.32683 45.2884 1.46601 45.346C1.60519 45.4037 1.75436 45.4333 1.90501 45.4333C2.05565 45.4333 2.20482 45.4036 2.344 45.346C2.48318 45.2883 2.60963 45.2038 2.71615 45.0973L7.30526 40.5083C7.51297 40.2917 7.62753 40.0023 7.62437 39.7021C7.62121 39.402 7.50058 39.1151 7.28835 38.9029C7.07612 38.6906 6.78919 38.57 6.48906 38.5668C6.18894 38.5637 5.89953 38.6782 5.68288 38.8859Z" fill="white"/>
<path d="M48.6069 38.8859C48.3903 38.6776 48.1007 38.5626 47.8003 38.5655C47.4998 38.5684 47.2125 38.6891 47.0001 38.9015C46.7876 39.114 46.667 39.4013 46.6641 39.7017C46.6612 40.0022 46.7763 40.2918 46.9846 40.5083L51.5737 45.0973C51.6801 45.2042 51.8066 45.289 51.9459 45.347C52.0852 45.405 52.2345 45.4349 52.3854 45.4351C52.5362 45.4352 52.6856 45.4056 52.825 45.348C52.9644 45.2903 53.0911 45.2057 53.1978 45.0991C53.3044 44.9924 53.389 44.8657 53.4467 44.7263C53.5043 44.5869 53.5339 44.4375 53.5337 44.2867C53.5336 44.1358 53.5037 43.9865 53.4457 43.8472C53.3877 43.7079 53.3029 43.5815 53.196 43.475L48.6069 38.8859Z" fill="white"/>
</svg>
