<svg width="58" height="58" viewBox="0 0 58 58" fill="none" xmlns="http://www.w3.org/2000/svg">
<g clip-path="url(#clip0_4125_3962)">
<path d="M57.9111 42.4646L54.8934 28.3377C54.7175 27.5197 53.9084 26.9931 53.0893 27.1634C53.0871 27.1634 53.086 27.1645 53.0837 27.1645L46.8949 28.489L43.0379 29.3115C37.5226 26.0697 31.4492 25.1699 24.4838 26.5605C24.4782 26.5617 24.4737 26.5617 24.4681 26.5628C21.9614 27.0782 19.5747 27.8268 17.2652 28.5506C16.5133 28.786 15.7984 29.0101 15.0824 29.2263L11.6243 28.489C11.6243 28.489 11.6243 28.489 11.6232 28.489L5.43774 27.1645C5.4355 27.1645 5.43326 27.1634 5.43102 27.1634C4.60517 26.9931 3.79613 27.5242 3.62804 28.34L0.60815 42.4635C0.432223 43.2848 0.957763 44.0972 1.78249 44.2743L7.96571 45.5954C7.97019 45.5965 7.97355 45.5965 7.97804 45.5976L8.57977 45.7288C8.61227 45.7355 8.64477 45.7411 8.67726 45.7444C9.66223 45.8475 10.6618 46.0515 11.7106 46.3607V46.3652C11.6591 47.1922 11.9314 47.9867 12.4748 48.603C13.0194 49.2215 13.7747 49.5902 14.6016 49.6417C14.6677 49.6462 14.7339 49.6484 14.8 49.6484C15.2527 49.6484 15.6919 49.5498 16.0931 49.3627C16.2074 49.8333 16.4337 50.2838 16.7755 50.6715C17.319 51.2889 18.0742 51.6576 18.9001 51.7103C18.9673 51.7147 19.0334 51.717 19.0995 51.717C19.8313 51.717 20.5282 51.4604 21.0885 50.9875C21.2118 51.4077 21.4258 51.8089 21.734 52.1585C22.2786 52.777 23.0338 53.1457 23.8608 53.1972C23.9269 53.2017 23.993 53.204 24.0591 53.204C24.8132 53.204 25.5315 52.9339 26.0985 52.433L26.5804 52.0083C26.7036 52.4274 26.9165 52.8275 27.2236 53.1771C27.8343 53.8673 28.687 54.2203 29.5453 54.2203C30.2737 54.2203 31.0043 53.9659 31.5915 53.4482L32.3893 52.7423C32.4711 52.6706 32.5473 52.5955 32.6201 52.5171C36.439 51.9164 40.4853 50.0395 44.9698 46.791L50.5513 45.5976H50.5524L56.7401 44.2765C57.5626 44.0972 58.0881 43.2848 57.9111 42.4646ZM42.4172 31.0271C42.6121 31.1459 42.8452 31.184 43.0682 31.1369L45.7811 30.5587L48.6867 44.1622L44.9519 44.96C42.583 42.1318 39.4118 40.5361 36.3404 38.9897C32.7793 37.198 29.4165 35.5059 27.609 32.0546C27.4768 31.8025 27.2325 31.6277 26.9513 31.5851C26.67 31.5425 26.3843 31.6355 26.1826 31.8361C23.9325 34.0817 20.9843 35.1586 19.2351 35.0588C18.7466 35.0308 18.5236 34.9154 18.4664 34.8639C18.4664 34.7327 18.6446 34.2554 19.4884 33.4755L25.0755 28.2694C31.6094 27.0144 37.285 27.9175 42.4172 31.0271ZM5.32456 28.972L10.989 30.1844L8.08337 43.7879L2.4156 42.5766L5.32456 28.972ZM9.84936 44.095L12.7415 30.5587L14.9333 31.026C14.9949 31.0394 15.0577 31.0461 15.1205 31.0461C15.2067 31.0461 15.293 31.0338 15.3771 31.0091C16.1794 30.7693 17.0041 30.5105 17.8019 30.2606C19.0177 29.8796 20.2571 29.4919 21.5177 29.1378L18.2703 32.1644C17.0232 33.3175 16.5032 34.3708 16.7251 35.2964C16.8192 35.6897 17.1419 36.3968 18.2423 36.7083C20.1484 37.2473 23.7218 36.2982 26.6028 33.88C28.7554 37.1823 32.1966 38.9135 35.5347 40.5921C38.3137 41.9906 41.1789 43.4327 43.2945 45.7859C39.7256 48.2892 36.4793 49.8535 33.4348 50.537C33.465 49.7392 33.1961 48.9739 32.6672 48.3744C31.9814 47.599 30.9886 47.2493 30.0283 47.3479C29.9835 46.6924 29.7325 46.047 29.2663 45.517C28.1536 44.2541 26.233 44.1185 24.9522 45.1976C24.8267 44.7707 24.6093 44.3729 24.3068 44.0289C23.3812 42.9823 21.8987 42.7122 20.6896 43.2691C20.5731 42.7895 20.3411 42.3424 20.0061 41.9614C18.8754 40.6829 16.9178 40.5619 15.6426 41.6891L12.7494 44.2395C12.597 44.374 12.4591 44.5208 12.3381 44.6799C11.4865 44.4211 10.6618 44.2272 9.84936 44.095ZM15.6538 47.5328C15.3961 47.7603 15.0622 47.8746 14.7137 47.8522C14.3652 47.8309 14.047 47.6763 13.8184 47.4163C13.5909 47.1586 13.4766 46.8246 13.499 46.4762C13.5203 46.1277 13.6749 45.8094 13.9338 45.582L16.8282 43.0305C17.0747 42.8131 17.3806 42.7066 17.6865 42.7066C18.0473 42.7066 18.4059 42.8556 18.6625 43.1459C18.8911 43.4058 19.0054 43.7409 18.983 44.0894C18.9606 44.4379 18.8071 44.7539 18.5482 44.9825L18.0709 45.4027L17.0478 46.3047C17.0467 46.3047 17.0467 46.3058 17.0456 46.3058L15.6538 47.5328C15.655 47.5328 15.655 47.5317 15.6538 47.5328ZM19.0133 49.9207C18.6648 49.8983 18.3488 49.7448 18.1213 49.486C17.6473 48.9481 17.6977 48.1234 18.2334 47.6483L19.7349 46.3249L19.736 46.3238L21.1255 45.099C21.3731 44.8805 21.6813 44.774 21.9872 44.774C22.348 44.774 22.7077 44.9231 22.9643 45.2133C23.1929 45.4721 23.3061 45.8083 23.2837 46.1579C23.2613 46.5053 23.1066 46.8224 22.8467 47.0499L19.9568 49.6003C19.6968 49.8277 19.3617 49.9409 19.0133 49.9207ZM24.9141 51.0861C24.6552 51.3147 24.3213 51.4279 23.9728 51.4066C23.6243 51.3853 23.3061 51.2307 23.0786 50.9718C22.6035 50.4328 22.6551 49.6081 23.1929 49.133L26.0862 46.5826C26.3327 46.3652 26.6397 46.2588 26.9445 46.2588C27.3054 46.2588 27.6651 46.4078 27.9217 46.6991C28.3957 47.237 28.343 48.0606 27.804 48.5357L24.9141 51.0861ZM30.4059 52.1025C29.8669 52.5776 29.0411 52.526 28.5682 51.9904C28.0942 51.4503 28.1458 50.6244 28.6836 50.1505L29.4837 49.4456C29.7314 49.2271 30.0395 49.1207 30.3454 49.1207C30.7062 49.1207 31.0659 49.2697 31.3225 49.5599C31.5511 49.8188 31.6643 50.1549 31.6419 50.5046C31.6195 50.8519 31.4649 51.169 31.2038 51.3976L30.4059 52.1025ZM50.4381 43.7879L47.5325 30.1844L53.1969 28.972L56.1036 42.5777L50.4381 43.7879ZM31.0839 16.6974C31.3943 16.6974 31.7024 16.6638 32.0016 16.5977V19.4697C32.0016 20.2731 32.656 20.9275 33.4594 20.9275H37.6559C37.9831 20.9275 38.2845 20.7493 38.4414 20.4614C38.5983 20.1745 38.586 19.8238 38.4101 19.5481C38.1579 19.1537 38.0246 18.6943 38.0246 18.2203C38.0246 16.8543 39.1362 15.7427 40.5021 15.7427C41.8681 15.7427 42.9797 16.8543 42.9797 18.2203C42.9797 18.6943 42.8463 19.1537 42.5942 19.5481C42.4172 19.8238 42.4059 20.1734 42.5628 20.4614C42.7197 20.7482 43.0211 20.9275 43.3483 20.9275H47.5415C48.3471 20.9275 49.0027 20.2731 49.0027 19.4697V5.38991C49.0027 4.58424 48.3471 3.92871 47.5415 3.92871H33.4606C32.6571 3.92871 32.0027 4.58424 32.0027 5.38991V8.25965C31.7035 8.19354 31.3954 8.15992 31.085 8.15992C28.7307 8.15992 26.8157 10.075 26.8157 12.4292C26.8157 14.7824 28.7307 16.6974 31.0839 16.6974ZM31.0839 9.95057C31.5579 9.95057 32.0184 10.085 32.4128 10.3394C32.6885 10.5164 33.0392 10.5288 33.3261 10.3719C33.6141 10.215 33.7922 9.91359 33.7922 9.58527V5.71936H47.2109V19.1369H44.6728C44.7378 18.8388 44.7714 18.5318 44.7714 18.2225C44.7714 15.8682 42.8564 13.9532 40.5021 13.9532C38.1478 13.9532 36.2328 15.8682 36.2328 18.2225C36.2328 18.5329 36.2664 18.8388 36.3314 19.1369H33.7934V15.2743C33.7934 14.9471 33.6152 14.6468 33.3283 14.4888C33.0415 14.3308 32.6919 14.3431 32.4162 14.5179C32.0184 14.7712 31.5567 14.9057 31.0839 14.9057C29.7179 14.9057 28.6063 13.7941 28.6063 12.4281C28.6063 11.0622 29.7179 9.95057 31.0839 9.95057ZM10.9778 20.9286H13.8497C13.7836 21.2278 13.75 21.536 13.75 21.8464C13.75 24.2007 15.665 26.1157 18.0193 26.1157C20.3736 26.1157 22.2886 24.2007 22.2886 21.8464C22.2886 21.536 22.255 21.2278 22.1889 20.9286H25.0575C25.8632 20.9286 26.5187 20.2742 26.5187 19.4708V15.2743C26.5187 14.9471 26.3406 14.6468 26.0537 14.4888C25.7668 14.3308 25.4172 14.3431 25.1416 14.5179C24.7438 14.7712 24.2821 14.9057 23.8081 14.9057C22.4433 14.9057 21.3339 13.7941 21.3339 12.4281C21.3339 11.0622 22.4444 9.95057 23.8081 9.95057C24.2821 9.95057 24.7427 10.085 25.1382 10.3394C25.4139 10.5164 25.7646 10.5288 26.0515 10.3719C26.3394 10.215 26.5176 9.91359 26.5176 9.58527V5.38991C26.5176 4.58424 25.8621 3.92871 25.0564 3.92871H10.9778C10.1743 3.92871 9.51992 4.58424 9.51992 5.38991V19.4708C9.51992 20.2742 10.1743 20.9286 10.9778 20.9286ZM11.3117 5.71936H24.7292V8.25853C24.43 8.19242 24.1219 8.1588 23.8115 8.1588C21.4594 8.1588 19.5455 10.0738 19.5455 12.4281C19.5455 14.7824 21.4594 16.6974 23.8115 16.6974C24.1219 16.6974 24.43 16.6638 24.7292 16.5977V19.1369H20.8667C20.5395 19.1369 20.2391 19.315 20.0811 19.6019C19.9231 19.8888 19.9355 20.2384 20.1103 20.514C20.3635 20.9118 20.498 21.3735 20.498 21.8464C20.498 23.2123 19.3864 24.3239 18.0204 24.3239C16.6545 24.3239 15.5429 23.2123 15.5429 21.8464C15.5429 21.3724 15.6762 20.9118 15.9306 20.514C16.1065 20.2384 16.1177 19.8888 15.9597 19.6019C15.8017 19.315 15.5014 19.1369 15.1742 19.1369H11.3117V5.71936Z" fill="white"/>
</g>
<defs>
<clipPath id="clip0_4125_3962">
<rect width="57.3724" height="57.3724" fill="white" transform="translate(0.574219 0.386719)"/>
</clipPath>
</defs>
</svg>
