<svg width="58" height="58" viewBox="0 0 58 58" fill="none" xmlns="http://www.w3.org/2000/svg">
<g clip-path="url(#clip0_4125_3935)">
<path d="M51.3531 9.71716C49.3117 9.71716 47.6517 11.3772 47.6517 13.4186V25.1279L45.7251 27.5796C45.4345 26.3587 44.3343 25.4483 43.0249 25.4483H42.9038C42.1366 25.4483 41.3974 25.7705 40.8742 26.3303L29.4639 38.5561C29.3433 38.6848 29.248 38.8299 29.1445 38.9695C29.041 38.8299 28.9457 38.6848 28.825 38.5561L17.4148 26.3303C16.8916 25.7705 16.1524 25.4483 15.3852 25.4483H15.2641C13.9546 25.4483 12.8544 26.3587 12.5639 27.5805L10.6373 25.1279V13.4186C10.6373 11.3772 8.97722 9.71716 6.93582 9.71716C4.89442 9.71716 3.23438 11.3772 3.23438 13.4186V29.1497C3.23438 29.3043 3.27323 29.457 3.34733 29.593L8.8995 39.772C8.94197 39.8488 8.99574 39.9211 9.05764 39.983L16.3024 47.2277C16.8188 47.7442 17.1148 48.4594 17.1148 49.1905V56.9106C17.1148 57.4211 17.5296 57.8359 18.0402 57.8359H40.2488C40.7594 57.8359 41.1742 57.4211 41.1742 56.9106V49.1905C41.1742 48.4594 41.4701 47.7451 41.9866 47.2277L49.2313 39.983C49.2932 39.9211 49.347 39.8488 49.3895 39.772L54.9416 29.593C55.0157 29.457 55.0546 29.3043 55.0546 29.1497V13.4186C55.0546 11.3772 53.3945 9.71716 51.3531 9.71716ZM17.6109 45.9192L10.4606 38.7689L5.0851 28.9139V13.4186C5.0851 12.3979 5.91512 11.5679 6.93582 11.5679C7.95652 11.5679 8.78654 12.3979 8.78654 13.4186V25.4483C8.78654 25.6557 8.85612 25.8563 8.98445 26.0203L19.1634 38.9754L20.6183 37.8322L14.3387 29.8392V28.2244C14.3387 27.7147 14.7544 27.299 15.2641 27.299H15.3852C15.6409 27.299 15.8867 27.4066 16.0616 27.5923L27.4731 39.8181C27.9534 40.3345 28.2191 41.0073 28.2191 41.7135V52.2838H18.9655V49.1905C18.9655 47.9538 18.4843 46.7926 17.6109 45.9192ZM18.9655 54.1345H28.2191V55.9852H18.9655V54.1345ZM30.0698 55.9852V54.1345H39.3235V55.9852H30.0698ZM53.2039 28.9139L47.8284 38.768L40.6781 45.9183C39.8047 46.7926 39.3235 47.9538 39.3235 49.1905V52.2838H30.0698V41.7135C30.0698 41.0073 30.3355 40.3345 30.8167 39.819L42.2283 27.5932C42.4023 27.4066 42.6481 27.299 42.9038 27.299H43.0249C43.5346 27.299 43.9503 27.7147 43.9503 28.2244V29.8392L37.6706 37.8313L39.1255 38.9745L49.3045 26.0194C49.4328 25.8563 49.5024 25.6557 49.5024 25.4483V13.4186C49.5024 12.3979 50.3324 11.5679 51.3531 11.5679C52.3738 11.5679 53.2039 12.3979 53.2039 13.4186V28.9139Z" fill="white"/>
<path d="M29.1495 30.0752C37.3129 30.0752 43.9553 23.4327 43.9553 15.2694C43.9553 7.10607 37.3129 0.463623 29.1495 0.463623C20.9862 0.463623 14.3438 7.10607 14.3438 15.2694C14.3438 23.4327 20.9862 30.0752 29.1495 30.0752ZM29.1495 28.2245C22.4267 28.2245 16.8867 23.0758 16.2573 16.5151L18.4284 14.344H19.8959C20.1413 14.344 20.3771 14.2469 20.5502 14.0729L22.1298 12.4933H23.5974C23.8427 12.4933 24.0786 12.3962 24.2516 12.2222L27.9531 8.52077C28.127 8.34772 28.2242 8.11186 28.2242 7.86651V6.39895L29.8038 4.81933C29.9777 4.64627 30.0749 4.41041 30.0749 4.16507V2.36134C31.7218 2.47927 33.2811 2.9049 34.7017 3.5822V5.63263L33.1221 7.21225C32.9481 7.38531 32.851 7.62116 32.851 7.86651V9.33408L31.2714 10.9137C31.0974 11.0868 31.0002 11.3226 31.0002 11.568V13.4187C31.0002 13.664 31.0974 13.8999 31.2714 14.0729L32.851 15.6526V17.1201C32.851 17.3655 32.9481 17.6013 33.1221 17.7744L34.9728 19.6251C35.1458 19.7991 35.3817 19.8962 35.6271 19.8962H37.0946L39.8106 22.6122C37.4715 25.9983 33.5671 28.2245 29.1495 28.2245ZM42.1046 15.2694C42.1046 17.3108 41.6171 19.2365 40.7721 20.9567L38.132 18.3166C37.959 18.1426 37.7231 18.0455 37.4778 18.0455H36.0102L34.7017 16.737V15.2694C34.7017 15.0241 34.6045 14.7882 34.4306 14.6151L32.851 13.0355V11.9511L34.4306 10.3715C34.6045 10.1984 34.7017 9.96258 34.7017 9.71723V8.24967L36.2813 6.67005C36.4553 6.49699 36.5524 6.26114 36.5524 6.01579V4.6526C39.9041 6.99673 42.1046 10.8785 42.1046 15.2694ZM28.2242 2.36134V3.78191L26.6445 5.36153C26.4706 5.53458 26.3734 5.77044 26.3734 6.01579V7.48335L23.2142 10.6426H21.7466C21.5013 10.6426 21.2654 10.7397 21.0924 10.9137L19.5128 12.4933H18.0452C17.7998 12.4933 17.564 12.5905 17.3909 12.7644L16.2713 13.8841C16.9319 7.69436 21.9726 2.80685 28.2242 2.36134Z" fill="white"/>
<path d="M30.995 19.513V17.1201C30.995 16.8747 30.8978 16.6389 30.7239 16.4658L28.8731 14.6151C28.7001 14.4411 28.4642 14.344 28.2189 14.344H26.3682C26.1228 14.344 25.8869 14.4411 25.7139 14.6151L24.1343 16.1947H20.816C20.3054 16.1947 19.8906 16.6095 19.8906 17.1201V21.7469C19.8906 22.2575 20.3054 22.6722 20.816 22.6722H22.2836L23.8632 24.2519C24.0362 24.4258 24.2721 24.523 24.5174 24.523H25.985L27.5646 26.1026C27.7377 26.2765 27.9735 26.3737 28.2189 26.3737H30.0696C30.3149 26.3737 30.5508 26.2765 30.7239 26.1026L32.5746 24.2519C32.7485 24.0788 32.8457 23.843 32.8457 23.5976V21.7469C32.8457 21.5015 32.7485 21.2657 32.5746 21.0926L30.995 19.513ZM30.995 23.2144L29.6864 24.523H28.602L27.0224 22.9433C26.8494 22.7694 26.6135 22.6722 26.3682 22.6722H24.9006L23.321 21.0926C23.1479 20.9187 22.9121 20.8215 22.6667 20.8215H21.7413V18.0454H24.5174C24.7628 18.0454 24.9986 17.9483 25.1717 17.7743L26.7513 16.1947H27.8357L29.1442 17.5032V19.8962C29.1442 20.1415 29.2414 20.3774 29.4153 20.5504L30.995 22.13V23.2144Z" fill="white"/>
</g>
<defs>
<clipPath id="clip0_4125_3935">
<rect width="57.3724" height="57.3724" fill="white" transform="translate(0.460938 0.463623)"/>
</clipPath>
</defs>
</svg>
