<svg width="34" height="33" viewBox="0 0 34 33" fill="none" xmlns="http://www.w3.org/2000/svg">
<path d="M25.7236 17.6696C25.5169 19.673 24.6292 21.5447 23.2088 22.9724C21.7883 24.4001 19.921 25.2972 17.9188 25.514C17.8785 25.5136 17.8385 25.5211 17.8011 25.5363C17.7638 25.5516 17.7298 25.5741 17.7013 25.6026C17.6728 25.6311 17.6503 25.665 17.6351 25.7024C17.6199 25.7397 17.6123 25.7797 17.6128 25.82V32.3684C17.6128 32.5308 17.5483 32.6864 17.4335 32.8012C17.3188 32.916 17.1631 32.9804 17.0008 32.9804C16.8385 32.9804 16.6828 32.916 16.568 32.8012C16.4533 32.6864 16.3888 32.5308 16.3888 32.3684V29.9924C16.3829 29.9132 16.3488 29.8387 16.2927 29.7826C16.2365 29.7264 16.162 29.6923 16.0828 29.6864C13.3609 29.4662 10.779 28.3879 8.70889 26.607C6.63874 24.826 5.18706 22.4341 4.56278 19.7756C4.53954 19.6969 4.5324 19.6142 4.54176 19.5326C4.55113 19.4511 4.57683 19.3722 4.61731 19.3007C4.6578 19.2293 4.71225 19.1667 4.77743 19.1168C4.8426 19.0668 4.91717 19.0305 4.99668 19.0099C5.07619 18.9894 5.15903 18.985 5.24025 18.9972C5.32147 19.0093 5.39941 19.0377 5.46944 19.0806C5.53947 19.1235 5.60015 19.18 5.64787 19.2469C5.69558 19.3137 5.72936 19.3895 5.74718 19.4696C6.30218 21.856 7.59629 24.0062 9.44507 25.6138C11.2938 27.2215 13.6029 28.2045 16.0432 28.4228C16.1224 28.4624 16.198 28.4228 16.2736 28.3472C16.3135 28.3247 16.3459 28.2907 16.3664 28.2496C16.3869 28.2086 16.3947 28.1623 16.3888 28.1168V25.82C16.3893 25.7797 16.3817 25.7397 16.3665 25.7024C16.3513 25.665 16.3287 25.6311 16.3002 25.6026C16.2717 25.5741 16.2378 25.5516 16.2005 25.5363C16.1631 25.5211 16.1231 25.5136 16.0828 25.514C14.0901 25.292 12.2306 24.4041 10.8052 22.994C9.38008 21.5618 8.4904 19.6833 8.28518 17.6732C8.27351 17.5997 8.23657 17.5325 8.18073 17.4832C8.12488 17.4339 8.05362 17.4057 7.97918 17.4032H1.43078C1.26369 17.4032 1.10345 17.3369 0.985304 17.2187C0.867156 17.1006 0.800781 16.9403 0.800781 16.7732C0.800781 16.6062 0.867156 16.4459 0.985304 16.3278C1.10345 16.2096 1.26369 16.1432 1.43078 16.1432H3.91838C3.99261 16.1401 4.06352 16.1116 4.11923 16.0625C4.17494 16.0133 4.21206 15.9465 4.22438 15.8732C4.38774 13.1554 5.39757 10.5568 7.11229 8.44179C8.82701 6.32679 11.1606 4.80146 13.786 4.07964C13.945 4.04946 14.1095 4.08126 14.2458 4.16851C14.382 4.25576 14.4798 4.39186 14.5189 4.54888C14.5581 4.7059 14.5356 4.87194 14.4563 5.01296C14.3769 5.15397 14.2465 5.25926 14.092 5.30724C11.7432 5.9406 9.65085 7.29162 8.10705 9.17167C6.56326 11.0517 5.6451 13.3669 5.48078 15.794C5.47063 15.8388 5.47103 15.8852 5.48196 15.9297C5.49289 15.9743 5.51404 16.0156 5.54373 16.0506C5.57343 16.0855 5.61085 16.1131 5.65304 16.131C5.69523 16.149 5.74102 16.1569 5.78678 16.154H7.96478C8.03922 16.1516 8.11048 16.1233 8.16633 16.0741C8.22217 16.0248 8.25911 15.9576 8.27078 15.884C8.47464 13.877 9.36199 12.0011 10.7842 10.5703C12.2064 9.13962 14.077 8.24108 16.0828 8.02524C16.1231 8.02572 16.1631 8.01814 16.2005 8.00293C16.2378 7.98772 16.2717 7.9652 16.3002 7.93669C16.3287 7.90818 16.3513 7.87425 16.3665 7.83691C16.3817 7.79956 16.3893 7.75956 16.3888 7.71924V1.17084C16.3888 1.00853 16.4533 0.852861 16.568 0.738089C16.6828 0.623316 16.8385 0.558838 17.0008 0.558838C17.1631 0.558838 17.3188 0.623316 17.4335 0.738089C17.5483 0.852861 17.6128 1.00853 17.6128 1.17084V8.59764C17.6169 8.6843 17.6028 8.77086 17.5716 8.85178C17.5403 8.93269 17.4924 9.00618 17.4311 9.06752C17.3697 9.12887 17.2962 9.17672 17.2153 9.20801C17.1344 9.23931 17.0478 9.25335 16.9612 9.24924C10.3048 9.24924 6.97838 17.3996 11.6836 22.1084C16.3888 26.8172 24.4204 23.4476 24.5356 16.7696C24.5346 16.689 24.5498 16.609 24.5802 16.5343C24.6106 16.4596 24.6557 16.3918 24.7127 16.3347C24.7697 16.2777 24.8376 16.2327 24.9122 16.2023C24.9869 16.1718 25.0669 16.1567 25.1476 16.1576H32.5708C32.7379 16.1576 32.8981 16.224 33.0163 16.3422C33.1344 16.4603 33.2008 16.6206 33.2008 16.7876C33.2008 16.9547 33.1344 17.115 33.0163 17.2331C32.8981 17.3513 32.7379 17.4176 32.5708 17.4176H30.1228C30.0468 17.4146 29.9726 17.441 29.9156 17.4912C29.8586 17.5415 29.8232 17.6119 29.8168 17.6876C29.6181 20.4225 28.5605 23.0246 26.7948 25.1225C25.0292 27.2204 22.6459 28.7069 19.9852 29.3696C19.1824 29.5604 18.9052 28.3364 19.7152 28.1456C22.0913 27.5548 24.2223 26.2335 25.8078 24.3676C27.3933 22.5018 28.3535 20.1856 28.5532 17.7452C28.5633 17.7005 28.5629 17.6541 28.552 17.6095C28.5411 17.565 28.5199 17.5236 28.4902 17.4887C28.4605 17.4538 28.4231 17.4262 28.3809 17.4083C28.3387 17.3903 28.2929 17.3824 28.2472 17.3852H26.0296C25.9551 17.3877 25.8839 17.4159 25.828 17.4652C25.7722 17.5145 25.7353 17.5817 25.7236 17.6552V17.6696ZM30.6808 7.48884L26.2564 11.888C26.1483 12.0054 25.9982 12.0753 25.8388 12.0824H22.8904C22.8099 12.0895 22.7322 12.1154 22.6636 12.158L17.422 17.4392C17.3041 17.5494 17.1481 17.6095 16.9869 17.6069C16.8256 17.6043 16.6716 17.5393 16.5573 17.4254C16.443 17.3116 16.3774 17.1579 16.3741 16.9966C16.3709 16.8354 16.4303 16.6791 16.54 16.5608L21.7816 11.276C21.8168 11.2584 21.8464 11.2311 21.8668 11.1973C21.8872 11.1635 21.8976 11.1247 21.8968 11.0852V8.12964C21.896 8.04449 21.9126 7.96008 21.9454 7.8815C21.9781 7.80292 22.0265 7.7318 22.0876 7.67244L26.4868 3.27684C26.5717 3.185 26.6824 3.12087 26.8043 3.09281C26.9262 3.06475 27.0537 3.07405 27.1703 3.11951C27.2868 3.16496 27.387 3.24446 27.4577 3.34765C27.5284 3.45084 27.5664 3.57294 27.5668 3.69804V6.11004C27.5719 6.18952 27.6057 6.26444 27.6621 6.32076C27.7184 6.37708 27.7933 6.41095 27.8728 6.41604H30.2452C30.3717 6.41272 30.4963 6.4476 30.6028 6.51613C30.7092 6.58465 30.7925 6.68365 30.8418 6.80022C30.8912 6.91679 30.9043 7.04552 30.8794 7.16964C30.8545 7.29375 30.7928 7.40749 30.7024 7.49604L30.6808 7.48884ZM25.6408 10.7288L28.204 8.16564C28.2485 8.12449 28.28 8.07118 28.2945 8.01231C28.309 7.95344 28.3059 7.8916 28.2856 7.83448C28.2653 7.77735 28.2286 7.72745 28.1802 7.69097C28.1318 7.65448 28.0737 7.63302 28.0132 7.62924H26.9332C26.766 7.63315 26.604 7.57117 26.4821 7.45667C26.3602 7.34218 26.2881 7.18435 26.2816 7.01724V5.96964C26.2813 5.90764 26.2628 5.84709 26.2284 5.79549C26.194 5.7439 26.1453 5.70353 26.0882 5.67938C26.0311 5.65524 25.9681 5.64838 25.9071 5.65966C25.8462 5.67094 25.7899 5.69986 25.7452 5.74284L23.2252 8.30604C23.1579 8.36465 23.1165 8.44745 23.11 8.53644V10.5272C23.1095 10.5676 23.1171 10.6076 23.1323 10.6449C23.1475 10.6823 23.17 10.7162 23.1985 10.7447C23.227 10.7732 23.261 10.7957 23.2983 10.8109C23.3357 10.8261 23.3757 10.8337 23.416 10.8332H25.4428C25.522 10.8332 25.5976 10.8332 25.6336 10.754L25.6408 10.7288ZM22.1992 16.7768C22.2006 17.8062 21.8966 18.8128 21.3257 19.6692C20.7548 20.5257 19.9427 21.1936 18.9921 21.5883C18.0414 21.9831 16.9951 22.0869 15.9854 21.8867C14.9758 21.6865 14.0482 21.1913 13.3201 20.4637C12.592 19.7361 12.0961 18.8089 11.8952 17.7993C11.6943 16.7898 11.7974 15.7434 12.1915 14.7925C12.5856 13.8416 13.2529 13.029 14.109 12.4575C14.9651 11.886 15.9715 11.5813 17.0008 11.582C17.1555 11.5939 17.2999 11.6637 17.4054 11.7775C17.5108 11.8913 17.5693 12.0407 17.5693 12.1958C17.5693 12.351 17.5108 12.5004 17.4054 12.6142C17.2999 12.728 17.1555 12.7978 17.0008 12.8096C15.9505 12.8096 14.9433 13.2269 14.2006 13.9695C13.458 14.7121 13.0408 15.7194 13.0408 16.7696C13.0408 17.8199 13.458 18.8271 14.2006 19.5698C14.9433 20.3124 15.9505 20.7296 17.0008 20.7296C19.2976 20.7296 20.8276 19.0088 20.9392 16.7696C20.9356 16.6828 20.9499 16.5961 20.9812 16.515C21.0126 16.434 21.0603 16.3602 21.1213 16.2983C21.1824 16.2365 21.2556 16.1878 21.3362 16.1554C21.4169 16.1231 21.5034 16.1076 21.5903 16.1101C21.6772 16.1126 21.7626 16.1329 21.8413 16.1698C21.92 16.2068 21.9903 16.2595 22.0477 16.3247C22.1052 16.39 22.1486 16.4663 22.1753 16.5491C22.202 16.6318 22.2113 16.7191 22.2028 16.8056L22.1992 16.7768Z" fill="#262626"/>
</svg>
