<svg width="32" height="33" viewBox="0 0 32 33" fill="none" xmlns="http://www.w3.org/2000/svg">
<path d="M31.4667 16.2362H30.3845C30.2458 12.6068 28.742 9.16354 26.1739 6.59513C23.6058 4.02673 20.1627 2.52253 16.5333 2.3834V1.30286C16.5333 1.16142 16.4771 1.02576 16.3771 0.925741C16.2771 0.825722 16.1414 0.769531 16 0.769531C15.8586 0.769531 15.7229 0.825722 15.6229 0.925741C15.5229 1.02576 15.4667 1.16142 15.4667 1.30286V2.38286C11.8365 2.5212 8.39245 4.02509 5.82348 6.59366C3.25451 9.16223 1.7501 12.6061 1.6112 16.2362H0.533333C0.391885 16.2362 0.256229 16.2924 0.15621 16.3924C0.0561903 16.4924 0 16.6281 0 16.7695C0 16.911 0.0561903 17.0466 0.15621 17.1467C0.256229 17.2467 0.391885 17.3029 0.533333 17.3029H1.6112C1.7501 20.933 3.25451 24.3768 5.82348 26.9454C8.39245 29.514 11.8365 31.0179 15.4667 31.1562V32.2362C15.4667 32.3776 15.5229 32.5133 15.6229 32.6133C15.7229 32.7133 15.8586 32.7695 16 32.7695C16.1414 32.7695 16.2771 32.7133 16.3771 32.6133C16.4771 32.5133 16.5333 32.3776 16.5333 32.2362V31.1557C20.1627 31.0165 23.6058 29.5123 26.1739 26.9439C28.742 24.3755 30.2458 20.9323 30.3845 17.3029H31.4667C31.6081 17.3029 31.7438 17.2467 31.8438 17.1467C31.9438 17.0466 32 16.911 32 16.7695C32 16.6281 31.9438 16.4924 31.8438 16.3924C31.7438 16.2924 31.6081 16.2362 31.4667 16.2362ZM29.3179 16.2362H28.2512C28.1142 13.1723 26.8357 10.2705 24.6672 8.10167C22.4987 5.93279 19.5972 4.65378 16.5333 4.5162V3.44953C19.8799 3.58814 23.0521 4.97986 25.4204 7.3485C27.7886 9.71714 29.1798 12.8896 29.3179 16.2362ZM23.8773 24.7162L20.9808 20.6575L22.9168 17.9455C22.9414 17.9114 22.9738 17.8836 23.0114 17.8646C23.0489 17.8455 23.0905 17.8357 23.1326 17.836C23.1747 17.8363 23.2161 17.8467 23.2533 17.8664C23.2906 17.886 23.3226 17.9142 23.3467 17.9487L26.0325 21.7135C25.4848 22.8265 24.7565 23.8411 23.8773 24.7162ZM16 26.9029C15.8586 26.9029 15.7229 26.9591 15.6229 27.0591C15.5229 27.1591 15.4667 27.2948 15.4667 27.4362V27.9429C13.0716 27.8345 10.7754 26.9566 8.91893 25.4394L12.4512 20.4869L13.3536 21.3935C13.4402 21.4802 13.5431 21.5489 13.6563 21.5958C13.7695 21.6427 13.8908 21.6669 14.0133 21.6669C14.1359 21.6669 14.2572 21.6427 14.3704 21.5958C14.4836 21.5489 14.5864 21.4802 14.6731 21.3935L16 20.0607L16.5333 20.5973C16.711 20.767 16.9473 20.8617 17.1931 20.8617C17.4388 20.8617 17.6751 20.767 17.8528 20.5973L18.8875 19.5599L23.08 25.4378C21.2242 26.9554 18.9282 27.8338 16.5333 27.9423V27.4362C16.5333 27.2948 16.4771 27.1591 16.3771 27.0591C16.2771 26.9591 16.1414 26.9029 16 26.9029ZM5.96533 21.7167L8.65547 17.9455C8.67989 17.912 8.71201 17.8848 8.74914 17.8662C8.78626 17.8476 8.8273 17.8383 8.8688 17.8389C8.9113 17.8387 8.9532 17.8489 8.99091 17.8685C9.02863 17.8881 9.06102 17.9165 9.08533 17.9514L11.0187 20.6597L8.12053 24.7231C7.24083 23.8471 6.51255 22.8311 5.96533 21.7167ZM19.7253 10.3285C19.5928 10.4905 19.5204 10.6933 19.5204 10.9026C19.5204 11.1119 19.5928 11.3147 19.7253 11.4767L20.5813 12.5029H16.5333V9.30287H20.5813L19.7253 10.3285ZM15.7867 15.8122C15.8113 15.778 15.8437 15.7503 15.8812 15.7312C15.9188 15.7122 15.9603 15.7024 16.0024 15.7027C16.0445 15.703 16.0859 15.7134 16.1232 15.733C16.1604 15.7526 16.1924 15.7809 16.2165 15.8154L18.2592 18.6789L17.1925 19.7455L16.6592 19.2085C16.4842 19.034 16.2471 18.9361 16 18.9361C15.7529 18.9361 15.5158 19.034 15.3408 19.2085L14.0133 20.5391L13.08 19.6031L15.7867 15.8122ZM26.6667 17.3029H27.1707C27.1194 18.4158 26.901 19.5147 26.5227 20.5626L24.2176 17.3322C24.0945 17.1591 23.9319 17.0178 23.7432 16.9203C23.5545 16.8227 23.3452 16.7717 23.1328 16.7714C22.9204 16.7711 22.711 16.8215 22.522 16.9185C22.333 17.0155 22.17 17.1562 22.0464 17.329L20.3259 19.7391L17.0869 15.1989C16.9466 15.0031 16.7551 14.8498 16.5333 14.7557V13.5695H21.0587C21.2116 13.5679 21.3608 13.5225 21.4887 13.4386C21.6166 13.3548 21.7178 13.236 21.7803 13.0965C21.8532 12.9416 21.8809 12.7693 21.86 12.5994C21.8392 12.4296 21.7707 12.269 21.6624 12.1365L20.6363 10.9029L21.6624 9.6714C21.7707 9.53882 21.8392 9.37831 21.86 9.20843C21.8809 9.03854 21.8532 8.86622 21.7803 8.7114C21.7181 8.57143 21.6171 8.45224 21.4891 8.368C21.3612 8.28377 21.2118 8.23802 21.0587 8.2362H16.5333C16.5333 8.09475 16.4771 7.95909 16.3771 7.85907C16.2771 7.75906 16.1414 7.70287 16 7.70287C15.8586 7.70287 15.7229 7.75906 15.6229 7.85907C15.5229 7.95909 15.4667 8.09475 15.4667 8.2362V14.7551C15.2461 14.8489 15.0554 15.0012 14.9152 15.1957L11.6741 19.7391L9.95627 17.3322C9.83321 17.159 9.67054 17.0176 9.4818 16.92C9.29305 16.8224 9.08372 16.7713 8.87123 16.771C8.65873 16.7707 8.44925 16.8212 8.26022 16.9182C8.07119 17.0153 7.9081 17.1561 7.78453 17.329L5.47467 20.5663C5.09554 19.5173 4.87655 18.4171 4.82507 17.3029H5.33333C5.47478 17.3029 5.61044 17.2467 5.71046 17.1467C5.81048 17.0466 5.86667 16.911 5.86667 16.7695C5.86667 16.6281 5.81048 16.4924 5.71046 16.3924C5.61044 16.2924 5.47478 16.2362 5.33333 16.2362H4.82507C4.96002 13.4576 6.12456 10.8287 8.09179 8.86181C10.059 6.89488 12.688 5.73074 15.4667 5.5962V6.10286C15.4667 6.24431 15.5229 6.37997 15.6229 6.47999C15.7229 6.58001 15.8586 6.6362 16 6.6362C16.1414 6.6362 16.2771 6.58001 16.3771 6.47999C16.4771 6.37997 16.5333 6.24431 16.5333 6.10286V5.59673C19.3111 5.73229 21.939 6.89681 23.9053 8.86353C25.8717 10.8302 27.0357 13.4584 27.1707 16.2362H26.6667C26.5252 16.2362 26.3896 16.2924 26.2895 16.3924C26.1895 16.4924 26.1333 16.6281 26.1333 16.7695C26.1333 16.911 26.1895 17.0466 26.2895 17.1467C26.3896 17.2467 26.5252 17.3029 26.6667 17.3029ZM15.4667 3.44953V4.5162C12.402 4.65263 9.49935 5.93114 7.32996 8.10014C5.16056 10.2691 3.88152 13.1715 3.74453 16.2362H2.67787C2.81599 12.8889 4.20778 9.71585 6.57692 7.3471C8.94606 4.97836 12.1193 3.5871 15.4667 3.44953ZM2.67787 17.3029H3.74453C3.74453 23.7381 9.5888 28.6703 15.4667 29.0229V30.0895C12.1193 29.952 8.94606 28.5607 6.57692 26.192C4.20778 23.8232 2.81599 20.6502 2.67787 17.3029ZM16.5333 30.0895V29.0229C20.2907 28.7786 27.4971 26.4949 28.2512 17.3029H29.3179C29.1798 20.6495 27.7886 23.8219 25.4204 26.1906C23.0521 28.5592 19.8799 29.9509 16.5333 30.0895Z" fill="#262626"/>
</svg>
