<svg width="58" height="58" viewBox="0 0 58 58" fill="none" xmlns="http://www.w3.org/2000/svg">
<path d="M36.9277 23.5203C33.4458 19.0987 28.9076 16.6637 24.149 16.6637C19.3905 16.6637 14.8524 19.0987 11.3707 23.5203C11.2461 23.6784 11.1784 23.8738 11.1784 24.075C11.1784 24.2762 11.2461 24.4716 11.3707 24.6297C14.8524 29.0513 19.3906 31.4864 24.149 31.4864C28.9072 31.4864 33.4459 29.0511 36.9276 24.6297C37.0521 24.4716 37.1198 24.2763 37.1199 24.075C37.1199 23.8738 37.0522 23.6784 36.9277 23.5203ZM13.2316 24.0752C15.6284 21.238 18.5065 19.4033 21.5587 18.7376C20.5565 19.2236 19.7113 19.982 19.1199 20.926C18.5286 21.87 18.215 22.9614 18.215 24.0753C18.215 25.1892 18.5286 26.2806 19.1199 27.2246C19.7113 28.1685 20.5565 28.927 21.5587 29.413C18.5065 28.7469 15.6284 26.9123 13.2316 24.0752ZM20.0079 24.0752C20.0078 23.2562 20.2506 22.4555 20.7056 21.7744C21.1606 21.0934 21.8073 20.5625 22.564 20.249C23.3207 19.9355 24.1534 19.8534 24.9567 20.0132C25.76 20.1729 26.498 20.5673 27.0772 21.1464C27.6564 21.7255 28.0509 22.4633 28.2107 23.2667C28.3706 24.07 28.2886 24.9026 27.9752 25.6594C27.6619 26.4161 27.1311 27.0629 26.4501 27.518C25.7692 27.9731 24.9685 28.2161 24.1495 28.2161C23.0515 28.2149 21.9989 27.7783 21.2225 27.002C20.4461 26.2257 20.0093 25.1732 20.0079 24.0752ZM26.74 29.4129C27.7421 28.9268 28.5871 28.1683 29.1784 27.2244C29.7696 26.2804 30.0832 25.1891 30.0832 24.0753C30.0832 22.9615 29.7696 21.8701 29.1784 20.9262C28.5871 19.9823 27.7421 19.2238 26.74 18.7377C29.792 19.4035 32.67 21.2384 35.0668 24.0752C32.67 26.9118 29.792 28.7467 26.74 29.4125V29.4129ZM49.52 43.1263C49.8968 42.5406 50.0618 41.8436 49.9875 41.1511C49.9133 40.4587 49.6042 39.8125 49.1118 39.32C48.6194 38.8275 47.9732 38.5184 47.2808 38.4441C46.5883 38.3697 45.8913 38.5346 45.3055 38.9114L43.7592 37.365C46.4278 33.4475 47.8496 28.8147 47.838 24.0747C47.8373 11.0133 37.2109 0.386719 24.1495 0.386719C11.088 0.386719 0.460938 11.0133 0.460938 24.0752C0.460938 37.1372 11.0875 47.7637 24.1495 47.7637C28.8893 47.7755 33.522 46.3537 37.4392 43.6849L38.967 45.2129C38.5516 45.8007 38.3571 46.5162 38.4178 47.2334C38.4785 47.9505 38.7904 48.6232 39.2986 49.1328C39.8081 49.6412 40.4808 49.9532 41.198 50.0138C41.9152 50.0745 42.6307 49.8798 43.2184 49.4643L50.2091 56.4548C50.6233 56.8728 51.116 57.205 51.659 57.4321C52.2019 57.6592 52.7844 57.7768 53.3729 57.7781C53.9614 57.7795 54.5444 57.6646 55.0884 57.44C55.6324 57.2154 56.1267 56.8856 56.5429 56.4694C56.959 56.0533 57.2889 55.559 57.5135 55.015C57.7381 54.471 57.853 53.8881 57.8517 53.2995C57.8503 52.711 57.7327 52.1285 57.5057 51.5856C57.2786 51.0426 56.9465 50.5499 56.5284 50.1356L49.52 43.1263ZM38.1744 41.8839C38.0234 41.7329 37.8234 41.6407 37.6105 41.6241C37.3976 41.6074 37.1858 41.6673 37.0131 41.793C33.2789 44.5187 28.7726 45.9823 24.1495 45.9709C12.076 45.9709 2.25382 36.1481 2.25382 24.0752C2.25382 12.0024 12.076 2.17961 24.1495 2.17961C36.2229 2.17961 46.0451 12.0018 46.0451 24.0752C46.0565 28.6984 44.5932 33.2048 41.8678 36.9392C41.7421 37.1119 41.6823 37.3238 41.699 37.5367C41.7157 37.7496 41.8078 37.9495 41.9589 38.1005L43.9886 40.1301L40.2048 43.914L38.1744 41.8839ZM42.3447 47.8646C42.1083 48.0974 41.7895 48.2273 41.4577 48.226C41.1259 48.2247 40.8081 48.0923 40.5736 47.8577C40.339 47.6231 40.2066 47.3053 40.2053 46.9736C40.204 46.6418 40.3339 46.323 40.5667 46.0866L46.066 40.5873C46.3018 40.3515 46.6216 40.219 46.955 40.219C47.2884 40.219 47.6082 40.3515 47.844 40.5872C48.0797 40.823 48.2122 41.1427 48.2122 41.4762C48.2122 41.8096 48.0798 42.1294 47.844 42.3651L42.3447 47.8646ZM55.2611 55.1868C54.758 55.686 54.0779 55.9661 53.3692 55.9661C52.6604 55.9661 51.9804 55.686 51.4773 55.1868L44.5178 48.2273L48.3015 44.4434L55.2611 51.4031C55.7622 51.9052 56.0437 52.5856 56.0437 53.295C56.0437 54.0044 55.7622 54.6848 55.2611 55.1869V55.1868ZM24.1495 7.03743C14.7551 7.03743 7.11199 14.6804 7.11199 24.0749C7.11199 33.4694 14.7547 41.1124 24.1495 41.1124C33.5442 41.1124 41.1867 33.4694 41.1867 24.0752C41.1867 14.6811 33.5436 7.03743 24.1495 7.03743ZM24.1495 39.3195C15.7436 39.3195 8.90487 32.4808 8.90487 24.0749C8.90487 15.6689 15.7433 8.83032 24.1495 8.83032C32.5556 8.83032 39.3938 15.6691 39.3938 24.0752C39.3938 32.4814 32.5551 39.3195 24.1495 39.3195Z" fill="white"/>
</svg>
